<?xml version="1.0" encoding="iso-8859-1"?>
<!-- Generator: Adobe Illustrator 16.0.0, SVG Export Plug-In . SVG Version: 6.00 Build 0)  -->
<!DOCTYPE svg PUBLIC "-//W3C//DTD SVG 1.1//EN" "http://www.w3.org/Graphics/SVG/1.1/DTD/svg11.dtd">
<svg version="1.1" id="Capa_1" xmlns="http://www.w3.org/2000/svg" xmlns:xlink="http://www.w3.org/1999/xlink" x="0px" y="0px"
	 width="279.951px" height="279.951px" viewBox="0 0 279.951 279.951" style="enable-background:new 0 0 279.951 279.951;"
	 xml:space="preserve">
<g>
	<g>
		<path d="M226.325,90.863l-7.073-8.951c-0.839-0.875-20.826-21.406-47.701-21.406c-5.018,0-10.004,0.738-14.814,2.185
			c-29.909,9.005-42.228,31.698-44.874,37.319l-13.51,2.252L1.491,170.298l-0.228,0.823c-2.149,7.778-1.553,14.447,1.766,19.802
			c5.09,8.212,14.685,10.159,15.094,10.242l0.896,0.176l104.686-63.238l16.451-0.684l0.596-1.331
			c15.172-33.407,40.974-40.41,59.941-40.41c15.39,0,27.33,4.56,27.449,4.608l8.119,3.148l-0.016-0.011
			c0.207,0,29.288,0.451,31.261,7.918c1.408,5.344-8.104,13.903-13.691,18.387c-12.106-26.38-44.78-38.691-75.072-27.54
			c-18.838,6.936-30.261,21.458-36.003,38.101l-18.393-0.083L21.696,203.277c-0.223,0.031-8.389,0.979-15.995-6.245
			c0,0,2.946,25.052,24.901,22.184l92.947-58.533l20.697,22.69c13.458,23.575,44.319,34.071,73.026,23.509
			c28.387-10.45,45.009-37.936,40.504-64.344c6.912-6.175,26.775-25.321,21.199-37.146C272.25,91.161,226.352,90.863,226.325,90.863
			z M18.19,196.303c-2.144-0.606-7.892-2.656-11.128-7.866c-2.485-4.023-2.961-9.139-1.434-15.233l91.932-64.587l20.687,27.245
			L18.19,196.303z M137.049,132.806l-14.69,0.604l-20.454-26.929l13.313-2.217l0.497-1.232c0.046-0.116,2.185-5.217,7.223-11.707
			l23.556,25.787C143.076,121.59,139.892,126.771,137.049,132.806z M200.693,90.938c-15.586,0-35.444,4.396-51.176,22.45
			L125.999,87.65c6.701-7.508,17.036-15.876,32.104-20.42c4.375-1.315,8.896-1.983,13.447-1.983
			c24.813,0,44.076,19.752,44.123,19.772l6.794,8.606C217.206,92.32,209.543,90.938,200.693,90.938z"/>
	</g>
</g>
<g>
</g>
<g>
</g>
<g>
</g>
<g>
</g>
<g>
</g>
<g>
</g>
<g>
</g>
<g>
</g>
<g>
</g>
<g>
</g>
<g>
</g>
<g>
</g>
<g>
</g>
<g>
</g>
<g>
</g>
</svg>
