<?xml version="1.0" encoding="iso-8859-1"?>
<!-- Generator: Adobe Illustrator 16.0.0, SVG Export Plug-In . SVG Version: 6.00 Build 0)  -->
<!DOCTYPE svg PUBLIC "-//W3C//DTD SVG 1.1//EN" "http://www.w3.org/Graphics/SVG/1.1/DTD/svg11.dtd">
<svg version="1.1" id="Capa_1" xmlns="http://www.w3.org/2000/svg" xmlns:xlink="http://www.w3.org/1999/xlink" x="0px" y="0px"
	 width="323.902px" height="323.901px" viewBox="0 0 323.902 323.901" style="enable-background:new 0 0 323.902 323.901;"
	 xml:space="preserve">
<g>
	<g>
		<path d="M9.641,55.717c0.399,0,0.8-0.06,1.204-0.176l4.852-1.442l52.659,177.089l-0.812,0.238
			c-4.464,1.325-6.792,6.752-5.202,12.106l21.639,72.778c1.352,4.547,5.101,7.591,8.935,7.591c0.678,0,1.362-0.093,2.035-0.3
			l24.26-7.208c4.463-1.325,6.794-6.752,5.201-12.111l-21.639-72.779c-1.352-4.546-5.1-7.591-8.935-7.591
			c-0.678,0-1.361,0.094-2.035,0.301l-0.805,0.238l-2.695-9.062l2.54-0.762l2.54-0.751l26.323-7.829
			c-0.187,0.834-0.313,1.688-0.313,2.589v60.149l7.671,25.808c0.254,0.025,0.505,0.093,0.764,0.093h25.308
			c4.661,0,8.438-4.535,8.438-10.123v-75.927c0-5.587-3.777-10.123-8.438-10.123h-0.841v-2.149l29.64-8.812H318.48V13.764H207.026
			L202.936,0L159.97,12.771c0.955-0.773,1.603-1.902,1.603-3.229c0-2.327-1.891-4.22-4.223-4.22h-33.743
			c-2.328,0-4.221,1.887-4.221,4.22c0,2.333,1.888,4.215,4.221,4.215h5.064v8.324L50.862,45.223l-3.827,1.139l-8.262,2.454
			l-0.43-1.447l4.852-1.442c2.231-0.663,3.505-3.011,2.843-5.243c-0.552-1.836-2.234-3.024-4.052-3.024
			c-0.399,0-0.8,0.06-1.204,0.176L8.438,47.455c-2.232,0.663-3.503,3.011-2.84,5.243C6.144,54.533,7.824,55.717,9.641,55.717z
			 M307.88,100.655v76.282h-90.286l34.875-10.367l-19.604-65.92h75.016V100.655z M231.586,24.368v71.997l-21.401-71.997H231.586z
			 M117.799,36.379l10.872,36.56l8.244,27.721l2.201,7.397l5.59-1.66l7.594-2.26l3.011-0.896l8.679-2.581l53.119-15.796
			l22.173,74.573l-26.849,7.982l-32.042,9.527l-18.644,5.546l-0.461,0.14l-0.042-0.14l-1.649-5.546l-4.295-14.434l-3.014-10.134
			l-7.591-25.53l-5.59-18.786l-8.51,2.529l-1.929,0.572l-57.809,17.188L49.546,56.675L117.799,36.379z"/>
	</g>
</g>
<g>
</g>
<g>
</g>
<g>
</g>
<g>
</g>
<g>
</g>
<g>
</g>
<g>
</g>
<g>
</g>
<g>
</g>
<g>
</g>
<g>
</g>
<g>
</g>
<g>
</g>
<g>
</g>
<g>
</g>
</svg>
