<?xml version="1.0" encoding="iso-8859-1"?>
<!-- Generator: Adobe Illustrator 16.0.0, SVG Export Plug-In . SVG Version: 6.00 Build 0)  -->
<!DOCTYPE svg PUBLIC "-//W3C//DTD SVG 1.1//EN" "http://www.w3.org/Graphics/SVG/1.1/DTD/svg11.dtd">
<svg version="1.1" id="Capa_1" xmlns="http://www.w3.org/2000/svg" xmlns:xlink="http://www.w3.org/1999/xlink" x="0px" y="0px"
	 width="435.352px" height="435.352px" viewBox="0 0 435.352 435.352" style="enable-background:new 0 0 435.352 435.352;"
	 xml:space="preserve">
<g>
	<g>
		<path d="M81.934,429.477h56.601V271.255c-20.396,3.431-39.455,10.384-56.601,20.193V429.477z"/>
		<path d="M171.396,429.477h66.315v-145.87c-20.262-8.985-42.659-14.211-66.315-14.728V429.477z"/>
		<path d="M49.065,315.79C18.755,344.892,0,385.078,0,429.477h49.065V315.79z"/>
		<path d="M199.125,59.04c18.809-14.816,35.696-20.53,50.355-17.124C230.321,17.449,202.932,2.02,172.432,2.02
			c-49.706,0-91.233,40.744-102.013,95.367C101.514,98.801,153.952,94.616,199.125,59.04z"/>
		<path d="M172.424,248.665c57.897,0,104.836-55.202,104.836-123.322c0-2.473-0.18-4.891-0.305-7.334
			c-1.578-15.815-8.808-51.417-27.37-59.606c-10.331-4.546-24.041-0.186-40.742,12.96c-50.279,39.614-107.345,43.688-140.717,41.798
			c-0.329,4.001-0.517,8.061-0.517,12.174C67.609,193.463,114.526,248.665,172.424,248.665z"/>
		<path d="M417.252,240.951l-120.319-4.108l-0.061,0.461l-24.962-1.306l-10.335,195.63l32.275,1.703l5.086-96.198l95.797,30.489
			c11.337,3.61,22.21-2.966,24.302-14.688l15.985-90.027C437.104,251.194,429.149,241.363,417.252,240.951z"/>
	</g>
</g>
<g>
</g>
<g>
</g>
<g>
</g>
<g>
</g>
<g>
</g>
<g>
</g>
<g>
</g>
<g>
</g>
<g>
</g>
<g>
</g>
<g>
</g>
<g>
</g>
<g>
</g>
<g>
</g>
<g>
</g>
</svg>
