<?xml version="1.0" encoding="iso-8859-1"?>
<!-- Generator: Adobe Illustrator 16.0.0, SVG Export Plug-In . SVG Version: 6.00 Build 0)  -->
<!DOCTYPE svg PUBLIC "-//W3C//DTD SVG 1.1//EN" "http://www.w3.org/Graphics/SVG/1.1/DTD/svg11.dtd">
<svg version="1.1" id="Capa_1" xmlns="http://www.w3.org/2000/svg" xmlns:xlink="http://www.w3.org/1999/xlink" x="0px" y="0px"
	 width="456.993px" height="456.992px" viewBox="0 0 456.993 456.992" style="enable-background:new 0 0 456.993 456.992;"
	 xml:space="preserve">
<g>
	<g>
		<path d="M449.134,70.604H7.85c-4.336,0-7.85,3.515-7.85,7.851v300.084c0,4.349,3.514,7.851,7.85,7.851h441.292
			c4.34,0,7.851-3.502,7.851-7.851V78.454C456.985,74.118,453.466,70.604,449.134,70.604z M441.284,370.68H15.701V86.305h425.591
			V370.68H441.284z"/>
		<rect x="398.108" y="194.607" width="35.426" height="67.788"/>
		<path d="M61.618,194.607H26.196v67.788h35.422V194.607z M43.905,240.936c-6.869,0-12.435-5.566-12.435-12.436
			c0-6.872,5.566-12.438,12.435-12.438S56.34,221.628,56.34,228.5C56.34,235.369,50.774,240.936,43.905,240.936z"/>
		<path d="M432.467,325.873v-42.467h-55.619v-23.199h-0.008v0.064c-0.177,0-0.345-0.064-0.529-0.064h-0.404v-0.044
			c-17.096-0.505-30.838-14.442-30.838-31.663c0-17.226,13.742-31.186,30.838-31.688v-0.03h0.328c0.209,0,0.413-0.062,0.605-0.062
			v0.062h0.008v-23.207h55.619v-42.453c-18.591,0-33.662-15.076-33.662-33.67H239.54v100.364
			c13.728,3.505,23.923,15.865,23.923,30.685c0,14.812-10.195,27.154-23.923,30.665v100.37h159.266
			C398.805,340.949,413.876,325.873,432.467,325.873z M271.329,228.5c0-1.69,0.353-3.292,0.95-4.76l0.536,2.448l2.762-1.318h0.044
			v11.481h3.282v-14.486h-2.781l-3.783,1.741c1.903-4.435,6.304-7.544,11.441-7.544c6.869,0,12.435,5.566,12.435,12.438
			c0,6.869-5.565,12.436-12.435,12.436S271.329,235.369,271.329,228.5z M287.687,295.305c-6.869,0-12.435-5.566-12.435-12.436
			s5.565-12.436,12.435-12.436c6.868,0,12.435,5.566,12.435,12.436S294.555,295.305,287.687,295.305z M287.687,186.547
			c-6.869,0-12.435-5.566-12.435-12.436c0-6.868,5.565-12.438,12.435-12.438c6.868,0,12.435,5.57,12.435,12.438
			C300.122,180.98,294.555,186.547,287.687,186.547z M323.565,240.936c-6.868,0-12.435-5.566-12.435-12.436
			c0-6.872,5.566-12.438,12.435-12.438c6.869,0,12.436,5.566,12.436,12.438C336,235.369,330.434,240.936,323.565,240.936z"/>
		<path d="M59.859,359.535h163.979v-100.37c-13.723-3.511-23.922-15.845-23.922-30.665c0-14.827,10.199-27.174,23.922-30.685V97.452
			H59.859c0,18.594-15.072,33.67-33.663,33.67v42.453h56.681v23.145h2.368v0.234c16.425,1.234,29.409,14.807,29.409,31.546
			c0,16.728-12.984,30.289-29.409,31.531v0.132h-1.222c-0.387,0.016-0.755,0.108-1.138,0.108v-0.108h-0.008v23.259H26.196v42.455
			C44.795,325.873,59.859,340.949,59.859,359.535z M195.458,162.42c6.869,0,12.435,5.566,12.435,12.435s-5.566,12.435-12.435,12.435
			s-12.435-5.566-12.435-12.435S188.589,162.42,195.458,162.42z M195.458,271.188c6.869,0,12.435,5.566,12.435,12.436
			c0,6.868-5.566,12.435-12.435,12.435s-12.435-5.566-12.435-12.435C183.023,276.754,188.589,271.188,195.458,271.188z
			 M133.635,113.259c6.871,0,12.436,5.57,12.436,12.439s-5.564,12.435-12.436,12.435c-6.869,0-12.435-5.566-12.435-12.435
			S126.767,113.259,133.635,113.259z M133.635,174.855c6.871,0,12.436,5.566,12.436,12.435s-5.564,12.435-12.436,12.435
			c-6.869,0-12.435-5.566-12.435-12.435S126.767,174.855,133.635,174.855z M133.635,246.31c6.871,0,12.436,5.566,12.436,12.435
			c0,6.869-5.564,12.436-12.436,12.436c-6.869,0-12.435-5.566-12.435-12.436C121.201,251.876,126.767,246.31,133.635,246.31z
			 M133.635,307.907c6.871,0,12.436,5.566,12.436,12.436c0,6.868-5.564,12.435-12.436,12.435c-6.869,0-12.435-5.566-12.435-12.435
			C121.201,313.474,126.767,307.907,133.635,307.907z"/>
		<polygon points="38.389,223.644 38.944,226.188 41.709,224.87 41.755,224.87 41.755,236.351 45.027,236.351 45.027,221.864 
			42.242,221.864 		"/>
		<path d="M138.497,130.038h-5.482v-0.046l1.334-1.116c2.112-1.878,3.857-3.807,3.857-6.264c0-2.607-1.792-4.522-5.08-4.522
			c-1.932,0-3.648,0.667-4.727,1.499l0.958,2.41c0.764-0.559,1.843-1.176,3.102-1.176c1.671,0,2.36,0.932,2.36,2.108
			c-0.022,1.689-1.551,3.322-4.741,6.171l-1.843,1.671v2.05h10.277v-2.785H138.497z"/>
		<path d="M132.161,192.173c-1.38,0-2.763-0.551-3.362-0.89l-0.697,2.561c0.848,0.511,2.435,1.004,4.3,1.004
			c3.685,0,5.931-1.866,5.931-4.41c0-1.914-1.407-3.232-3.132-3.546v-0.042c1.779-0.603,2.645-1.829,2.645-3.366
			c0-1.986-1.713-3.611-4.781-3.611c-1.894,0-3.615,0.533-4.484,1.088l0.697,2.451c0.575-0.353,1.833-0.864,3.01-0.864
			c1.453,0,2.142,0.645,2.142,1.507c0,1.226-1.429,1.671-2.561,1.671h-1.34v2.435h1.378c1.497,0,2.921,0.643,2.921,2.098
			C134.813,191.333,133.928,192.173,132.161,192.173z"/>
		<path d="M134.192,266.242h3.204V262.8h1.721v-2.545h-1.721v-8.495h-4.16l-5.458,8.832v2.208h6.414V266.242z M130.918,260.239
			l0.026-0.048l1.906-3.158c0.487-0.901,0.897-1.764,1.368-2.697h0.062c-0.038,0.934-0.088,1.824-0.088,2.697v3.206H130.918z"/>
		<path d="M138.446,322.238c0-1.695-0.667-2.89-1.763-3.627c-0.996-0.737-2.427-1.058-3.809-1.058c-0.353,0-0.617,0-0.932,0.052
			l0.314-2.229h5.61v-2.776h-7.977l-0.934,7.598c0.573-0.101,1.13-0.132,1.94-0.132c2.897,0,4.082,0.905,4.082,2.393
			c0,1.551-1.491,2.208-2.896,2.208c-1.322,0-2.633-0.397-3.258-0.706l-0.621,2.529c0.801,0.433,2.27,0.829,4.033,0.829
			C136.132,327.319,138.446,324.943,138.446,322.238z"/>
		<path d="M195.526,292.483c3.12,0,5.324-2.36,5.324-5.234c0-3.005-2.05-4.732-4.473-4.732c-1.338,0-2.364,0.429-3.077,1.134h-0.066
			c0.381-1.671,1.713-3.201,4.727-3.446c0.529-0.048,0.936-0.063,1.311-0.048v-2.593c-0.312-0.028-0.735-0.044-1.356,0.016
			c-2.254,0.116-4.144,0.806-5.572,2.124c-1.581,1.479-2.585,3.751-2.585,6.464C189.75,289.617,191.651,292.483,195.526,292.483z
			 M193.276,286.203c0.314-0.709,1.074-1.262,1.986-1.262c1.453,0,2.158,1.149,2.158,2.484c0,1.479-0.761,2.561-1.939,2.561
			c-1.551,0-2.292-1.383-2.36-2.913C193.12,286.672,193.166,286.412,193.276,286.203z"/>
		<polygon points="196.814,171.665 190.85,183.319 194.438,183.319 200.403,170.976 200.403,168.834 190.176,168.834 
			190.176,171.619 196.814,171.619 		"/>
		<polygon points="277.829,168.167 278.381,170.711 281.143,169.393 281.187,169.393 281.187,180.868 284.469,180.868 
			284.469,166.383 281.676,166.383 		"/>
		<polygon points="290.196,168.167 290.76,170.711 293.514,169.393 293.562,169.393 293.562,180.868 296.84,180.868 296.84,166.383 
			294.059,166.383 		"/>
		<path d="M288.885,236.596c3.679,0,5.482-3.114,5.482-7.559c0-3.971-1.535-7.417-5.391-7.417c-3.751,0-5.506,3.296-5.506,7.51
			C283.503,233.221,285.142,236.596,288.885,236.596z M288.929,224.181c1.366,0,2.056,1.695,2.056,4.901
			c0,3.298-0.721,4.953-2.023,4.953s-2.1-1.596-2.1-4.905C286.862,225.741,287.703,224.181,288.929,224.181z"/>
		<path d="M289.811,281.591v-0.068c1.45-0.721,2.124-1.947,2.124-3.189c0-1.764-1.411-3.728-4.793-3.728
			c-2.89,0-5.098,1.627-5.098,4.088c0,1.263,0.689,2.444,2.1,3.182v0.045c-1.579,0.688-2.589,1.887-2.589,3.635
			c0,1.963,1.703,4.031,5.374,4.031c3.366,0,5.575-1.787,5.575-4.408C292.488,283.314,291.246,282.12,289.811,281.591z
			 M286.982,276.906c1.25,0,1.763,0.89,1.763,1.808c0,0.89-0.689,1.603-1.471,1.827c-1.166-0.353-2.031-0.982-2.031-1.964
			C285.243,277.688,285.832,276.906,286.982,276.906z M287.058,287.241c-1.271,0-2.076-0.981-2.052-2.032
			c0-1.05,0.641-1.847,1.763-2.155c1.318,0.353,2.269,1.118,2.269,2.376C289.038,286.46,288.232,287.241,287.058,287.241z"/>
		<path d="M323.277,221.62c-3.189,0-5.458,2.384-5.458,5.214c0,2.825,2.052,4.52,4.492,4.52c1.318,0,2.284-0.377,2.926-1.05
			l0.048,0.021c-0.244,1.105-0.874,2.056-1.831,2.7c-0.762,0.537-1.804,0.817-2.854,0.89c-0.665,0.021-1.018,0.045-1.463,0v2.629
			c0.381,0.021,0.978,0.053,1.531,0c2.256-0.084,4.172-0.761,5.55-2.003c1.579-1.472,2.537-3.655,2.537-6.685
			C328.751,224.469,327,221.62,323.277,221.62z M325.125,228.012c-0.309,0.505-0.958,0.934-1.896,0.934
			c-1.354,0-2.048-1.074-2.048-2.316c0-1.517,0.837-2.537,1.964-2.537c1.57,0,2.155,1.507,2.14,3.056
			C325.285,227.569,325.237,227.795,325.125,228.012z"/>
	</g>
</g>
<g>
</g>
<g>
</g>
<g>
</g>
<g>
</g>
<g>
</g>
<g>
</g>
<g>
</g>
<g>
</g>
<g>
</g>
<g>
</g>
<g>
</g>
<g>
</g>
<g>
</g>
<g>
</g>
<g>
</g>
</svg>
