<?xml version="1.0" encoding="iso-8859-1"?>
<!-- Generator: Adobe Illustrator 16.0.0, SVG Export Plug-In . SVG Version: 6.00 Build 0)  -->
<!DOCTYPE svg PUBLIC "-//W3C//DTD SVG 1.1//EN" "http://www.w3.org/Graphics/SVG/1.1/DTD/svg11.dtd">
<svg version="1.1" id="Capa_1" xmlns="http://www.w3.org/2000/svg" xmlns:xlink="http://www.w3.org/1999/xlink" x="0px" y="0px"
	 width="489.068px" height="489.068px" viewBox="0 0 489.068 489.068" style="enable-background:new 0 0 489.068 489.068;"
	 xml:space="preserve">
<g>
	<g>
		<path d="M218.735,93.214l11.101,22.428c4.815,3.731,10.778,6.037,17.334,6.037c4.987,0,9.596-1.391,13.667-3.645
			c8.772-4.841,14.775-14.068,14.775-24.788c0-6.141-1.996-11.792-5.298-16.442c-5.161-7.235-13.569-11.994-23.139-11.994
			C231.477,64.81,218.757,77.529,218.735,93.214z"/>
		<path d="M292.484,28.442c0-2.811-0.537-5.474-1.294-8.039C287.704,8.636,276.931,0,264.043,0c-2.882,0-5.606,0.555-8.228,1.348
			c3.751,1.587,7.102,4.052,9.53,7.44c7.185,10.021,4.877,24.017-5.146,31.208l-14.247,10.223c4.93,4.098,11.181,6.654,18.09,6.654
			c2.737,0,5.334-0.507,7.843-1.232C283.744,52.219,292.484,41.402,292.484,28.442z"/>
		<path d="M151.467,477.01c0.832,0.116,1.655,0.16,2.479,0.16c9.319,0,17.422-6.9,18.668-16.391l11.706-89.097l31.158-103.652
			l13.415-0.396l19.668,95.922c0.445,2.168,1.26,4.231,2.426,6.107l68.114,110.452c3.567,5.779,9.738,8.953,16.062,8.953
			c3.382,0,6.792-0.906,9.882-2.806c8.864-5.474,11.605-17.079,6.14-25.944l-66.367-107.603l-19.841-96.768
			c-2.437-36.43,15.096-90.642,22.249-110.97c0.545-0.99,1.175-1.928,1.52-3.052l13.3-42.89c0.377-1.214,0.613-2.473,0.706-3.741
			l4.224-56.839c0.537-7.167-3.526-13.581-9.654-16.471c0.409,2.096,0.653,4.24,0.653,6.456c0,16.164-11.377,29.665-26.525,33.065
			l-0.561,7.542c6.287,6.163,10.219,14.727,10.219,24.211c0,14.659-9.397,27.058-22.438,31.797l-1.41,4.542l-11.432-2.535
			l-11.806-2.637l-0.345-0.08l-2.921-0.651l-3.438-0.764l-1.923-3.883l-4.899-9.892c-0.91-1.523-1.717-3.11-2.37-4.781l-4.733-9.563
			l-10.231-20.676l34.434-24.698l2.227-1.595l2.216-1.583l14.962-10.732c7.574-5.432,9.305-15.97,3.879-23.536
			c-3.13-4.374-7.982-6.729-12.968-6.947c-0.253-0.008-0.495-0.088-0.756-0.088c-1.414,0-2.817,0.292-4.202,0.645
			c-1.954,0.509-3.867,1.265-5.61,2.511l-0.771,0.551l-64.7,46.412c-6.712,4.811-8.951,13.785-5.286,21.179l31.707,64.075
			c-0.353,1.1-0.697,2.204-1.042,3.328c-0.345,1.146-0.683,2.314-1.02,3.484c-12.305,42.771-17.391,98.601-18.755,116.317
			l-29.707,98.819c-0.289,0.981-0.503,1.964-0.633,2.974l-11.902,90.62C133.878,466.186,141.144,475.651,151.467,477.01z"/>
	</g>
</g>
<g>
</g>
<g>
</g>
<g>
</g>
<g>
</g>
<g>
</g>
<g>
</g>
<g>
</g>
<g>
</g>
<g>
</g>
<g>
</g>
<g>
</g>
<g>
</g>
<g>
</g>
<g>
</g>
<g>
</g>
</svg>
