<?xml version="1.0" encoding="iso-8859-1"?>
<!-- Generator: Adobe Illustrator 16.0.0, SVG Export Plug-In . SVG Version: 6.00 Build 0)  -->
<!DOCTYPE svg PUBLIC "-//W3C//DTD SVG 1.1//EN" "http://www.w3.org/Graphics/SVG/1.1/DTD/svg11.dtd">
<svg version="1.1" id="Capa_1" xmlns="http://www.w3.org/2000/svg" xmlns:xlink="http://www.w3.org/1999/xlink" x="0px" y="0px"
	 width="458.544px" height="458.544px" viewBox="0 0 458.544 458.544" style="enable-background:new 0 0 458.544 458.544;"
	 xml:space="preserve">
<g>
	<g>
		<path d="M13.619,156.831c5.865-5.244,12.083-9.626,18.833-13.04c1.068,9.055,2.936,18.38,5.925,27.625
			c13.048,40.329,20.726,88.818,26.285,134.135c-15.559,6.816-26.07,20.698-31.785,37.926c-3.196,9.646,11.971,13.738,15.143,4.181
			c3.46-10.452,9.562-20.194,18.59-25.824c0.525,4.608,1.058,9.233,1.551,13.726c5.813,53.018,18.891,61.017,30.508,54.477
			c9.94-5.59,27.359-13.284,58.07-14.951c-3.07-56.301-12.599-112.112-13.393-168.583c-0.831-59.39,2.998-118.744-1.587-178.023
			c-14.19,1.391-29.517,3.745-45.262,5.654c-47.935,5.807-58.112,36.345-58.112,36.345s-7.65,24.752-7.049,56.382
			c-10.638,4.37-20.063,11.029-28.81,18.847C-5.042,152.489,6.097,163.559,13.619,156.831z"/>
		<path d="M157.649,219.896c2.086,51.824,10.175,103.143,12.968,154.883c0.958,0.008,1.876-0.008,2.857,0.008
			c41.405,0.729,45.759-15.978,45.759-36.315c0-20.342,4.36-172.141,7.993-202.64c3.635-30.506-0.728-64.642-19.61-91.137
			c-10.614-14.884-29.252-18.204-52.047-17.23C160.595,91.578,155.066,155.701,157.649,219.896z"/>
		<path d="M266.391,83.939c-18.891,26.495-23.247,60.628-19.612,91.137c3.635,30.504,7.991,182.306,7.991,202.64
			c0,20.338,4.36,37.04,45.761,36.315c0.978-0.017,1.899,0,2.857-0.009c2.797-51.739,10.88-103.051,12.972-154.883
			c2.593-64.195-2.938-128.326,2.076-192.438C295.638,65.736,276.999,69.054,266.391,83.939z"/>
		<path d="M435.625,109.744c0,0-10.163-30.539-58.104-36.346c-15.745-1.909-31.077-4.262-45.268-5.654
			c-4.593,59.28-0.753,118.638-1.579,178.023c-0.797,56.473-10.327,112.276-13.393,168.585c30.701,1.663,48.129,9.361,58.063,14.952
			c10.388,5.838,21.908-0.017,28.396-39.125c1.779,6.071,2.629,12.499,2.737,19.184c0.16,10.11,15.861,10.127,15.701,0
			c-0.269-17.004-4.477-33.166-15.004-46.222c5.658-49.725,13.493-105.403,28.021-150.974c4.239,8.997,6.523,19.005,7.598,29.385
			c1.025,9.966,16.735,10.074,15.701,0c-1.903-18.402-6.749-36.546-18.069-50.75C447.57,148.383,435.625,109.744,435.625,109.744z"
			/>
	</g>
</g>
<g>
</g>
<g>
</g>
<g>
</g>
<g>
</g>
<g>
</g>
<g>
</g>
<g>
</g>
<g>
</g>
<g>
</g>
<g>
</g>
<g>
</g>
<g>
</g>
<g>
</g>
<g>
</g>
<g>
</g>
</svg>
