<?xml version="1.0" encoding="iso-8859-1"?>
<!-- Generator: Adobe Illustrator 16.0.0, SVG Export Plug-In . SVG Version: 6.00 Build 0)  -->
<!DOCTYPE svg PUBLIC "-//W3C//DTD SVG 1.1//EN" "http://www.w3.org/Graphics/SVG/1.1/DTD/svg11.dtd">
<svg version="1.1" id="Capa_1" xmlns="http://www.w3.org/2000/svg" xmlns:xlink="http://www.w3.org/1999/xlink" x="0px" y="0px"
	 width="437.665px" height="437.665px" viewBox="0 0 437.665 437.665" style="enable-background:new 0 0 437.665 437.665;"
	 xml:space="preserve">
<g>
	<g>
		<path d="M407.774,334.777l-12.496-21.704l-3.222,23.175c-0.252,1.803-1.763,3.182-3.587,3.258
			c-65.293,2.974-129.171,28.533-152.622,38.892c12.956,4.1,103.664,29.086,195.53-41.729h-20.314
			C409.689,336.669,408.447,335.947,407.774,334.777z"/>
		<path d="M255.135,117.162c1.888,0,3.759-0.635,5.735-1.956c1.679-1.114,1.887-2.196,1.871-3.116
			c-0.101-8.368-18.582-24.133-34.957-35.752c-0.477,0.016-0.985,0.034-1.45,0.05C233.042,95.377,244.259,117.162,255.135,117.162z"
			/>
		<path d="M124.899,67.408c4.757,0.164,9.648,0.323,14.585,0.487c1.062-7.544,2.278-14.084,2.689-16.214h-13.702l-0.268,1
			C128.174,52.787,126.422,59.25,124.899,67.408z"/>
		<path d="M201.458,76.833c-11.028,11.032-24.323,26.503-24.908,36.331c-0.134,2.066,0.345,3.603,1.483,4.837
			c1.146,1.25,2.054,1.388,2.629,1.388c2.795,0,6.973-3.47,11.163-9.285c6.785-9.429,12.317-22.89,14.345-33.264
			c-0.395,0-0.755,0.008-1.146,0.008C203.876,76.849,202.664,76.841,201.458,76.833z"/>
		<path d="M287.183,51.672h-13.357c0.518,2.46,1.82,8.784,2.846,15.835c4.456-0.1,8.977-0.196,13.549-0.305
			c-1.182-8.033-2.469-14.665-2.5-14.792L287.183,51.672z"/>
		<path d="M343.559,66.055c6.412-0.132,12.315-0.25,17.528-0.347l-0.769-14.036h-19.492C341.274,53.7,342.449,59.178,343.559,66.055
			z"/>
		<path d="M316.85,51.672c0.569,2.216,2.02,7.923,3.29,14.879c5.422-0.118,10.68-0.222,15.753-0.328
			c-1.278-7.759-2.621-13.577-2.637-13.693l-0.185-0.85H316.85V51.672z"/>
		<path d="M295.302,51.672c0.389,2.05,1.526,8.171,2.553,15.354c4.889-0.106,9.766-0.21,14.583-0.312
			c-1.503-7.836-3.146-13.92-3.174-14.034l-0.232-1.008H295.302z"/>
		<path d="M149.762,52.412c-0.03,0.134-1.429,7.271-2.645,15.715c4.529,0.134,9.059,0.263,13.543,0.389
			c1.042-7.46,2.442-14.269,2.997-16.843h-13.729L149.762,52.412z"/>
		<path d="M104.213,52.522c-0.024,0.125-1.396,6.099-2.691,14.038c4.905,0.188,10.181,0.376,15.693,0.571
			c1.311-7.213,2.801-13.19,3.406-15.466H104.42L104.213,52.522z"/>
		<path d="M96.623,51.672H77.76v13.96c4.182,0.165,9.686,0.399,16.114,0.643C94.982,59.289,96.183,53.714,96.623,51.672z"/>
		<path d="M200.069,378.895c-36.802-37.241-147.125-49.74-148.317-49.876c-1.625-0.168-2.938-1.371-3.29-2.958l-4.719-21.512
			L32.57,321.645c-0.645,0.982-1.703,1.607-2.879,1.707c-9.64,0.737-23.481,0.353-29.603,0.133
			c-0.024,0.429-0.066,0.857-0.088,1.278C0,324.763,47.071,402.999,200.069,378.895z"/>
		<path d="M232.293,371.689c23.19-10.271,86.896-35.887,152.683-39.605l4.309-31.018c0.22-1.603,1.442-2.89,3.033-3.198
			c1.611-0.312,3.206,0.426,4.02,1.836l16.911,29.391h24.417c-3.854-20.747-33.862-176.898-75.428-242.337L361.5,73.269
			c-5.013,0.11-10.688,0.23-16.859,0.356c0.678,5.386,1.158,11.066,1.158,16.286h-7.59c0-5.102-0.505-10.778-1.194-16.138
			c-5.029,0.108-10.259,0.212-15.641,0.331c0.766,5.432,1.242,11.059,1.042,15.965l-7.591-0.314
			c0.185-4.668-0.32-10.167-1.102-15.495c-4.913,0.108-9.898,0.205-14.888,0.323c0.629,5.634,1.026,11.23,0.806,15.521l-7.574-0.373
			c0.188-4.016-0.225-9.467-0.854-14.959c-4.584,0.1-9.121,0.194-13.602,0.298c0.617,6.202,0.777,12.145-0.212,15.823l-7.33-1.948
			c0.714-2.699,0.537-7.858-0.092-13.688c-10.856,0.249-21.043,0.501-29.775,0.744c13.982,10.63,30,25.145,30.128,36.009
			c0.048,3.901-1.771,7.204-5.258,9.526c-3.206,2.134-6.548,3.224-9.942,3.224c-17.092,0-29.629-28.01-35.734-45.231
			c-0.315,0.142-0.66,0.202-0.99,0.314c-0.323,8.666,0.637,29.947,15.985,43.943l-5.105,5.608
			c-13.709-12.493-17.5-29.4-18.332-41.078c-3.086,9.416-7.834,19.079-12.99,26.238c-5.953,8.25-11.768,12.436-17.312,12.436
			c-3.07,0-5.909-1.335-8.217-3.845c-2.553-2.781-3.715-6.29-3.464-10.434c0.66-10.958,11.76-25.138,21.937-35.955
			c-7.31-0.096-15.287-0.254-23.564-0.473c-0.525,5.29-0.659,10.017,0.05,12.669l-7.324,1.948c-0.93-3.477-0.841-8.989-0.309-14.804
			c-4.51-0.134-9.065-0.261-13.611-0.403c-0.583,5.182-0.941,10.261-0.755,14.044l-7.574,0.38c-0.203-4.06,0.142-9.319,0.713-14.659
			c-5.05-0.165-10.031-0.329-14.9-0.487c-0.721,5.102-1.17,10.339-0.99,14.808l-7.582,0.311c-0.194-4.741,0.242-10.123,0.952-15.379
			c-5.496-0.202-10.734-0.398-15.593-0.579c-0.675,5.268-1.162,10.811-1.162,15.802h-7.582c0-5.148,0.471-10.76,1.13-16.092
			c-5.975-0.235-11.046-0.441-15.042-0.605v11.638c0,0-68.181,144.317-77.043,231.05c5.747,0.205,17.695,0.505,26.549,0
			l15.088-23.062c0.832-1.286,2.348-1.924,3.855-1.655c1.499,0.261,2.691,1.427,3.021,2.914l6.06,27.699
			c18.224,2.22,117.454,15.93,152.025,53.731l11.73-46.029L232.293,371.689z M121.373,234.684c2.271,0,4.11,1.831,4.11,4.104
			c0,2.269-1.839,4.107-4.11,4.107c-2.258,0-4.105-1.839-4.105-4.107C117.268,236.531,119.115,234.684,121.373,234.684z
			 M110.234,225.362c2.269,0,4.105,1.84,4.105,4.107c0,2.265-1.837,4.104-4.105,4.104c-2.268,0-4.105-1.839-4.105-4.104
			C106.121,227.202,107.966,225.362,110.234,225.362z M85.897,225.362c2.262,0,4.102,1.84,4.102,4.107
			c0,2.265-1.839,4.104-4.102,4.104c-2.264,0-4.105-1.839-4.105-4.104C81.792,227.202,83.633,225.362,85.897,225.362z
			 M73.976,234.684c2.266,0,4.105,1.831,4.105,4.104c0,2.269-1.84,4.107-4.105,4.107c-2.269,0-4.108-1.839-4.108-4.107
			C69.859,236.531,71.707,234.684,73.976,234.684z M121.68,257.446v30.344l-21.155,17.701l-24.658-17.072v-30.973l-6.955-4.433
			l29.076-18.959l30.971,17.7L121.68,257.446z"/>
		<path d="M266.239,52.484l-0.393-0.819H171.39l-0.158,0.819c-0.766,3.47-1.992,9.734-2.943,16.208
			c10.852,0.269,21.167,0.463,30.046,0.529c3.153-3.047,5.818-5.458,7.536-6.98c0.194-0.265,0.525-0.407,0.753-0.651
			c1.028-2.888,4.428-5.071,8.652-5.071c4.646,0,8.354,2.629,8.893,5.967c0.699,0.99,1.238,2.078,1.603,3.256
			c1.312,0.866,2.735,1.832,4.342,2.936c10.268-0.302,23.937-0.651,38.9-1.004C268.191,62.172,267.149,56.666,266.239,52.484z"/>
	</g>
</g>
<g>
</g>
<g>
</g>
<g>
</g>
<g>
</g>
<g>
</g>
<g>
</g>
<g>
</g>
<g>
</g>
<g>
</g>
<g>
</g>
<g>
</g>
<g>
</g>
<g>
</g>
<g>
</g>
<g>
</g>
</svg>
