<?xml version="1.0" encoding="iso-8859-1"?>
<!-- Generator: Adobe Illustrator 16.0.0, SVG Export Plug-In . SVG Version: 6.00 Build 0)  -->
<!DOCTYPE svg PUBLIC "-//W3C//DTD SVG 1.1//EN" "http://www.w3.org/Graphics/SVG/1.1/DTD/svg11.dtd">
<svg version="1.1" id="Capa_1" xmlns="http://www.w3.org/2000/svg" xmlns:xlink="http://www.w3.org/1999/xlink" x="0px" y="0px"
	 width="329.417px" height="329.417px" viewBox="0 0 329.417 329.417" style="enable-background:new 0 0 329.417 329.417;"
	 xml:space="preserve">
<g>
	<g>
		<path d="M125.213,46.547c22.96-12.865,47.199-10.716,70.278,0.386c0.264-2.661,0.522-5.258,0.771-7.746
			c-22.753-11.682-47.033-14.359-69.77-1.3C126,40.704,125.57,43.588,125.213,46.547z"/>
		<path d="M127.882,31.101c22.603-11.479,46.347-8.795,68.934,2.424c0.265-2.747,0.513-5.357,0.74-7.752
			c-21.836-11.671-45.161-14.937-67.167-3.542C129.446,25.071,128.602,28.025,127.882,31.101z"/>
		<path d="M117.811,271.898c21.937,15.007,36.943,53.682,36.943,53.682c25.398,9.818,69.263-2.304,69.263-2.304l2.102-0.953
			c6.344-14.426-18.838-18.092-32.114-23.291c-13.276-5.193-9.232-57.146-15.006-84.269c-5.774-27.129,1.159-24.244-0.575-39.83
			c-1.734-15.584-2.884-0.575,4.039-28.283c4.013-16.044,8.989-59.949,12.475-94.081c-23.038-11.436-47.564-13.58-70.423,0.546
			c-2.727,32.467,1.766,71.43,4.274,105.08c4.039,54.254-6.349,57.723-17.318,70.994
			C100.496,242.461,95.876,256.888,117.811,271.898z"/>
		<path d="M199.198,8.12c-27.708-15.006-59.45-4.619-59.45-4.619c-2.566,3.42-4.681,7.319-6.542,11.48
			c21.401-9.199,43.686-5.896,64.899,5.064C198.794,12.654,199.198,8.12,199.198,8.12z"/>
	</g>
</g>
<g>
</g>
<g>
</g>
<g>
</g>
<g>
</g>
<g>
</g>
<g>
</g>
<g>
</g>
<g>
</g>
<g>
</g>
<g>
</g>
<g>
</g>
<g>
</g>
<g>
</g>
<g>
</g>
<g>
</g>
</svg>
