<?xml version="1.0" encoding="iso-8859-1"?>
<!-- Generator: Adobe Illustrator 16.0.0, SVG Export Plug-In . SVG Version: 6.00 Build 0)  -->
<!DOCTYPE svg PUBLIC "-//W3C//DTD SVG 1.1//EN" "http://www.w3.org/Graphics/SVG/1.1/DTD/svg11.dtd">
<svg version="1.1" id="Capa_1" xmlns="http://www.w3.org/2000/svg" xmlns:xlink="http://www.w3.org/1999/xlink" x="0px" y="0px"
	 width="314.063px" height="314.063px" viewBox="0 0 314.063 314.063" style="enable-background:new 0 0 314.063 314.063;"
	 xml:space="preserve">
<g>
	<g>
		<path d="M296.905,7.751l-72.359,17.137L227.912,0H83.518l3.708,24.353L17.126,7.751c-6.05-1.432-8.829,1.973-6.203,7.615
			l111.286,238.807l4.194,27.558H81.244c-6.222,0-11.262,5.044-11.262,11.263v1.911c0,6.219,5.041,11.257,11.262,11.257h115.531
			c9.016,5.023,19.372,7.902,30.396,7.902c34.595,0,62.743-28.148,62.743-62.749c0-34.595-28.148-62.738-62.743-62.738
			c-1.217,0-2.408,0.114-3.609,0.187L303.16,15.392C305.76,9.74,302.953,6.319,296.905,7.751z M38.872,37.122l52.18,12.36
			l0.357,0.086l8.753,59.758l11.247,76.786L38.872,37.122z M227.177,204.474c25.864,0,46.836,20.971,46.836,46.841
			c0,20.423-13.096,37.749-31.327,44.148c-4.862,1.714-10.062,2.693-15.509,2.693c-14.25,0-26.988-6.39-35.579-16.426
			c-0.533-0.621-1.041-1.273-1.543-1.926c-6.074-7.901-9.72-17.756-9.72-28.49c0-21.883,15.032-40.213,35.325-45.35
			C219.348,205.027,223.194,204.474,227.177,204.474z M203.896,186.111l19.998-136.544l52.537-12.446L203.896,186.111z"/>
		<path d="M197.941,244.562c-2.6,1.145-4.423,3.733-4.423,6.752c0,0.746,0.146,1.444,0.348,2.118
			c0.911,3.045,3.702,5.271,7.042,5.271h52.532c4.075,0,7.384-3.31,7.384-7.39c0-4.075-3.309-7.384-7.384-7.384h-52.532
			C199.852,243.926,198.853,244.158,197.941,244.562z"/>
	</g>
</g>
<g>
</g>
<g>
</g>
<g>
</g>
<g>
</g>
<g>
</g>
<g>
</g>
<g>
</g>
<g>
</g>
<g>
</g>
<g>
</g>
<g>
</g>
<g>
</g>
<g>
</g>
<g>
</g>
<g>
</g>
</svg>
