<?xml version="1.0" encoding="iso-8859-1"?>
<!-- Generator: Adobe Illustrator 16.0.0, SVG Export Plug-In . SVG Version: 6.00 Build 0)  -->
<!DOCTYPE svg PUBLIC "-//W3C//DTD SVG 1.1//EN" "http://www.w3.org/Graphics/SVG/1.1/DTD/svg11.dtd">
<svg version="1.1" id="Capa_1" xmlns="http://www.w3.org/2000/svg" xmlns:xlink="http://www.w3.org/1999/xlink" x="0px" y="0px"
	 width="409.403px" height="409.403px" viewBox="0 0 409.403 409.403" style="enable-background:new 0 0 409.403 409.403;"
	 xml:space="preserve">
<g>
	<g>
		<path d="M354.449,69.597H54.954C24.602,69.597,0,94.199,0,124.549v160.303c0,30.345,24.602,54.954,54.954,54.954h299.495
			c30.344,0,54.954-24.609,54.954-54.954V124.549C409.403,94.191,384.793,69.597,354.449,69.597z M210.262,142.026
			c32.111,2.817,57.387,29.837,57.387,62.666c0,32.86-25.283,59.854-57.387,62.668V142.026z M42.855,97.651h17.27
			c0,9.521-7.749,17.266-17.27,17.266V97.651z M42.855,152.677h45.132c3.799,0,6.9,3.102,6.9,6.899v93.369
			c0,3.804-3.094,6.901-6.9,6.901H42.855V152.677z M42.855,311.747v-17.265c9.521,0,17.27,7.742,17.27,17.265H42.855z
			 M199.147,267.372c-32.122-2.821-57.402-29.819-57.402-62.672c0-4.2,0.425-8.289,1.212-12.261c1.326,2.22,2.721,4.48,4.276,6.759
			l-1.382-0.81l-1.97,3.362l9.375,5.474l0.108,0.137c0.363,0.444,0.715,0.89,1.098,1.326c0.779,0.89,1.939,1.358,3.178,1.114
			l4.941,2.897l-2.192-6.071c0.05-0.87-0.234-1.735-0.861-2.469l-4.256-11.854l-3.611,1.272c-2.33-3.573-4.35-7.087-6.091-10.329
			c8.195-22.494,28.826-39.05,53.569-41.216v125.34H199.147z M199.147,116.085c-24.445,4.262-41.809,14.962-42.032,15.102
			c-1.567,1.024-2.023,3.125-1.026,4.689c0.95,1.528,3.116,2.04,4.687,1.05c0.197-0.122,15.99-9.82,38.379-13.942v7.933
			c-25.994,1.939-48.271,17.34-59.897,39.229c-0.18-0.441-0.309-0.739-0.315-0.755c-0.667-1.707-2.677-2.606-4.406-1.917
			c-1.731,0.683-2.597,2.665-1.911,4.412c0.24,0.622,1.246,3.072,2.885,6.548c-3.116,8.171-4.875,17.003-4.875,26.259
			c0,38.964,30.27,70.932,68.519,73.784v9.811c-43.515-2.577-70.623-23.211-71.831-24.148c-1.423-1.118-3.633-0.89-4.773,0.492
			c-1.168,1.472-0.95,3.619,0.511,4.798c1.256,1.006,29.635,23.307,76.093,25.791v16.511H71.234
			c0-15.637-12.728-28.364-28.379-28.364v-12.419h45.132c9.928,0,18.009-8.096,18.009-18.018v-19.5l4.27,2.604
			c-0.605,1.103-1.218,2.345-1.633,3.703c-0.839,2.568-1.138,4.905-0.928,7.365l0.038,0.461l1.579,1.09l6.594-9.245l7.247,3.983
			l0.99-1.498l-0.104-0.417c-0.517-2.145-1.42-3.939-2.785-5.595c-0.549-0.729-1.162-1.307-1.745-1.795l5.025-7.65l-1.617-1.014
			l-0.415,0.124c-2.356,0.673-4.366,1.755-6.5,3.494c-0.675,0.521-1.351,1.143-2.082,1.912c-0.509-0.165-1.108-0.317-1.725-0.401
			c-2.351-0.404-4.17-0.284-6.202,0.301v-71.29c0-9.933-8.081-18.009-18.009-18.009H42.863V126.01
			c15.651,0,28.377-12.726,28.377-28.373h127.915v18.448H199.147z M366.548,311.747h-17.265c0-9.522,7.742-17.265,17.265-17.265
			V311.747z M366.548,259.846h-46.691c-3.803,0-6.896-3.098-6.896-6.901v-93.369c0-3.797,3.094-6.899,6.896-6.899h46.691V259.846z
			 M366.548,141.569h-46.691c-9.934,0-18.001,8.077-18.001,18.007v93.369c0,9.935,8.067,18.018,18.001,18.018h46.691v12.419
			c-15.657,0-28.381,12.728-28.381,28.373H210.262v-16.322c2.633-0.053,5.378-0.16,8.384-0.396l-1.387,0.721l1.787,3.463
			l10.103-5.198c0.161-0.023,0.321-0.028,0.478-0.044c0.305-0.032,0.613-0.064,0.873-0.108c1.126-0.144,2.076-0.841,2.577-1.855
			l5.174-2.713l-6.063-1.382c-0.754-0.626-1.571-0.918-2.653-0.758c-0.132,0.023-0.24,0.032-0.368,0.04l-0.16,0.012l-11.83-2.696
			l-0.857,3.786l0.035,0.017c-2.039,0.116-4.071,0.145-6.103,0.168v-10.011c38.234-2.853,68.507-34.816,68.507-73.776
			c0-38.958-30.272-70.919-68.507-73.777v-9.397c2.677-0.213,5.397-0.369,8.183-0.369c16.467,0,31.867,4.06,45.873,12.075
			l-1.069,3.619l11.806,3.506c0.076,0.058,0.16,0.12,0.305,0.216c0.721,0.563,1.747,0.846,2.528,0.651l6.096,1.805l-3.19-4.831
			c0.116-1.152-0.373-2.292-1.294-2.99c-0.293-0.23-0.565-0.425-0.842-0.621l-0.461-0.329l-6.147-9.303l-3.238,2.142l0.954,1.453
			c-15.581-9.426-32.805-14.203-51.251-14.203c-2.813,0-5.551,0.15-8.26,0.353V97.643h127.926c0,15.647,12.724,28.375,28.381,28.375
			V141.569z M366.548,114.917c-9.522,0-17.265-7.745-17.265-17.266h17.265V114.917z"/>
		<path d="M112.667,160.684c-0.855,2.543-1.154,4.877-0.932,7.338l0.038,0.449l1.564,1.122l6.614-9.245l7.262,4.017l0.95-1.545
			l-0.092-0.395c-0.501-2.144-1.376-3.875-2.787-5.604c-0.479-0.621-1.038-1.2-1.735-1.789l4.994-7.59l-1.563-1.094l-0.457,0.128
			c-2.376,0.681-4.38,1.767-6.482,3.49c-0.739,0.583-1.42,1.22-2.096,1.939c-0.545-0.18-1.116-0.336-1.721-0.413
			c-2.22-0.395-4.152-0.298-6.28,0.311l-0.395,0.11l-0.899,1.595l5.643,3.484C113.697,158.063,113.083,159.302,112.667,160.684z"/>
		<path d="M174.097,181.07c-0.848,2.569-1.138,4.907-0.92,7.34l0.042,0.449l1.553,1.108l6.604-9.241l7.292,4.044l0.941-1.604
			l-0.096-0.382c-0.517-2.12-1.411-3.903-2.801-5.596c-0.487-0.622-1.042-1.196-1.733-1.784l4.991-7.6l-1.567-1.082l-0.449,0.13
			c-2.372,0.704-4.436,1.813-6.486,3.504c-0.697,0.549-1.388,1.185-2.09,1.932c-0.517-0.164-1.096-0.322-1.717-0.417
			c-2.246-0.398-4.162-0.3-6.29,0.321l-0.369,0.112l-0.936,1.567l5.654,3.511C175.125,178.455,174.523,179.697,174.097,181.07z"/>
		<path d="M265.873,263.432l-0.461,0.141c-2.341,0.682-4.416,1.791-6.488,3.494c-0.705,0.554-1.387,1.187-2.092,1.932
			c-0.621-0.184-1.174-0.32-1.724-0.412c-2.231-0.401-4.155-0.293-6.271,0.296l-0.385,0.116l-0.905,1.596l5.639,3.494
			c-0.621,1.122-1.223,2.332-1.636,3.711c-0.85,2.561-1.149,4.893-0.926,7.329l0.037,0.438l1.551,1.158l6.616-9.277l7.289,4.02
			l0.95-1.567l-0.101-0.396c-0.529-2.14-1.419-3.928-2.797-5.599c-0.554-0.705-1.15-1.271-1.739-1.775l5.005-7.605L265.873,263.432z
			"/>
		<path d="M316.046,172.184l-0.373,0.112l-0.93,1.583l5.65,3.503c-0.581,1.036-1.194,2.292-1.623,3.697
			c-0.861,2.607-1.142,4.875-0.938,7.347l0.048,0.457l1.563,1.106l6.608-9.241l7.273,4.021l0.962-1.565l-0.093-0.391
			c-0.517-2.12-1.41-3.909-2.81-5.596c-0.564-0.723-1.178-1.311-1.747-1.781l5.01-7.59l-1.567-1.092l-0.452,0.134
			c-2.345,0.681-4.421,1.797-6.477,3.491c-0.697,0.541-1.374,1.146-2.092,1.939c-0.569-0.179-1.13-0.329-1.728-0.409
			C320.102,171.478,318.17,171.579,316.046,172.184z"/>
		<path d="M328.368,219.391c-0.528-0.16-1.121-0.333-1.734-0.421c-2.312-0.4-4.2-0.276-6.284,0.337l-0.368,0.104l-0.93,1.567
			l5.65,3.494c-0.63,1.126-1.211,2.345-1.623,3.711c-0.854,2.528-1.15,4.861-0.938,7.33l0.039,0.473l1.588,1.074l6.576-9.214
			l7.277,4l0.957-1.503l-0.092-0.405c-0.513-2.168-1.379-3.902-2.797-5.602c-0.485-0.63-1.038-1.198-1.743-1.796l5.001-7.634
			l-1.579-1.05l-0.437,0.128c-2.373,0.674-4.38,1.747-6.504,3.482C329.639,218.092,328.95,218.778,328.368,219.391z"/>
	</g>
</g>
<g>
</g>
<g>
</g>
<g>
</g>
<g>
</g>
<g>
</g>
<g>
</g>
<g>
</g>
<g>
</g>
<g>
</g>
<g>
</g>
<g>
</g>
<g>
</g>
<g>
</g>
<g>
</g>
<g>
</g>
</svg>
