<?xml version="1.0" encoding="iso-8859-1"?>
<!-- Generator: Adobe Illustrator 16.0.0, SVG Export Plug-In . SVG Version: 6.00 Build 0)  -->
<!DOCTYPE svg PUBLIC "-//W3C//DTD SVG 1.1//EN" "http://www.w3.org/Graphics/SVG/1.1/DTD/svg11.dtd">
<svg version="1.1" id="Capa_1" xmlns="http://www.w3.org/2000/svg" xmlns:xlink="http://www.w3.org/1999/xlink" x="0px" y="0px"
	 width="482.123px" height="482.123px" viewBox="0 0 482.123 482.123" style="enable-background:new 0 0 482.123 482.123;"
	 xml:space="preserve">
<g>
	<g>
		<path d="M235.27,0c59.412,0,107.577,48.163,107.577,107.573c0,59.412-48.165,107.575-107.577,107.575
			c-59.41,0-107.571-48.163-107.571-107.575C127.698,48.163,175.859,0,235.27,0z"/>
		<path d="M473.93,257.038v-6.011v-6.004l-15.918-3.947v0.008l-36.952-9.185v0.008l-34.436-8.548
			c-6.901-1.759-14.238-2.75-22.005-3.32v-0.236l-7.434-0.361c-1.143-0.092-2.284-0.18-3.759-0.204l-25.772-0.042v-0.014h-11.653
			h-2.805l-1.074,4.462c-6.945,28.901-30.305,51.311-59.507,57.082c-12.343,2.432-21.498,2.172-34.35-1.243
			c-27.312-7.221-48.325-28.616-54.863-55.839l-1.07-4.462h-7.809h-11.661h-18.406l-1.939,0.094c-1.603,0-3.236,0.074-4.959,0.18
			v-0.044l-6.322,0.531l-5.34,0.457v0.076c-5.927,0.683-11.163,1.611-16.13,2.883l-40.307,10.008v-0.008L12.5,242.545v-0.008
			l-11.649,2.88v0.016v5.999v6.003v121.269v5.936v5.014v0.797c1.477-0.076,2.927,0,4.324,0.381l0.034,0.008
			c5.209,1.435,8.312,5.976,8.312,12.183v71.176h5.833h5.827v-71.176c0-9.782-4.853-17.925-12.674-21.816V254.537l25.297-6.279
			v225.938h5.833h5.823h56.437h5.835h5.833v-243.09c1.709-0.106,3.446-0.194,5.251-0.194c0.008,0,0.008,0,0.024,0l20.031-0.092
			v243.361h5.827h5.835h56.429h5.829h5.827V292.42c8.975,1.723,16.667,1.951,25.311,0.865v180.903h5.823h5.834h56.433h5.827h0.834
			c13.04,5.054,27.154,7.935,41.957,7.935c64.315,0,116.637-52.324,116.637-116.636c0-14.19-2.682-27.739-7.342-40.343V257.038
			L473.93,257.038z M327.663,230.826l24.897,0.024l0.409,0.024v18.575c-8.772,0.873-17.212,2.789-25.307,5.506V230.826z
			 M453.765,392.24c-0.397,1.351-0.89,2.67-1.347,3.988c-4.036,11.484-10.228,21.924-18.126,30.865
			c-12.395,13.997-28.917,24.217-47.685,28.772c-7.068,1.708-14.382,2.714-21.973,2.714c-1.968,0-3.895-0.177-5.826-0.293
			c-1.96-0.12-3.907-0.269-5.827-0.513c-8.893-1.11-17.384-3.427-25.311-6.853c-1.988-0.858-3.92-1.82-5.827-2.806
			c-1.996-1.038-3.927-2.18-5.827-3.342c-26.641-16.379-44.466-45.709-44.466-79.271c0-33.558,17.825-62.88,44.466-79.263
			c1.9-1.174,3.831-2.309,5.827-3.342c1.907-0.99,3.839-1.948,5.827-2.802c7.927-3.435,16.418-5.746,25.311-6.868
			c1.92-0.236,3.867-0.389,5.827-0.506c1.947-0.124,3.862-0.292,5.826-0.292c21.252,0,40.771,7.201,56.44,19.184
			c2.008,1.53,3.947,3.158,5.827,4.845c2.024,1.832,3.972,3.739,5.827,5.743c15.456,16.618,24.99,38.827,24.99,63.313
			C457.708,374.792,456.309,383.765,453.765,392.24z M458.028,295.922c-7.129-9.537-15.649-17.949-25.299-24.93v-24.181
			l25.299,6.279V295.922z"/>
		<path d="M426.674,321.811c-1.627-1.623-3.559-2.722-5.599-3.411c-5.029-1.703-10.808-0.597-14.811,3.411l-41.63,41.621
			l-5.826,5.826l-5.827,5.835l-9.061,9.053l-16.25-16.246l-4.665-4.652c-0.36-0.353-0.781-0.629-1.162-0.942
			c-1.763-1.418-3.743-2.4-5.843-2.881c-4.677-1.058-9.766,0.188-13.4,3.823c-5.643,5.643-5.643,14.783,0,20.418l13.4,13.408
			l5.843,5.831l5.819,5.819l5.738,5.75c0.1,0.108,0.172,0.225,0.265,0.325c2.825,2.825,6.527,4.231,10.238,4.224
			c3.223,0.008,6.412-1.122,9.065-3.267c0.381-0.316,0.801-0.593,1.162-0.957c0.108-0.101,0.168-0.217,0.26-0.325l4.4-4.392
			l5.819-5.827l56.433-56.433l5.598-5.594c0.093-0.093,0.145-0.193,0.229-0.277c5.307-5.566,5.307-14.298,0-19.864
			C426.811,322.003,426.75,321.895,426.674,321.811z"/>
	</g>
</g>
<g>
</g>
<g>
</g>
<g>
</g>
<g>
</g>
<g>
</g>
<g>
</g>
<g>
</g>
<g>
</g>
<g>
</g>
<g>
</g>
<g>
</g>
<g>
</g>
<g>
</g>
<g>
</g>
<g>
</g>
</svg>
