<?xml version="1.0" encoding="iso-8859-1"?>
<!-- Generator: Adobe Illustrator 16.0.0, SVG Export Plug-In . SVG Version: 6.00 Build 0)  -->
<!DOCTYPE svg PUBLIC "-//W3C//DTD SVG 1.1//EN" "http://www.w3.org/Graphics/SVG/1.1/DTD/svg11.dtd">
<svg version="1.1" id="Capa_1" xmlns="http://www.w3.org/2000/svg" xmlns:xlink="http://www.w3.org/1999/xlink" x="0px" y="0px"
	 width="465.529px" height="465.529px" viewBox="0 0 465.529 465.529" style="enable-background:new 0 0 465.529 465.529;"
	 xml:space="preserve">
<g>
	<g>
		<path d="M445.592,188.932c7.835,0,15.265-4.65,18.431-12.339c4.188-10.177-0.657-21.818-10.832-26.004
			c-39.346-16.192-57.743-23.59-67.902-25.92c-9.085-4.811-41.052-24.479-69.08-42.212c-1.795-1.13-3.703-1.844-5.65-2.347
			c-0.052-0.328-0.084-0.551-0.084-0.551s-19.244-2.653-48.113-4.654c-6.893,4.676-15.196,7.426-24.143,7.426
			c-10.197,0-19.561-3.581-26.944-9.522c-6.797-0.08-13.77-0.064-20.833,0.046c-1.445,0.021-2.868,0.03-4.31,0.066
			c-0.214,0.006-0.417,0-0.627,0.006c0,0,0.006,0.092,0.006,0.125c-2.298,0.362-4.577,1.076-6.71,2.284l-88.947,50.299
			l-77.019,29.343c-10.285,3.917-15.44,15.429-11.523,25.701c3.028,7.947,10.588,12.838,18.619,12.838
			c2.356,0,4.749-0.425,7.091-1.31l78.423-29.881c0.936-0.359,1.847-0.782,2.717-1.28l80.527-45.537
			c2.48,32.524,5.716,73.147,6.981,81.611l-29.535,69.593c-0.675,1.595-1.184,3.25-1.515,4.957l-31.745,162.461
			c-2.639,13.501,6.164,26.577,19.657,29.214c1.617,0.309,3.22,0.461,4.807,0.461c11.664,0,22.089-8.247,24.405-20.134
			l31.244-159.904l33.588-79.126c7.947,0.218,16.146,0.336,24.057,0.366l29.599,72.553l32.521,153.433
			c2.484,11.714,12.828,19.74,24.333,19.74c1.711,0,3.442-0.177,5.189-0.541c13.449-2.854,22.041-16.069,19.191-29.526
			l-32.989-155.612c-0.309-1.447-0.736-2.857-1.302-4.236l-25.792-63.233c1.996-12.217-0.629-41.1-3.811-67.239
			c4.508,2.801,9.325,5.793,14.182,8.79c10.844,6.681,19.58,11.966,25.992,15.699c8.011,4.689,14.427,8.442,20.599,9.211
			c8.095,2.601,36.194,13.716,59.675,23.388C440.503,188.445,443.072,188.932,445.592,188.932z"/>
		<path d="M200.653,39.281c0,14.892,8.74,27.641,21.301,33.708c4.937,2.389,10.407,3.841,16.256,3.841
			c4.771,0,9.299-0.982,13.499-2.599c14.054-5.436,24.061-18.983,24.061-34.95c0-20.743-16.815-37.558-37.56-37.558
			C217.47,1.729,200.653,18.539,200.653,39.281z"/>
		<path d="M112.904,196.541c20.741,0,37.558,16.813,37.558,37.553s-16.817,37.563-37.558,37.563
			c-20.742,0-37.558-16.823-37.558-37.563S92.162,196.541,112.904,196.541z"/>
	</g>
</g>
<g>
</g>
<g>
</g>
<g>
</g>
<g>
</g>
<g>
</g>
<g>
</g>
<g>
</g>
<g>
</g>
<g>
</g>
<g>
</g>
<g>
</g>
<g>
</g>
<g>
</g>
<g>
</g>
<g>
</g>
</svg>
