<?xml version="1.0" encoding="iso-8859-1"?>
<!-- Generator: Adobe Illustrator 16.0.0, SVG Export Plug-In . SVG Version: 6.00 Build 0)  -->
<!DOCTYPE svg PUBLIC "-//W3C//DTD SVG 1.1//EN" "http://www.w3.org/Graphics/SVG/1.1/DTD/svg11.dtd">
<svg version="1.1" id="Capa_1" xmlns="http://www.w3.org/2000/svg" xmlns:xlink="http://www.w3.org/1999/xlink" x="0px" y="0px"
	 width="323.486px" height="323.485px" viewBox="0 0 323.486 323.485" style="enable-background:new 0 0 323.486 323.485;"
	 xml:space="preserve">
<g>
	<g>
		<path d="M276.883,155.12c0.223,0.018,0.445,0.023,0.663,0.023c5.695,0,10.47-4.44,10.822-10.198
			c0.362-5.981-4.194-11.118-10.176-11.48l-88.768-5.349l-42.578-19.397c-1.409-1.119-3.063-1.898-4.857-2.211l-0.067-0.031
			l-0.005,0.01c-1.447-0.243-2.964-0.212-4.481,0.176L70.08,123.841c-1.16,0.298-2.268,0.79-3.275,1.442l-30.287,19.89
			c-5.013,3.293-6.4,10.017-3.115,15.021c2.084,3.174,5.548,4.894,9.085,4.894c2.04,0,4.109-0.575,5.942-1.781l28.772-18.89
			l49.892-12.729l-25.723,43.729l-20.94,21.645l-61.125-21.676c-7.523-2.677-15.801,1.269-18.468,8.798
			c-2.674,7.529,1.271,15.793,8.8,18.466l69.887,24.782c1.579,0.564,3.213,0.839,4.831,0.839c3.855,0,7.625-1.543,10.398-4.412
			l25.233-26.077l22.473,7.975c1.144,0.756,2.369,1.408,3.749,1.822l8.956,2.692l3.032,1.077l0.069-0.145l111.498,33.492
			c1.388,0.425,2.786,0.621,4.169,0.621c6.219,0,11.966-4.049,13.846-10.31c2.3-7.653-2.04-15.716-9.693-18.02l-107.296-32.234
			l16.596-35.03L276.883,155.12z"/>
		<circle cx="188.689" cy="98.963" r="20.795"/>
		<circle cx="302.691" cy="170.689" r="20.797"/>
	</g>
</g>
<g>
</g>
<g>
</g>
<g>
</g>
<g>
</g>
<g>
</g>
<g>
</g>
<g>
</g>
<g>
</g>
<g>
</g>
<g>
</g>
<g>
</g>
<g>
</g>
<g>
</g>
<g>
</g>
<g>
</g>
</svg>
