<?xml version="1.0" encoding="iso-8859-1"?>
<!-- Generator: Adobe Illustrator 16.0.0, SVG Export Plug-In . SVG Version: 6.00 Build 0)  -->
<!DOCTYPE svg PUBLIC "-//W3C//DTD SVG 1.1//EN" "http://www.w3.org/Graphics/SVG/1.1/DTD/svg11.dtd">
<svg version="1.1" id="Capa_1" xmlns="http://www.w3.org/2000/svg" xmlns:xlink="http://www.w3.org/1999/xlink" x="0px" y="0px"
	 width="482.115px" height="482.115px" viewBox="0 0 482.115 482.115" style="enable-background:new 0 0 482.115 482.115;"
	 xml:space="preserve">
<g>
	<g>
		<path d="M235.257,0c59.413,0,107.57,48.159,107.57,107.573c0,59.412-48.157,107.571-107.57,107.571
			c-59.41,0-107.569-48.159-107.569-107.571C127.688,48.159,175.847,0,235.257,0z"/>
		<path d="M473.926,257.038v-6.011v-6.012l-15.918-3.947v0.008l-36.952-9.185v0.008l-34.436-8.548
			c-6.901-1.759-14.238-2.749-22.005-3.322v-0.234l-7.434-0.36c-1.143-0.096-2.284-0.185-3.76-0.207l-25.771-0.04v-0.014h-11.653
			h-2.806l-1.073,4.458c-6.945,28.906-30.305,51.315-59.507,57.085c-12.343,2.433-21.498,2.172-34.35-1.234
			c-27.312-7.237-48.325-28.625-54.865-55.851l-1.068-4.458h-7.809h-11.661h-18.406l-1.939,0.092c-1.604,0-3.236,0.072-4.961,0.184
			v-0.05l-6.32,0.537l-5.34,0.451v0.082c-5.927,0.681-11.163,1.609-16.13,2.881L49.455,233.36v-0.008l-36.958,9.185v-0.024
			l-11.649,2.895v0.009v6.011v5.999v121.261v5.943v5.013v0.79c1.475-0.076,2.927,0,4.324,0.389l0.034,0.008
			c5.214,1.427,8.312,5.975,8.312,12.183v71.168h5.833h5.827v-71.168c0-9.782-4.853-17.925-12.673-21.824V254.521l25.297-6.268
			v225.927h5.833h5.823h56.437h5.835h5.833V231.106c1.709-0.11,3.447-0.194,5.252-0.194c0.008,0,0.008,0,0.024,0l20.031-0.096
			v243.365h5.827h5.835h56.428h5.829h5.827V292.412c8.975,1.723,16.667,1.955,25.307,0.857v180.911h5.827h5.834h56.433h5.827h0.834
			c13.04,5.054,27.154,7.935,41.957,7.935c64.315,0,116.637-52.325,116.637-116.636c0-14.19-2.682-27.744-7.342-40.343V257.038
			L473.926,257.038z M327.658,230.815l24.898,0.022l0.409,0.024v18.57c-8.772,0.874-17.212,2.798-25.308,5.522V230.815z
			 M453.76,392.232c-0.412,1.351-0.897,2.661-1.362,3.987c-4.027,11.493-10.219,21.929-18.117,30.857
			c-12.396,14.014-28.909,24.225-47.692,28.781c-7.053,1.707-14.383,2.713-21.965,2.713c-1.968,0-3.896-0.168-5.818-0.292
			c-1.96-0.12-3.907-0.276-5.839-0.505c-8.881-1.118-17.389-3.435-25.308-6.869c-1.987-0.85-3.919-1.812-5.818-2.797
			c-2.004-1.038-3.928-2.181-5.843-3.351c-26.634-16.378-44.45-45.7-44.45-79.255c0-33.566,17.816-62.889,44.45-79.271
			c1.915-1.183,3.839-2.309,5.843-3.343c1.899-0.989,3.831-1.947,5.818-2.805c7.919-3.438,16.427-5.751,25.308-6.865
			c1.932-0.236,3.879-0.389,5.839-0.513c1.932-0.108,3.858-0.284,5.818-0.284c21.252,0,40.771,7.201,56.433,19.175
			c2.016,1.539,3.955,3.158,5.827,4.854c2.023,1.831,3.971,3.734,5.843,5.742c15.456,16.619,24.978,38.82,24.978,63.31
			C457.703,374.776,456.305,383.757,453.76,392.232z M458.008,295.906c-7.121-9.538-15.641-17.938-25.282-24.914v-24.181
			l25.282,6.271V295.906z"/>
		<path d="M421.056,351.489c-1.351-0.409-2.753-0.693-4.231-0.693h-52.193h-5.826h-5.827h-25.319h-5.818h-5.843h-3.575
			c-8.103,0-14.671,6.58-14.671,14.684c0,8.11,6.568,14.679,14.671,14.679h3.575h5.843h5.818h25.308h5.839h5.818h52.201
			c1.479,0,2.881-0.28,4.231-0.689c2.208-0.665,4.188-1.791,5.827-3.342c2.829-2.682,4.616-6.448,4.616-10.647
			c0-4.196-1.787-7.967-4.616-10.648C425.26,353.297,423.264,352.162,421.056,351.489z"/>
	</g>
</g>
<g>
</g>
<g>
</g>
<g>
</g>
<g>
</g>
<g>
</g>
<g>
</g>
<g>
</g>
<g>
</g>
<g>
</g>
<g>
</g>
<g>
</g>
<g>
</g>
<g>
</g>
<g>
</g>
<g>
</g>
</svg>
