<?xml version="1.0" encoding="iso-8859-1"?>
<!-- Generator: Adobe Illustrator 16.0.0, SVG Export Plug-In . SVG Version: 6.00 Build 0)  -->
<!DOCTYPE svg PUBLIC "-//W3C//DTD SVG 1.1//EN" "http://www.w3.org/Graphics/SVG/1.1/DTD/svg11.dtd">
<svg version="1.1" id="Capa_1" xmlns="http://www.w3.org/2000/svg" xmlns:xlink="http://www.w3.org/1999/xlink" x="0px" y="0px"
	 width="364.184px" height="364.183px" viewBox="0 0 364.184 364.183" style="enable-background:new 0 0 364.184 364.183;"
	 xml:space="preserve">
<g>
	<g>
		<path d="M267.128,79.589c16.694,0,30.271-17.851,30.271-39.794C297.399,17.851,283.822,0,267.128,0
			c-16.699,0-30.284,17.851-30.284,39.795C236.844,61.738,250.429,79.589,267.128,79.589z"/>
		<path d="M198.275,126.535l-0.039,3.14h5.35c0.524,9.744,3.254,37.227,16.823,43.609v5.306h91.365v-5.32
			c13.541-6.432,16.254-33.859,16.791-43.595h5.39l-0.04-3.14c-0.545-48.674-40.547-55.261-40.952-55.329l-2.524-0.379l-0.865,2.402
			c-2.413,6.705-11.185,24.165-22.646,24.353c-10.595,0-21.022-17.752-24.141-24.587l-0.821-1.815l-2.729,0.034
			C238.823,71.274,198.821,77.86,198.275,126.535z M311.774,129.674h10.552c-0.63,10.103-3.322,29.22-10.552,36.173V129.674z
			 M231.617,109.575l8.292-8.796l8.396,8.664c0,0,1.435,14.627-8.396,14.627C230.066,124.078,231.617,109.575,231.617,109.575z
			 M220.409,165.905c-7.27-6.918-9.967-26.104-10.596-36.231h10.596V165.905z"/>
		<path d="M26.51,107.081l67.483-1.407L77.641,93.611c56.938-17.871,127.472-24.764,128.217-24.832l-1.486-15.631
			c-3.122,0.298-74.338,7.277-133.066,26.03l2.402-20.354L26.51,107.081z"/>
		<polygon points="221.19,188.822 134.758,273.875 129.681,254.071 103.051,316.102 165.493,290.458 145.771,285.068 
			232.199,200.015 		"/>
		<polygon points="321.881,364.183 337.674,298.561 321.74,311.376 305.166,203.044 289.649,205.413 306.216,313.753 
			287.188,306.271 		"/>
	</g>
</g>
<g>
</g>
<g>
</g>
<g>
</g>
<g>
</g>
<g>
</g>
<g>
</g>
<g>
</g>
<g>
</g>
<g>
</g>
<g>
</g>
<g>
</g>
<g>
</g>
<g>
</g>
<g>
</g>
<g>
</g>
</svg>
