<?xml version="1.0" encoding="iso-8859-1"?>
<!-- Generator: Adobe Illustrator 16.0.0, SVG Export Plug-In . SVG Version: 6.00 Build 0)  -->
<!DOCTYPE svg PUBLIC "-//W3C//DTD SVG 1.1//EN" "http://www.w3.org/Graphics/SVG/1.1/DTD/svg11.dtd">
<svg version="1.1" id="Capa_1" xmlns="http://www.w3.org/2000/svg" xmlns:xlink="http://www.w3.org/1999/xlink" x="0px" y="0px"
	 width="427.146px" height="427.146px" viewBox="0 0 427.146 427.146" style="enable-background:new 0 0 427.146 427.146;"
	 xml:space="preserve">
<g>
	<g>
		<path d="M195.515,385.62c-25.106-1.059-70.817-4.537-92.275-16.03C82.225,358.329,27.068,355.367,0,354.594
			c4.404,1.703,38.68,14.96,69.751,27.852C99.896,394.945,172.504,394.905,195.515,385.62z"/>
		<path d="M254.125,387.475c-3.037,0-5.979-0.168-8.8-0.412c15.961,5.406,41.212,10.143,75.772,5.174
			c41.553-5.995,66.623-22.967,84.155-32.805c-42.006,5.414-105.367,14.551-122.074,22.272
			C273.813,386.036,263.587,387.475,254.125,387.475z"/>
		<path d="M353.312,235.474c-5.49,0-9.309,7.009-9.309,22.225c0,14.92,3.606,22.033,9.401,22.033c5.919,0,9.121-7.405,9.121-22.226
			C362.526,243.096,359.416,235.474,353.312,235.474z"/>
		<path d="M357.152,76.252l-5.551-12.018c0,0-5.542-24.031-16.627-31.42c0,0-85.955,37.024-123.376,37.002
			C174.169,69.782,83.605,32.814,83.605,32.814s-12.01,20.328-12.01,34.191l-6.47,9.247C51.866,108.987,9.586,306.874,1.034,347.213
			c27.894,0.797,83.34,3.895,105.708,15.861c21.642,11.598,72.167,14.591,94.799,15.364l10.057-71.152l13.041,68.367
			c8.051,2.364,34.7,8.94,55.442-0.642c21.359-9.862,110.276-21.335,147.064-25.76c-4.805-14.138-23.663-72.149-34.889-142.69
			C379.333,125.225,357.152,76.252,357.152,76.252z M97.83,78.671l-9.191-2.875l8.015-25.677l9.193,2.873L97.83,78.671z
			 M298.804,62.939l6.809,21.273l-9.169,2.938l-6.824-21.275L298.804,62.939z M245.361,78.693l4.685,22.652l-9.43,1.936
			l-4.661-22.648L245.361,78.693z M126.705,89.729l-9.169-2.926l7.62-23.864l9.177,2.936L126.705,89.729z M154.803,99.527
			l-9.219-2.817l7.632-24.878l9.208,2.817L154.803,99.527z M187.898,104.932h-9.632V79.659h9.632V104.932z M254.201,200.493
			l-8.504-4.522c0.529-1.004,12.744-24.808-5.542-42.322c-1.607-1.537-3.082-3.2-4.477-4.921c6.885,21.769,5.306,48.39,5.214,49.812
			l-9.613-0.621c0.031-0.415,2.484-41.026-11.093-59.695c-11.898-16.36-16.863-34.069-18.564-41.663
			c-1.305-1.122-2.174-2.745-2.174-4.606c0-3.409,2.753-6.158,6.153-6.158c3.398,0,6.156,2.749,6.156,6.158
			c0,0.98-0.285,1.87-0.684,2.691c1.334,5.741,4.751,17.939,11.986,30.342c-4.637-13.431-6.186-26.425-6.681-32.697
			c-0.966-1.088-1.595-2.473-1.595-4.033c0-3.406,2.765-6.156,6.159-6.156c3.398,0,6.164,2.757,6.164,6.156
			c0,1.246-0.474,2.354-1.118,3.32c0.841,10.039,4.645,39.644,20.807,55.118C265.702,164.772,259.904,189.791,254.201,200.493z
			 M262.881,75.09l8.901-3.707l8.828,21.183l-8.9,3.703L262.881,75.09z M308.249,290.135H293.53v-51.539h-0.2l-12.411,5.902
			l-2.501-11.409l17.32-8.019h12.511V290.135L308.249,290.135z M316.292,57.143l8.801-3.909l8.816,19.854L325.108,77L316.292,57.143
			z M353.112,291.249c-16.819,0-24.225-15.12-24.333-33.551c0-18.911,7.911-33.73,24.734-33.73
			c17.308,0,24.217,15.525,24.217,33.334C377.738,277.327,369.635,291.249,353.112,291.249z"/>
	</g>
</g>
<g>
</g>
<g>
</g>
<g>
</g>
<g>
</g>
<g>
</g>
<g>
</g>
<g>
</g>
<g>
</g>
<g>
</g>
<g>
</g>
<g>
</g>
<g>
</g>
<g>
</g>
<g>
</g>
<g>
</g>
</svg>
