<?xml version="1.0" encoding="iso-8859-1"?>
<!-- Generator: Adobe Illustrator 16.0.0, SVG Export Plug-In . SVG Version: 6.00 Build 0)  -->
<!DOCTYPE svg PUBLIC "-//W3C//DTD SVG 1.1//EN" "http://www.w3.org/Graphics/SVG/1.1/DTD/svg11.dtd">
<svg version="1.1" id="Capa_1" xmlns="http://www.w3.org/2000/svg" xmlns:xlink="http://www.w3.org/1999/xlink" x="0px" y="0px"
	 width="392.695px" height="392.695px" viewBox="0 0 392.695 392.695" style="enable-background:new 0 0 392.695 392.695;"
	 xml:space="preserve">
<g>
	<path d="M385.787,149.601l-74.622-74.625c-4.448-4.462-10.46-6.903-16.651-6.903c-1.486,0-2.989,0.141-4.492,0.433l-56.256,10.942
		c-8.893,1.729-15.994,8.408-18.294,17.17c-2.284,8.786-10.151,14.922-19.124,14.922c-8.964,0-16.831-6.136-19.123-14.922
		c-2.284-8.762-9.396-15.44-18.292-17.17l-56.256-10.942c-1.499-0.292-3.005-0.433-4.496-0.433c-6.186,0-12.193,2.44-16.651,6.903
		L6.905,149.601C2.484,154.021,0,160.012,0,166.252c0,6.25,2.484,12.237,6.905,16.653l40.704,40.705
		c4.601,4.597,10.63,6.897,16.648,6.897c6.029,0,12.051-2.301,16.651-6.897l3.626-3.635l-7.568,75.681
		c-0.659,6.608,1.507,14.751,5.977,19.672c4.466,4.93,10.81,9.294,17.464,9.294H292.29c6.652,0,13-4.364,17.464-9.302
		c4.461-4.921,6.641-12.286,5.979-18.895l-7.574-76.069l3.635,3.45c4.601,4.601,10.624,6.785,16.65,6.785
		c6.012,0,12.051-2.345,16.636-6.945l40.707-40.728c4.416-4.42,6.908-10.417,6.908-16.667
		C392.695,160.004,390.195,154.021,385.787,149.601z M31.43,174.582l-7.878-7.945L98.18,91.824l13.417,2.587L31.43,174.582z
		 M137.471,301.07h-37.062l14.132-142.859l-50.283,49.514l-16.256-16.407l89.47-89.478V301.07z M184.572,301.07h-23.55V116.678
		c5.634,8.015,13.888,13.964,23.55,16.705V301.07z M231.678,301.07H208.13V133.375c9.657-2.755,17.905-8.724,23.548-16.755V301.07z
		 M328.444,206.956l-50.293-48.745L292.29,301.07h-37.062V105.758l87.198,87.2L328.444,206.956z M359.077,176.314L277.679,94.91
		l16.835-3.286l74.639,74.628L359.077,176.314z"/>
</g>
<g>
</g>
<g>
</g>
<g>
</g>
<g>
</g>
<g>
</g>
<g>
</g>
<g>
</g>
<g>
</g>
<g>
</g>
<g>
</g>
<g>
</g>
<g>
</g>
<g>
</g>
<g>
</g>
<g>
</g>
</svg>
