<?xml version="1.0" encoding="iso-8859-1"?>
<!-- Generator: Adobe Illustrator 16.0.0, SVG Export Plug-In . SVG Version: 6.00 Build 0)  -->
<!DOCTYPE svg PUBLIC "-//W3C//DTD SVG 1.1//EN" "http://www.w3.org/Graphics/SVG/1.1/DTD/svg11.dtd">
<svg version="1.1" id="Capa_1" xmlns="http://www.w3.org/2000/svg" xmlns:xlink="http://www.w3.org/1999/xlink" x="0px" y="0px"
	 width="456.985px" height="456.985px" viewBox="0 0 456.985 456.985" style="enable-background:new 0 0 456.985 456.985;"
	 xml:space="preserve">
<g>
	<g>
		<path d="M449.135,386.39c4.332,0,7.851-3.527,7.851-7.851V78.446c0-4.336-3.519-7.851-7.851-7.851H7.851
			C3.519,70.596,0,74.11,0,78.446v300.093c0,4.323,3.519,7.851,7.851,7.851H449.135z M15.701,86.297h425.583v284.392H15.701V86.297z
			"/>
		<rect x="26.203" y="194.6" width="35.424" height="67.792"/>
		<rect x="398.116" y="194.6" width="35.417" height="67.792"/>
		<path d="M26.203,131.114v42.457h56.681v23.141h2.371v0.238c16.417,1.23,29.4,14.803,29.4,31.542
			c0,16.735-12.984,30.297-29.4,31.531v0.132H84.03c-0.383,0.016-0.754,0.116-1.146,0.116v-0.116l0,0v23.259H26.203v42.455
			c18.593,0,33.665,15.072,33.665,33.674h163.98V259.174c-13.731-3.511-23.93-15.854-23.93-30.682
			c0-14.815,10.199-27.166,23.93-30.672V97.444H59.867C59.867,116.042,44.795,131.114,26.203,131.114z"/>
		<path d="M376.856,260.216L376.856,260.216l-0.008,0.056c-0.185,0-0.345-0.056-0.537-0.056h-0.396v-0.045
			c-17.104-0.501-30.837-14.446-30.837-31.679c0-17.218,13.733-31.167,30.837-31.676v-0.032h0.32c0.208,0,0.396-0.064,0.613-0.064
			v0.064h0.008v-23.205h55.619v-42.457c-18.599,0-33.67-15.072-33.67-33.67H239.542V197.82
			c13.726,3.506,23.921,15.857,23.921,30.672c0,14.828-10.195,27.171-23.921,30.682v100.369h159.279
			c0-18.586,15.072-33.658,33.662-33.658v-42.471h-55.619v-23.198H376.856z"/>
	</g>
</g>
<g>
</g>
<g>
</g>
<g>
</g>
<g>
</g>
<g>
</g>
<g>
</g>
<g>
</g>
<g>
</g>
<g>
</g>
<g>
</g>
<g>
</g>
<g>
</g>
<g>
</g>
<g>
</g>
<g>
</g>
</svg>
