<?xml version="1.0" encoding="iso-8859-1"?>
<!-- Generator: Adobe Illustrator 16.0.0, SVG Export Plug-In . SVG Version: 6.00 Build 0)  -->
<!DOCTYPE svg PUBLIC "-//W3C//DTD SVG 1.1//EN" "http://www.w3.org/Graphics/SVG/1.1/DTD/svg11.dtd">
<svg version="1.1" id="Capa_1" xmlns="http://www.w3.org/2000/svg" xmlns:xlink="http://www.w3.org/1999/xlink" x="0px" y="0px"
	 width="320.573px" height="320.572px" viewBox="0 0 320.573 320.572" style="enable-background:new 0 0 320.573 320.572;"
	 xml:space="preserve">
<g>
	<g>
		<circle cx="120.98" cy="130.773" r="15.351"/>
		<path d="M304.324,112.05l-117.947,53.257c-0.052,0.011-0.093,0-0.14,0.011c-3.07,0.725-7.829-0.705-13.069-3.076l-14.991-16.244
			c-3.819-4.142-9.962-4.831-14.571-1.937c-0.101-0.072-0.233-0.168-0.233-0.168l-33.857,13.748L8.881,181.297
			c-6.188,1.455-10.03,7.653-8.572,13.846c1.245,5.303,5.975,8.886,11.197,8.886c0.87,0,1.755-0.104,2.646-0.315l102.602-24.12
			l53.487,36.263c0,0,0.078-0.155,0.202-0.398l52.387,33.9c1.869,1.212,4.044,1.849,6.255,1.849c0.627,0,1.254-0.052,1.88-0.149
			l36.78-6.079c6.276-1.041,10.522-6.96,9.481-13.241c-1.041-6.271-6.965-10.532-13.24-9.486l-32.384,5.35l-51.315-33.197
			c0.191-0.445,0.383-0.891,0.574-1.336l132.933-60.024c5.8-2.612,8.368-9.438,5.759-15.234
			C316.938,112.008,310.124,109.438,304.324,112.05z"/>
		<path d="M284.746,69.366c8.477,0,15.354,6.872,15.354,15.351c0,8.477-6.877,15.351-15.354,15.351s-15.348-6.874-15.348-15.351
			C269.398,76.238,276.269,69.366,284.746,69.366z"/>
	</g>
</g>
<g>
</g>
<g>
</g>
<g>
</g>
<g>
</g>
<g>
</g>
<g>
</g>
<g>
</g>
<g>
</g>
<g>
</g>
<g>
</g>
<g>
</g>
<g>
</g>
<g>
</g>
<g>
</g>
<g>
</g>
</svg>
