<?xml version="1.0" encoding="iso-8859-1"?>
<!-- Generator: Adobe Illustrator 16.0.0, SVG Export Plug-In . SVG Version: 6.00 Build 0)  -->
<!DOCTYPE svg PUBLIC "-//W3C//DTD SVG 1.1//EN" "http://www.w3.org/Graphics/SVG/1.1/DTD/svg11.dtd">
<svg version="1.1" id="Capa_1" xmlns="http://www.w3.org/2000/svg" xmlns:xlink="http://www.w3.org/1999/xlink" x="0px" y="0px"
	 width="472.116px" height="472.116px" viewBox="0 0 472.116 472.116" style="enable-background:new 0 0 472.116 472.116;"
	 xml:space="preserve">
<g>
	<g>
		<path d="M93.132,277.12L55.793,380.283c-3.875,10.728,1.667,22.558,12.381,26.429c2.324,0.842,4.696,1.242,7.027,1.242
			c8.44,0,16.36-5.221,19.408-13.625l35.993-99.448l73.464-82.647c1.701-0.441,3.398-0.897,5.085-1.356l108.405,83.238
			c2.713,2.076,5.896,3.459,9.273,4l121.353,19.648c1.11,0.185,2.225,0.269,3.318,0.269c9.942,0,18.707-7.205,20.346-17.34
			c1.827-11.245-5.818-21.849-17.071-23.664l-116.216-18.823l-84.496-64.892c-0.156-6.404-9.169-27.822-18.681-48.743l13.259,5.857
			c21.98,22.322,42.519,47.462,44.574,54.704c1.968,8.085,9.197,13.509,17.172,13.509c1.387,0,2.789-0.164,4.191-0.511
			c9.494-2.307,15.32-11.87,13.013-21.37c-5.054-20.756-41.009-58.428-56.232-73.674c-1.551-1.549-3.358-2.793-5.37-3.675
			l-46.703-20.639c-4.051-1.789-8.389-1.859-12.323-0.651c-3.635,0.11-8.716,0.32-14.643,0.667
			c-1.427,20.648-18.502,37.063-39.509,37.063c-16.36,0-30.428-9.94-36.538-24.097c-0.076,0.036-0.165,0.058-0.241,0.088
			c-0.204,0.054-0.395,0.167-0.591,0.227c-0.084,0.034-0.165,0.074-0.249,0.104c-0.86,0.291-1.707,0.591-2.531,1.02l-2.457,1.288
			c-0.629,0.321-1.264,0.644-1.859,0.972l-64.955,34.089c-2.537,1.326-4.717,3.258-6.344,5.612L3.125,204.325
			c-5.538,8.051-3.522,19.063,4.517,24.614c3.069,2.112,6.568,3.124,10.03,3.124c5.623,0,11.151-2.667,14.581-7.64l31.417-45.544
			l52.447-27.523c9.263,21.546,22.125,47.897,33.851,59.606l-52.864,59.47C95.367,272.396,94.018,274.663,93.132,277.12z"/>
		<path d="M152.803,128.03c16.526,0,29.957-12.599,31.606-28.683c0.11-1.086,0.329-2.136,0.329-3.25
			c0-17.641-14.298-31.935-31.935-31.935c-17.639,0-31.938,14.294-31.938,31.935c0,4.683,1.07,9.095,2.883,13.108
			C128.758,120.292,139.847,128.03,152.803,128.03z"/>
		<path d="M440.164,344.076c17.641,0,31.939,14.307,31.939,31.939c0,17.641-14.299,31.938-31.939,31.938
			s-31.939-14.298-31.939-31.938C408.224,358.383,422.523,344.076,440.164,344.076z"/>
	</g>
</g>
<g>
</g>
<g>
</g>
<g>
</g>
<g>
</g>
<g>
</g>
<g>
</g>
<g>
</g>
<g>
</g>
<g>
</g>
<g>
</g>
<g>
</g>
<g>
</g>
<g>
</g>
<g>
</g>
<g>
</g>
</svg>
