<?xml version="1.0" encoding="iso-8859-1"?>
<!-- Generator: Adobe Illustrator 16.0.0, SVG Export Plug-In . SVG Version: 6.00 Build 0)  -->
<!DOCTYPE svg PUBLIC "-//W3C//DTD SVG 1.1//EN" "http://www.w3.org/Graphics/SVG/1.1/DTD/svg11.dtd">
<svg version="1.1" id="Capa_1" xmlns="http://www.w3.org/2000/svg" xmlns:xlink="http://www.w3.org/1999/xlink" x="0px" y="0px"
	 width="398.284px" height="398.284px" viewBox="0 0 398.284 398.284" style="enable-background:new 0 0 398.284 398.284;"
	 xml:space="preserve">
<g>
	<g>
		<path d="M96.957,379.293c30.033-17.572,29.627-56.753,52.407-59.146c22.78-2.393-3.594-46.759,0-75.536
			c2.254-18.001,13.371-88.694,12.892-150.681c0.757-8.524,1.537-28.615-4.396-53.297h0.006c-1.513-7.96-3.444-15.266-5.933-21.618
			c-3.166-8.073-14.398-13.82-23.064-13.82H81.939c-8.676,0-15.932,7.027-15.932,15.693c0,4.601,0.058,10.151,0.207,16.338H66.12
			c0,32.562,2.637,51.656,4.098,59.717c2.188,19.556,5.454,40.265,10.417,60.135c17.583,70.349,25.583,91.104,0,135.882
			C55.049,337.74-7.291,360.109,0.702,379.293C8.688,398.48,66.919,396.874,96.957,379.293z M150.242,42.531
			c4.907,20.546,4.949,37.984,4.412,47.31c-2.525,0.557-4.998,1.074-7.44,1.561l-2.851-47.502
			C146.286,43.475,148.25,43.01,150.242,42.531z M128.952,46.921c2.48-0.415,5.011-0.847,7.662-1.372l2.833,47.306
			c-3.61,0.635-7.103,1.184-10.495,1.655V46.921z M109.64,49.332c3.573-0.283,7.402-0.697,11.461-1.242v47.418
			c-3.963,0.441-7.827,0.807-11.461,1.038V49.332z M78.036,96.074c-1.176-6.398-3.438-21.927-3.955-48.023
			c2.426,0.479,5.47,0.936,9.057,1.28l2.593,47.356C83.019,96.537,80.462,96.323,78.036,96.074z M95.841,97.002
			c-0.786,0-1.475-0.042-2.246-0.05L91.02,49.849c3.234,0.112,6.853,0.082,10.764-0.06v47.109
			C99.76,96.96,97.754,97.002,95.841,97.002z"/>
		<path d="M317.656,292.961c-25.584-44.771-17.585-65.533,0-135.882c4.961-19.871,8.227-40.579,10.419-60.135
			c1.459-8.061,4.096-27.154,4.096-59.717h-0.108c0.145-6.188,0.2-11.738,0.2-16.338c0-8.666-7.253-15.693-15.925-15.693h-46.932
			c-8.664,0-19.913,5.747-23.062,13.82c-2.492,6.352-4.433,13.657-5.943,21.618c0,0,0.008,0,0.017,0
			c-5.932,24.682-5.158,44.773-4.4,53.297c-0.473,61.987,10.644,132.68,12.896,150.681c3.595,28.777-22.786,73.144,0,75.536
			c22.778,2.4,22.37,41.573,52.409,59.146c30.036,17.581,88.268,19.188,96.259,0C405.583,360.109,343.239,337.74,317.656,292.961z
			 M251.068,91.401c-2.44-0.487-4.909-1.004-7.445-1.561c-0.521-9.325-0.485-26.764,4.416-47.31
			c1.991,0.487,3.955,0.943,5.871,1.376L251.068,91.401z M269.334,94.518c-3.386-0.471-6.885-1.02-10.495-1.655l2.837-47.306
			c2.646,0.525,5.17,0.958,7.65,1.373v47.588H269.334z M288.646,96.545c-3.635-0.23-7.498-0.597-11.462-1.038V48.089
			c4.056,0.545,7.891,0.959,11.462,1.242V96.545z M315.151,49.332c3.587-0.345,6.628-0.801,9.061-1.28
			c-0.521,26.096-2.785,41.625-3.955,48.023c-2.433,0.249-4.993,0.463-7.69,0.613L315.151,49.332z M296.496,96.906V49.796
			c3.912,0.14,7.538,0.165,10.772,0.06l-2.577,47.104c-0.757,0.006-1.454,0.05-2.244,0.05
			C300.524,97.002,298.521,96.96,296.496,96.906z"/>
	</g>
</g>
<g>
</g>
<g>
</g>
<g>
</g>
<g>
</g>
<g>
</g>
<g>
</g>
<g>
</g>
<g>
</g>
<g>
</g>
<g>
</g>
<g>
</g>
<g>
</g>
<g>
</g>
<g>
</g>
<g>
</g>
</svg>
