<?xml version="1.0" encoding="iso-8859-1"?>
<!-- Generator: Adobe Illustrator 16.0.0, SVG Export Plug-In . SVG Version: 6.00 Build 0)  -->
<!DOCTYPE svg PUBLIC "-//W3C//DTD SVG 1.1//EN" "http://www.w3.org/Graphics/SVG/1.1/DTD/svg11.dtd">
<svg version="1.1" id="Capa_1" xmlns="http://www.w3.org/2000/svg" xmlns:xlink="http://www.w3.org/1999/xlink" x="0px" y="0px"
	 width="477.365px" height="477.365px" viewBox="0 0 477.365 477.365" style="enable-background:new 0 0 477.365 477.365;"
	 xml:space="preserve">
<g>
	<g>
		<path d="M235.02,34.518c29.4,0,53.245,30.583,53.245,68.309c0,37.722-23.845,68.307-53.245,68.307
			c-29.404,0-53.238-30.584-53.238-68.307C181.781,65.101,205.615,34.518,235.02,34.518z"/>
		<path d="M67.996,369.691c71.659,0,61.618-25.443,99.787-22.102c8.195,0.729,14.593,0.922,19.603,0.773
			c10.832-0.288,22.145-8.415,28.136-10.331c3.234-1.029,7.049-1.827,11.185-1.827c12.052,0,27.451,6.035,35.49,6.035
			c2.34,0,4.003-0.453,5.186-1.114c2.589-1.414-1.495-6.348-6.865-8.929c-5.365-2.592-16.45-6.64-24.771-9.04
			c-8.321-2.404-21.961-4.509-30.471-4.697c-8.501-0.176-17.191,0.71-19.418,2.017c-2.224,1.286-8.975,1.595-15.065,0.673
			l-11.047-1.679l-36.159-4.686l-21.43-7.373c0,0-34.22-14.443-68.998-9.093c-23.875,7.009-30.713,17.564-32.376,27.943
			C-1.473,340.293-3.652,369.691,67.996,369.691z"/>
		<path d="M109.465,300.311l22.228-18.69v27.884l32.015,4.315V183.392c-18.745,9.123-42.839,22.053-56.916,34.277
			c-15.677,13.619-52.219,46.819-78.415,73.588C28.369,291.258,66.269,289.379,109.465,300.311z"/>
		<path d="M131.692,369.179v73.668h32.015v-85.65c-9.543,0.152-14.854,2.881-22.285,6.969
			C138.455,365.784,135.315,367.499,131.692,369.179z"/>
		<path d="M185.917,181.486v132.409c5.298-1.354,13.354-1.562,17.138-1.562l2.4,0.016c2.695,0.061,5.843,0.305,9.139,0.674V197.767
			l-14.727-16.28H185.917z"/>
		<path d="M430.452,346.02c8.984,0,17.088,0.89,24.072,2.637l1.379,0.489c1.903,0.877,3.582,1.694,5.27,2.517l-28.781-39.405
			l-59.286,42.486C381.188,352.443,405.986,346.02,430.452,346.02z"/>
		<path d="M327.938,365.476v-40.663l36.154,29.41l65.798-50.001c0,0-72.386-88.39-86.42-101.444
			c-6.917-6.436-22.502-13.966-37.137-20.554v186.233l7.826-1.187L327.938,365.476z"/>
		<path d="M327.938,413.224c-5.246-2.088-10.873-3.054-19.949-2.256c-0.569,0.048-1.099,0.076-1.655,0.124v31.755h21.596v-29.623
			H327.938z"/>
		<path d="M271.169,348.78c-4.909,2.705-11.786,2.128-20.418,0.305v19.043c6.664-1.118,13.602-1.915,18.891-2.031l2.429-0.024
			c2.669,0,7.486,0.108,12.055,0.693V173.181h-13.954l-19.42,26.062v121.325c5.189,1.867,10.043,3.803,13.196,5.326
			c5.458,2.629,11.918,7.998,12.087,14.414C276.134,343.888,274.311,347.045,271.169,348.78z"/>
		<path d="M284.125,411.26c-7.915-1.058-15.381-4.66-20.999-7.497c-2.4-1.211-4.645-2.353-5.951-2.777
			c-2.184-0.689-4.324-1.058-6.424-1.238v43.1h19.42h13.954V411.26z"/>
		<path d="M450.084,355.156c-32.135-8.039-79.675,6.692-79.675,6.692l-21.437,7.37l-36.154,4.692l-11.045,1.671
			c-6.104,0.918-12.852,0.613-15.067-0.677c-2.221-1.295-10.908-2.192-19.416-2.008c-8.521,0.192-22.149,2.284-30.471,4.692
			c-8.324,2.4-19.412,6.456-24.774,9.045c-5.364,2.593-9.454,7.514-6.863,8.94c1.178,0.649,2.841,1.103,5.18,1.103
			c8.041,0,23.443-6.023,35.491-6.023c4.14,0,7.951,0.781,11.185,1.823c5.996,1.907,17.305,10.034,28.137,10.327
			c5.014,0.145,11.413-0.057,19.601-0.773c38.179-3.342,28.128,22.101,99.788,22.101c71.657,0,74.579-30.168,72.322-44.197
			C475.207,369.555,471.536,365.03,450.084,355.156z"/>
		<path d="M211.236,381.024c0.966-0.461,2.128-0.966,3.358-1.495v-30.812c-0.839,0.408-1.695,0.829-2.623,1.306
			c-6.412,3.234-15.198,7.679-24.359,7.935c-0.525,0.013-1.132,0.005-1.687,0.013v84.861h13.95h14.728v-37.097
			c-4.176,0.236-7.703-0.241-10.596-1.836c-3.136-1.723-4.957-4.889-4.861-8.464C199.312,389.027,205.762,383.661,211.236,381.024z"
			/>
	</g>
</g>
<g>
</g>
<g>
</g>
<g>
</g>
<g>
</g>
<g>
</g>
<g>
</g>
<g>
</g>
<g>
</g>
<g>
</g>
<g>
</g>
<g>
</g>
<g>
</g>
<g>
</g>
<g>
</g>
<g>
</g>
</svg>
