<?xml version="1.0" encoding="iso-8859-1"?>
<!-- Generator: Adobe Illustrator 16.0.0, SVG Export Plug-In . SVG Version: 6.00 Build 0)  -->
<!DOCTYPE svg PUBLIC "-//W3C//DTD SVG 1.1//EN" "http://www.w3.org/Graphics/SVG/1.1/DTD/svg11.dtd">
<svg version="1.1" id="Capa_1" xmlns="http://www.w3.org/2000/svg" xmlns:xlink="http://www.w3.org/1999/xlink" x="0px" y="0px"
	 width="318.993px" height="318.993px" viewBox="0 0 318.993 318.993" style="enable-background:new 0 0 318.993 318.993;"
	 xml:space="preserve">
<g>
	<g>
		<path d="M159.5,0C71.554,0,0.005,71.551,0.005,159.496S71.554,318.993,159.5,318.993c87.942,0,159.488-71.552,159.488-159.497
			S247.448,0,159.5,0z M159.5,308.383c-64.804,0-120.044-41.638-140.449-99.56c1.274,0.952,2.594,1.517,3.961,1.517
			c9.072,0,18.224-22.308,18.224-49.829c0-27.516-9.152-49.829-18.224-49.829c-1.709,0-3.355,0.798-4.904,2.266
			C37.695,53.588,93.66,10.604,159.5,10.604c73.107,0,134.033,52.982,146.507,122.561c-3.826-3.795-8.041-9.364-10.325-12.521
			c-0.533-0.841-1.103-1.642-1.703-2.41l-0.011-0.013l0,0c-4.795-6.022-12.019-9.58-22.877-9.58
			c-27.506,0-49.793,22.769-49.793,50.85c0,28.086,22.297,50.854,49.793,50.854c4.806,0,8.896-0.71,12.387-2.01
			c4.044-1.501,7.28-3.811,9.849-6.783c3.987-2.584,7.757-4.867,10.765-6.638C288.158,259.962,229.391,308.383,159.5,308.383z
			 M295.272,199.585c0,0-0.326,0.238-0.869,0.643c0.3-0.394,0.585-0.809,0.859-1.223L295.272,199.585z"/>
		<path d="M146.303,31.703c-27.17,0-67.197,24.174-67.197,54c0,9.02,1.199,17.515,3.614,24.99l0,0l0.005,0.016
			c0.782,2.413,1.688,4.72,2.721,6.899c5.696,15.843,16.984,56.087,0.191,90.563c-0.016,0.041-0.031,0.077-0.054,0.113
			c-0.101,0.213-0.189,0.425-0.295,0.637h0.005c-4.143,8.881-6.188,19.786-6.188,31.576c0,29.821,40.027,53.998,67.197,53.998
			s31.198-24.172,31.198-53.998c0-11.164-4.35-21.535-11.216-30.146l0,0c0,0-24.182-60.123,1.201-96.083
			c0.44-0.59,0.859-1.188,1.273-1.794c0.011-0.021,0.031-0.047,0.047-0.067l0,0c5.38-7.878,8.689-16.989,8.689-26.704
			C177.501,55.877,173.473,31.703,146.303,31.703z"/>
		<path d="M282.41,209.139c-0.767,0.564-1.3,0.963-1.657,1.237C281.136,210.081,281.711,209.656,282.41,209.139z"/>
	</g>
</g>
<g>
</g>
<g>
</g>
<g>
</g>
<g>
</g>
<g>
</g>
<g>
</g>
<g>
</g>
<g>
</g>
<g>
</g>
<g>
</g>
<g>
</g>
<g>
</g>
<g>
</g>
<g>
</g>
<g>
</g>
</svg>
