<?xml version="1.0" encoding="iso-8859-1"?>
<!-- Generator: Adobe Illustrator 16.0.0, SVG Export Plug-In . SVG Version: 6.00 Build 0)  -->
<!DOCTYPE svg PUBLIC "-//W3C//DTD SVG 1.1//EN" "http://www.w3.org/Graphics/SVG/1.1/DTD/svg11.dtd">
<svg version="1.1" id="Capa_1" xmlns="http://www.w3.org/2000/svg" xmlns:xlink="http://www.w3.org/1999/xlink" x="0px" y="0px"
	 width="478.448px" height="478.448px" viewBox="0 0 478.448 478.448" style="enable-background:new 0 0 478.448 478.448;"
	 xml:space="preserve">
<g>
	<g>
		<path d="M201.533,326.688l8.66-3.435c1.08-0.429,1.79-1.804,1.499-2.945l-3.987-15.785c-0.172-0.706-0.701-1.15-1.353-1.15
			c-0.196,0-0.415,0.04-0.629,0.141l-8.656,3.426c-1.092,0.429-1.797,1.808-1.509,2.941l3.989,15.781
			C199.782,326.596,200.644,327.041,201.533,326.688z"/>
		<path d="M190.299,458.28l4.404,10.779c3.148,7.715,11.957,11.418,19.672,8.264l144.961-59.178
			c7.718-3.142,11.413-11.95,8.264-19.668l-4.4-10.78c-1.604-3.928-4.669-6.793-8.319-8.264
			c-5.671-10.495-19.448-38.631-20.639-66.379c-1.486-34.988-30.521-62.531-30.521-62.531S241.694,59.188,207.444,17.503
			c-34.25-41.687-73.951-1.49-46.159,43.176c27.791,44.668,42.188,106.706,42.188,106.706s-38.075-16.38-51.545,28.289
			c0,0-39.285,4.963-29.848,51.62c0,0-25.311,16.379-3.479,47.151c21.839,30.773,22.333,30.773,24.319,38.215
			c1.99,7.446,24.321,42.19,32.26,54.593c6.789,10.604,11.034,48.33,15.387,59.078C188.91,449.977,188.666,454.272,190.299,458.28z
			 M243.611,251.633l12.097-14.307c1.603-1.887,4.66-4.087,6.961-4.997l4.199-1.667c2.945-1.168,6.473,0.356,7.654,3.308
			l36.628,92.397c0.577,1.463,0.545,3.058-0.067,4.497c-0.622,1.45-1.779,2.561-3.234,3.138l-5.743,2.276
			c-0.688,0.276-1.427,0.412-2.163,0.412c-2.429,0-4.569-1.454-5.467-3.715l-31.646-79.823c-0.145-0.361-0.297-0.506-0.345-0.529
			c0.032,0.016-0.145,0.1-0.377,0.368c-2.521,2.941-6.315,7.442-8.8,10.396c-2.132,2.529-5.983,2.377-7.915-0.293l-2.088-2.889
			C241.492,257.752,241.64,253.974,243.611,251.633z M188.674,346.469l-5.282,2.092c-2.937,1.179-6.464-0.345-7.64-3.306
			l-0.697-1.747c-0.583-1.471-0.549-3.059,0.068-4.509c0.629-1.438,1.783-2.561,3.244-3.126l6.664-2.637
			c1.108-0.445,1.799-1.795,1.499-2.945l-3.985-15.793c-0.23-0.926-1.092-1.351-1.986-1.011l-5.889,2.337
			c-2.97,1.189-6.479-0.361-7.646-3.303l-0.689-1.751c-0.583-1.454-0.561-3.042,0.061-4.492c0.621-1.446,1.775-2.568,3.236-3.142
			l7.284-2.882c1.092-0.437,1.797-1.827,1.524-2.961l-5.756-23.251c-0.759-3.074,0.95-6.389,3.893-7.559l1.603-0.637
			c3.078-1.194,6.436,0.545,7.237,3.703l5.849,23.215c0.238,0.934,1.1,1.362,1.985,1.01l8.666-3.442
			c1.094-0.429,1.8-1.815,1.527-2.958l-5.75-23.251c-0.759-3.069,0.952-6.388,3.895-7.554l1.751-0.697
			c3.086-1.219,6.444,0.553,7.237,3.703l5.857,23.207c0.243,0.917,1.092,1.354,1.994,1.01l5.274-2.092
			c2.971-1.187,6.478,0.36,7.648,3.306l0.689,1.747c1.196,3.025-0.281,6.448-3.304,7.643l-6.667,2.645
			c-1.088,0.429-1.777,1.796-1.482,2.93l4.089,15.737c0.239,0.938,1.116,1.398,2.012,1.021l5.897-2.332
			c2.952-1.179,6.466,0.353,7.642,3.306l0.695,1.748c0.577,1.454,0.555,3.058-0.066,4.5c-0.621,1.446-1.775,2.568-3.232,3.149
			l-7.285,2.882c-1.108,0.44-1.799,1.795-1.507,2.953l6.021,24.024c0.776,3.07-0.928,6.396-3.871,7.555l-1.91,0.757
			c-3.02,1.219-6.428-0.545-7.221-3.711l-6.013-24.024c-0.227-0.922-1.058-1.395-1.978-1.014l-8.668,3.435
			c-1.088,0.429-1.797,1.811-1.507,2.945l6.031,24.032c0.777,3.069-0.93,6.388-3.879,7.554l-1.892,0.758
			c-0.685,0.269-1.382,0.4-2.088,0.4c-2.457,0-4.532-1.65-5.151-4.104l-6.031-24.032
			C190.425,346.553,189.569,346.116,188.674,346.469z"/>
	</g>
</g>
<g>
</g>
<g>
</g>
<g>
</g>
<g>
</g>
<g>
</g>
<g>
</g>
<g>
</g>
<g>
</g>
<g>
</g>
<g>
</g>
<g>
</g>
<g>
</g>
<g>
</g>
<g>
</g>
<g>
</g>
</svg>
