<?xml version="1.0" encoding="iso-8859-1"?>
<!-- Generator: Adobe Illustrator 16.0.0, SVG Export Plug-In . SVG Version: 6.00 Build 0)  -->
<!DOCTYPE svg PUBLIC "-//W3C//DTD SVG 1.1//EN" "http://www.w3.org/Graphics/SVG/1.1/DTD/svg11.dtd">
<svg version="1.1" id="Capa_1" xmlns="http://www.w3.org/2000/svg" xmlns:xlink="http://www.w3.org/1999/xlink" x="0px" y="0px"
	 width="482.115px" height="482.115px" viewBox="0 0 482.115 482.115" style="enable-background:new 0 0 482.115 482.115;"
	 xml:space="preserve">
<g>
	<g>
		<path d="M235.27,0c59.416,0,107.573,48.159,107.573,107.573c0,59.412-48.157,107.571-107.573,107.571
			c-59.41,0-107.575-48.159-107.575-107.571C127.694,48.159,175.859,0,235.27,0z"/>
		<path d="M473.926,257.038v-6.011v-6.012l-15.909-3.947v0.008l-36.961-9.185v0.008l-34.436-8.548
			c-6.901-1.759-14.238-2.749-22.005-3.322v-0.234l-7.434-0.36c-1.143-0.096-2.284-0.185-3.76-0.207l-25.771-0.04v-0.014h-11.653
			H313.2l-1.066,4.458c-6.949,28.906-30.316,51.315-59.515,57.085c-12.345,2.433-21.498,2.172-34.345-1.234
			c-27.312-7.237-48.33-28.625-54.87-55.851l-1.066-4.458h-7.811H142.87h-18.41l-1.939,0.092c-1.599,0-3.232,0.072-4.961,0.184
			v-0.05l-6.32,0.537l-5.335,0.451v0.082c-5.927,0.681-11.163,1.609-16.134,2.881L49.467,233.36v-0.008l-36.96,9.185v-0.024
			l-11.66,2.895v0.009v6.011v5.999v121.261v5.943v5.013v0.79c1.475-0.076,2.927,0,4.328,0.389l0.03,0.008
			c5.214,1.427,8.313,5.975,8.313,12.183v71.168h5.835h5.822v-71.168c0-9.782-4.849-17.925-12.669-21.824V254.521l25.292-6.268
			v225.927h5.833h5.827h56.437h5.831h5.833V231.106c1.713-0.11,3.447-0.194,5.252-0.194c0.008,0,0.008,0,0.024,0l20.035-0.096
			v243.365h5.823h5.835h56.428h5.833h5.823V292.412c8.975,1.723,16.667,1.955,25.307,0.857v180.911h5.827h5.834h56.433h5.827h0.834
			c13.04,5.054,27.154,7.935,41.957,7.935c64.315,0,116.637-52.325,116.637-116.636c0-14.19-2.673-27.744-7.342-40.343V257.038
			L473.926,257.038z M327.662,230.815l24.902,0.022l0.401,0.024v18.57c-8.765,0.874-17.212,2.798-25.304,5.522V230.815z
			 M453.769,392.232c-0.405,1.351-0.897,2.661-1.354,3.987c-4.036,11.493-10.228,21.929-18.126,30.857
			c-12.387,14.014-28.909,24.225-47.685,28.781c-7.061,1.707-14.383,2.713-21.973,2.713c-1.963,0-3.895-0.168-5.826-0.292
			c-1.96-0.12-3.907-0.276-5.827-0.505c-8.893-1.118-17.384-3.435-25.315-6.869c-1.975-0.85-3.906-1.812-5.822-2.797
			c-1.996-1.038-3.928-2.181-5.827-3.351c-26.633-16.378-44.458-45.7-44.458-79.255c0-33.566,17.825-62.889,44.458-79.271
			c1.899-1.183,3.831-2.309,5.827-3.343c1.916-0.989,3.848-1.947,5.822-2.805c7.932-3.438,16.423-5.751,25.315-6.865
			c1.92-0.236,3.867-0.389,5.827-0.513c1.947-0.108,3.863-0.284,5.826-0.284c21.252,0,40.771,7.201,56.441,19.175
			c2.007,1.539,3.947,3.158,5.826,4.854c2.023,1.831,3.972,3.734,5.827,5.742c15.46,16.619,24.99,38.82,24.99,63.31
			C457.708,374.776,456.305,383.757,453.769,392.232z M458.024,295.906c-7.13-9.538-15.649-17.938-25.299-24.914v-24.181
			l25.299,6.271V295.906z"/>
		<path d="M421.063,351.489c-1.351-0.409-2.753-0.693-4.231-0.693h-37.51v-37.518c0-8.103-6.58-14.675-14.691-14.675
			c-2.067,0-4.039,0.437-5.826,1.214c-2.328,1.01-4.309,2.637-5.827,4.629c-1.867,2.468-3.018,5.506-3.018,8.832v37.518h-22.298
			h-5.822h-5.827h-3.574c-8.111,0-14.68,6.58-14.68,14.684c0,8.11,6.568,14.679,14.68,14.679h3.574h5.827h5.822h22.298v37.521
			c0,3.326,1.15,6.364,3.018,8.832c1.519,2,3.499,3.619,5.827,4.629c1.795,0.781,3.759,1.21,5.826,1.21
			c8.111,0,14.691-6.56,14.691-14.671v-37.521h37.51c1.479,0,2.889-0.28,4.231-0.689c2.2-0.665,4.196-1.791,5.819-3.342
			c2.837-2.682,4.633-6.448,4.633-10.647c0-4.196-1.796-7.967-4.633-10.648C425.26,353.297,423.264,352.162,421.063,351.489z"/>
	</g>
</g>
<g>
</g>
<g>
</g>
<g>
</g>
<g>
</g>
<g>
</g>
<g>
</g>
<g>
</g>
<g>
</g>
<g>
</g>
<g>
</g>
<g>
</g>
<g>
</g>
<g>
</g>
<g>
</g>
<g>
</g>
</svg>
