<?xml version="1.0" encoding="iso-8859-1"?>
<!-- Generator: Adobe Illustrator 16.0.0, SVG Export Plug-In . SVG Version: 6.00 Build 0)  -->
<!DOCTYPE svg PUBLIC "-//W3C//DTD SVG 1.1//EN" "http://www.w3.org/Graphics/SVG/1.1/DTD/svg11.dtd">
<svg version="1.1" id="Capa_1" xmlns="http://www.w3.org/2000/svg" xmlns:xlink="http://www.w3.org/1999/xlink" x="0px" y="0px"
	 width="281.997px" height="281.997px" viewBox="0 0 281.997 281.997" style="enable-background:new 0 0 281.997 281.997;"
	 xml:space="preserve">
<g>
	<g>
		<path d="M176.084,45.535c-13.24-4.679-32.892-3.972-44.816-2.938l-3.449,83.391l0,0c0,0,6.964,5.318,13.802,2.292
			c6.833-3.029,17.624-8.332,17.624-8.332s-3.946,12.218-16.309,16.332c-7.094,2.361-12.852,0.435-15.428-2.678l-1.74,42.011
			c-0.106,2.511-1.585,6.307-3.324,8.486c-10.043,12.578-41.544,51.513-54.723,61.941c-15.778,12.5,2.625,38.24,34.186,20.453
			c31.561-17.803,21.564-29.53,36.819-38.24c15.258-8.715,36.291-20.837,22.615-40.524c0,0,23.142-100.331,14.722-141.979
			L176.084,45.535z M163.973,104.422c-4.36,0-7.892-2.54-7.892-5.68c0-3.138,3.531-5.678,7.892-5.678
			c4.354,0,7.887,2.54,7.887,5.678C171.86,101.883,168.328,104.422,163.973,104.422z M163.973,88.143
			c-4.36,0-7.892-2.545-7.892-5.678c0-3.135,3.531-5.678,7.892-5.678c4.354,0,7.887,2.538,7.887,5.678
			C171.86,85.603,168.328,88.143,163.973,88.143z M163.973,71.479c-4.36,0-7.892-2.542-7.892-5.68c0-3.138,3.531-5.678,7.892-5.678
			c4.354,0,7.887,2.54,7.887,5.678C171.86,68.937,168.328,71.479,163.973,71.479z"/>
		<path d="M132.943,2.191l-1.39,33.508c12.016-0.971,30.323-1.445,44.837,2.532l1.522-36.04
			C177.913,2.191,153.974-2.739,132.943,2.191z"/>
		<path d="M185.053,145.728c-2.895,0.964-5.541,1.187-7.86,0.933c-3.128,18.051-6.266,32.736-7.669,39.069
			c3.609,6.363,4.728,12.738,3.304,18.998c-3.247,14.338-18.973,23.322-30.458,29.878c-4.134,2.361-5.237,4.593-7.438,9.046
			c-3.638,7.358-8.617,17.42-29.173,29.07c4.665,8.679,18.982,14.079,38.266,3.205c31.563-17.797,21.564-29.525,36.824-38.24
			c15.255-8.71,36.289-20.832,22.608-40.519c0,0,23.146-100.334,14.727-141.979l0.01-0.207c-9.59-3.387-22.524-3.936-33.466-3.599
			c2.594,23.69-1.491,58.516-6.178,87.241c1.657,0.093,3.428-0.119,5.188-0.904c6.835-3.027,17.616-8.329,17.616-8.329
			S197.414,141.612,185.053,145.728z M206.086,69.574c4.355,0,7.887,2.54,7.887,5.681c0,3.138-3.531,5.678-7.887,5.678
			c-4.359,0-7.891-2.54-7.891-5.678C198.196,72.114,201.732,69.574,206.086,69.574z M206.086,86.235c4.355,0,7.887,2.54,7.887,5.678
			c0,3.141-3.531,5.68-7.887,5.68c-4.359,0-7.891-2.54-7.891-5.68C198.196,88.774,201.732,86.235,206.086,86.235z M198.201,108.198
			c0-3.141,3.531-5.681,7.886-5.681c4.36,0,7.892,2.54,7.892,5.681c0,3.138-3.531,5.678-7.892,5.678
			C201.732,113.875,198.201,111.335,198.201,108.198z"/>
		<path d="M218.504,47.686l1.521-36.04c0,0-16.85-3.446-34.693-1.654l-1.336,31.491l0.052,0.016l-0.155,3.081
			C194.751,44.235,207.682,44.716,218.504,47.686z"/>
	</g>
</g>
<g>
</g>
<g>
</g>
<g>
</g>
<g>
</g>
<g>
</g>
<g>
</g>
<g>
</g>
<g>
</g>
<g>
</g>
<g>
</g>
<g>
</g>
<g>
</g>
<g>
</g>
<g>
</g>
<g>
</g>
</svg>
