<?xml version="1.0" encoding="iso-8859-1"?>
<!-- Generator: Adobe Illustrator 16.0.0, SVG Export Plug-In . SVG Version: 6.00 Build 0)  -->
<!DOCTYPE svg PUBLIC "-//W3C//DTD SVG 1.1//EN" "http://www.w3.org/Graphics/SVG/1.1/DTD/svg11.dtd">
<svg version="1.1" id="Capa_1" xmlns="http://www.w3.org/2000/svg" xmlns:xlink="http://www.w3.org/1999/xlink" x="0px" y="0px"
	 width="308.947px" height="308.947px" viewBox="0 0 308.947 308.947" style="enable-background:new 0 0 308.947 308.947;"
	 xml:space="preserve">
<g>
	<g>
		<path d="M94.387,154.474c0,31.348,24.133,57.119,54.784,59.828V94.653C118.52,97.354,94.387,123.133,94.387,154.474z"/>
		<path d="M292.471,256.648h16.477v-16.478C299.859,240.171,292.471,247.565,292.471,256.648z"/>
		<path d="M0,240.171v16.478h16.479C16.479,247.565,9.087,240.171,0,240.171z"/>
		<path d="M16.479,52.299H0v16.479C9.087,68.783,16.479,61.386,16.479,52.299z"/>
		<path d="M308.947,68.783V52.299h-16.477C292.471,61.386,299.859,68.783,308.947,68.783z"/>
		<path d="M214.565,154.474c0-31.341-24.135-57.12-54.789-59.82v119.648C190.431,211.593,214.565,185.821,214.565,154.474z
			 M195.096,134.814c2.501,0,4.531,2.737,4.531,6.107c0,3.379-2.03,6.116-4.531,6.116s-4.53-2.742-4.53-6.116
			C190.565,137.551,192.595,134.814,195.096,134.814z M194.76,163.535h-6.929v-8.15h-3.687c0.093-7.765,6.39-8.715,6.39-8.715h0.041
			c0,0,2.02,4.44,4.525,4.396c2.657-0.042,4.226-4.396,4.226-4.396s6.297,0.95,6.385,8.715h-3.682v8.15h-6.929H194.76z"/>
		<path d="M281.866,52.299h-122.09v31.744c36.506,2.737,65.395,33.236,65.395,70.431c0,37.199-28.889,67.698-65.395,70.433v31.742
			h122.09c0-14.935,12.147-27.082,27.081-27.082v-11.857h-44.562c-9.477,0-17.182-7.711-17.182-17.187v-89.123
			c0-9.477,7.705-17.182,17.182-17.182h44.562v-14.83C294.014,79.388,281.866,67.235,281.866,52.299z M234.527,108.945
			c2.506,0,4.536,2.737,4.536,6.107c0,3.379-2.03,6.113-4.536,6.113c-2.496,0-4.521-2.739-4.521-6.113
			C230.007,111.682,232.036,108.945,234.527,108.945z M214.736,68.736c2.501,0,4.526,2.737,4.526,6.108
			c0,3.378-2.03,6.113-4.526,6.113c-2.495,0-4.525-2.739-4.525-6.113C210.211,71.473,212.241,68.736,214.736,68.736z
			 M221.659,97.454h-6.923h-0.342h-6.923v-8.15h-3.682c0.083-7.762,6.379-8.712,6.379-8.712h0.042c0,0,2.02,4.438,4.53,4.396
			c2.657-0.042,4.226-4.396,4.226-4.396s6.302,0.95,6.385,8.712h-3.687v8.15H221.659z M214.902,215.083
			c2.506,0,4.53,2.734,4.53,6.105c0,3.376-2.029,6.115-4.53,6.115c-2.496,0-4.525-2.739-4.525-6.115
			C210.382,217.812,212.417,215.083,214.902,215.083z M221.831,235.65v8.15h-6.929h-0.337h-6.923v-8.15h-3.687
			c0.093-7.762,6.385-8.714,6.385-8.714h0.041c0,0,2.024,4.442,4.531,4.4c2.65-0.046,4.225-4.4,4.225-4.4s6.297,0.952,6.38,8.714
			H221.831z M241.456,189.405v8.15h-6.929h-0.337h-6.923v-8.15h-3.687c0.093-7.768,6.385-8.715,6.385-8.715h0.041
			c0,0,2.02,4.438,4.521,4.396c2.661-0.042,4.226-4.396,4.226-4.396s6.302,0.947,6.39,8.715H241.456z M230.007,174.942
			c0-3.376,2.029-6.105,4.521-6.105c2.506,0,4.536,2.734,4.536,6.105c0,3.381-2.03,6.115-4.536,6.115
			C232.036,181.063,230.007,178.323,230.007,174.942z M241.456,129.512v8.15h-6.929h-0.337h-6.923v-8.15h-3.687
			c0.093-7.762,6.385-8.712,6.385-8.712h0.041c0,0,2.02,4.438,4.521,4.396c2.661-0.044,4.226-4.396,4.226-4.396
			s6.302,0.95,6.39,8.712H241.456z"/>
		<path d="M257.808,111.399v89.123c0,3.63,2.952,6.581,6.577,6.581h44.562v-102.28h-44.562
			C260.76,104.823,257.808,107.772,257.808,111.399z M286.484,140.117c2.507,0,4.531,2.736,4.531,6.107
			c0,3.379-2.03,6.115-4.531,6.115c-2.495,0-4.525-2.742-4.525-6.115C281.964,142.854,283.999,140.117,286.484,140.117z
			 M281.923,151.973h0.041c0,0,2.025,4.438,4.531,4.396c2.651-0.041,4.226-4.396,4.226-4.396s6.296,0.95,6.379,8.714h-3.682v8.15
			h-6.923h-0.342h-6.923v-8.15h-3.688C275.621,152.923,281.923,151.973,281.923,151.973z"/>
		<path d="M0,79.388v14.83h43.071c9.476,0,17.189,7.705,17.189,17.182v89.123c0,9.476-7.713,17.187-17.189,17.187H0v11.857
			c14.931,0,27.084,12.147,27.084,27.082h122.082v-31.742c-5.737-0.435-11.252-1.621-16.526-3.34
			c0.126,0.564,0.264,1.134,0.264,1.755c0,3.377-2.03,6.115-4.528,6.115c-2.499,0-4.528-2.738-4.528-6.115
			c0-1.833,0.626-3.428,1.569-4.546c-24.508-11.092-41.64-35.688-41.64-64.302c0-29.601,18.32-54.904,44.185-65.408h-2.496v-8.15
			h-3.687c0.091-7.762,6.385-8.707,6.385-8.707h0.042c0,0,2.022,4.44,4.528,4.396c2.656-0.041,4.228-4.396,4.228-4.396
			s6.299,0.95,6.382,8.707h-3.684v4.572c3.112-0.663,6.273-1.204,9.517-1.445V52.299H27.084C27.084,67.235,14.931,79.388,0,79.388z
			 M123.812,229.069h0.041c0,0,2.02,4.443,4.528,4.396c2.656-0.042,4.226-4.396,4.226-4.396s6.299,0.953,6.385,8.71h-3.685v8.15
			h-6.926h-0.339h-6.926v-8.15h-3.685C117.512,230.022,123.812,229.069,123.812,229.069z M132.728,60.354
			c2.503,0,4.528,2.736,4.528,6.107c0,3.379-2.03,6.115-4.528,6.115c-2.496,0-4.528-2.742-4.528-6.115
			C128.205,63.09,130.237,60.354,132.728,60.354z M74.759,71.237c2.501,0,4.534,2.737,4.534,6.11c0,3.376-2.033,6.113-4.534,6.113
			c-2.498,0-4.523-2.742-4.523-6.113C70.23,73.969,72.261,71.237,74.759,71.237z M70.187,83.096h0.044c0,0,2.02,4.438,4.523,4.396
			c2.656-0.044,4.225-4.396,4.225-4.396s6.299,0.947,6.385,8.712h-3.687v8.148h-6.923h-0.342h-6.923v-8.148h-3.687
			C63.893,84.043,70.187,83.096,70.187,83.096z M79.287,206.048c0,3.376-2.032,6.109-4.533,6.109c-2.499,0-4.523-2.739-4.523-6.109
			c0-3.377,2.03-6.11,4.523-6.11C77.255,199.938,79.287,202.671,79.287,206.048z M70.187,211.795h0.044c0,0,2.02,4.438,4.523,4.396
			c2.656-0.047,4.225-4.396,4.225-4.396s6.299,0.953,6.385,8.71h-3.687v8.15h-6.923h-0.342h-6.923v-8.15h-3.687
			C63.893,212.737,70.187,211.795,70.187,211.795z"/>
		<path d="M49.655,200.522v-89.123c0-3.627-2.951-6.576-6.584-6.576H0v102.28h43.071C46.709,207.104,49.655,204.152,49.655,200.522z
			 M25,140.117c2.503,0,4.528,2.736,4.528,6.107c0,3.379-2.03,6.115-4.528,6.115c-2.496,0-4.528-2.742-4.528-6.115
			C20.472,142.854,22.504,140.117,25,140.117z M31.926,160.687v8.15H25h-0.345h-6.92v-8.15h-3.684
			c0.091-7.764,6.385-8.714,6.385-8.714h0.041c0,0,2.02,4.438,4.528,4.396c2.656-0.041,4.226-4.396,4.226-4.396
			s6.299,0.95,6.385,8.714H31.926z"/>
	</g>
</g>
<g>
</g>
<g>
</g>
<g>
</g>
<g>
</g>
<g>
</g>
<g>
</g>
<g>
</g>
<g>
</g>
<g>
</g>
<g>
</g>
<g>
</g>
<g>
</g>
<g>
</g>
<g>
</g>
<g>
</g>
</svg>
