<?xml version="1.0" encoding="iso-8859-1"?>
<!-- Generator: Adobe Illustrator 16.0.0, SVG Export Plug-In . SVG Version: 6.00 Build 0)  -->
<!DOCTYPE svg PUBLIC "-//W3C//DTD SVG 1.1//EN" "http://www.w3.org/Graphics/SVG/1.1/DTD/svg11.dtd">
<svg version="1.1" id="Capa_1" xmlns="http://www.w3.org/2000/svg" xmlns:xlink="http://www.w3.org/1999/xlink" x="0px" y="0px"
	 width="429.949px" height="429.949px" viewBox="0 0 429.949 429.949" style="enable-background:new 0 0 429.949 429.949;"
	 xml:space="preserve">
<g>
	<g>
		<path d="M101.093,289.437v138.027h56.601V269.243C137.3,272.666,118.231,279.626,101.093,289.437z"/>
		<path d="M256.878,281.594c-20.262-8.993-42.659-14.219-66.315-14.735v160.605h66.315V281.594z"/>
		<path d="M68.222,313.769c-30.308,29.103-49.065,69.289-49.065,113.688h49.065V313.769z"/>
		<path d="M218.284,57.02c18.812-14.815,35.696-20.53,50.352-17.122C249.488,15.427,222.089,0,191.595,0
			c-49.71,0-91.239,40.744-102.017,95.367C120.673,96.782,173.115,92.604,218.284,57.02z"/>
		<path d="M191.587,246.645c57.901,0,104.84-55.202,104.84-123.322c0-2.473-0.192-4.891-0.312-7.334
			c-1.578-15.815-8.809-51.417-27.37-59.604c-10.335-4.546-24.041-0.188-40.74,12.96c-50.283,39.611-107.347,43.685-140.718,41.795
			c-0.331,4.003-0.517,8.061-0.517,12.174C86.769,191.443,133.689,246.645,191.587,246.645z"/>
		<path d="M281.832,299.115c-4.012,6.416-4.793,39.602-4.953,53.562c-0.293,26.037-1.724,48.919-2.873,53.965
			c-0.798,3.494,0.044,7.113,2.344,10.194c7.734,10.327,30.112,12.483,36.792,12.896c2.345,0.151,4.669,0.216,6.93,0.216
			c8.171,0,35.072-1.13,38.371-15.617c0.773-3.306,10.287-17.893,25.684-34.011c8.263-8.64,27.398-29.799,26.645-39.473
			c-0.549-7.435-6.792-14.375-14.526-16.13c-8.331-1.884-20.446,6.792-28.589,15.212c-0.537-2.978-0.894-7.73-0.413-14.76
			c2.945-42.815-1.503-46.987-3.402-48.782c-3.951-3.703-10.479-4.837-15.549-2.665c-0.337-0.232-0.766-0.585-1.174-1.09
			c-5.663-6.9-16.282-7.606-22.117-1.526c-0.918,0.957-2.837,1.694-3.863,1.703c-6.38-1.451-14.03,1.302-17.665,6.295
			c-2.252,3.102-4.636,8.384-5.955,13.169C291.53,291.171,285.03,294.005,281.832,299.115z M300.238,308.452l0.32,29.391
			l7.851-0.093l-0.353-32.856c2.088-1.932,3.683-4.524,4.388-7.59c0.714-3.142,2.573-7.39,3.539-8.757
			c0.185-0.152,0.525-0.364,1.659-0.42c1.679,0.376,3.494,0.36,5.35,0.16l-3.896,47.716l7.819,0.638l4.14-50.79
			c1.534-0.813,2.985-1.764,4.231-2.874c1.751,2.017,3.835,3.479,6.003,4.621l-2.781,48.774l7.835,0.444l2.697-47.255
			c1.029-0.032,2.063-0.04,3.021-0.321c0.493,5.863,0.677,17.938-0.489,34.865c-1.014,14.964,0.918,25.183,5.763,30.38
			c2.356,2.524,5.446,3.911,8.712,3.911c4.023,0,7.879-2.016,11.438-5.971c6.561-7.285,13.445-11.586,15.753-12.223
			c0.678,0.309,1.282,0.878,1.604,1.334c-1.764,3.743-9.186,14.476-22.073,27.952c-10.339,10.828-26.377,30.192-29.398,40.451
			c-2.107,1.639-10.379,4.319-23.308,4.319c-1.947,0-3.938-0.06-5.963-0.18c-13.894-0.861-21.836-4.188-24.393-5.983
			c1.57-9.81,2.648-34.925,2.873-55.227c0.244-22.385,1.631-39.444,2.677-44.911C296.896,308.488,298.583,308.604,300.238,308.452z"
			/>
	</g>
</g>
<g>
</g>
<g>
</g>
<g>
</g>
<g>
</g>
<g>
</g>
<g>
</g>
<g>
</g>
<g>
</g>
<g>
</g>
<g>
</g>
<g>
</g>
<g>
</g>
<g>
</g>
<g>
</g>
<g>
</g>
</svg>
