<?xml version="1.0" encoding="iso-8859-1"?>
<!-- Generator: Adobe Illustrator 16.0.0, SVG Export Plug-In . SVG Version: 6.00 Build 0)  -->
<!DOCTYPE svg PUBLIC "-//W3C//DTD SVG 1.1//EN" "http://www.w3.org/Graphics/SVG/1.1/DTD/svg11.dtd">
<svg version="1.1" id="Capa_1" xmlns="http://www.w3.org/2000/svg" xmlns:xlink="http://www.w3.org/1999/xlink" x="0px" y="0px"
	 width="362.848px" height="362.848px" viewBox="0 0 362.848 362.848" style="enable-background:new 0 0 362.848 362.848;"
	 xml:space="preserve">
<g>
	<g>
		<polygon points="31.845,62.248 49.93,77.319 71.935,50.92 71.935,111.643 95.486,111.643 95.486,50.92 117.493,77.319 
			135.579,62.248 83.711,0 		"/>
		<polygon points="95.486,189.022 95.486,127.342 71.935,127.342 71.935,189.022 49.93,162.631 31.845,177.711 83.711,239.941 
			135.579,177.711 117.493,162.631 		"/>
		<polygon points="31.845,312.499 49.93,327.571 71.935,301.174 71.935,362.848 95.486,362.848 95.486,301.174 117.493,327.571 
			135.579,312.499 83.711,250.259 		"/>
		<rect x="166.14" y="33.137" width="164.863" height="23.552"/>
		<rect x="166.14" y="166.595" width="164.863" height="23.545"/>
		<rect x="166.14" y="307.899" width="164.863" height="23.551"/>
	</g>
</g>
<g>
</g>
<g>
</g>
<g>
</g>
<g>
</g>
<g>
</g>
<g>
</g>
<g>
</g>
<g>
</g>
<g>
</g>
<g>
</g>
<g>
</g>
<g>
</g>
<g>
</g>
<g>
</g>
<g>
</g>
</svg>
