<?xml version="1.0" encoding="iso-8859-1"?>
<!-- Generator: Adobe Illustrator 16.0.0, SVG Export Plug-In . SVG Version: 6.00 Build 0)  -->
<!DOCTYPE svg PUBLIC "-//W3C//DTD SVG 1.1//EN" "http://www.w3.org/Graphics/SVG/1.1/DTD/svg11.dtd">
<svg version="1.1" id="Capa_1" xmlns="http://www.w3.org/2000/svg" xmlns:xlink="http://www.w3.org/1999/xlink" x="0px" y="0px"
	 width="283.192px" height="283.192px" viewBox="0 0 283.192 283.192" style="enable-background:new 0 0 283.192 283.192;"
	 xml:space="preserve">
<g>
	<g>
		<path d="M38.724,206.887v-20.371l-1.284,20.318c-4.023-0.165-8.049-0.32-12.067-0.527c-17.096-0.881-17.01,25.631,0,26.512
			c3.467,0.182,6.936,0.321,10.403,0.455l-2.354,37.309c0,6.965,5.646,12.609,12.608,12.609h189.336
			c6.965,0,12.613-5.645,12.613-12.609l-2.351-37.235c4.06-0.166,8.13-0.321,12.189-0.528c17.01-0.881,17.099-27.393,0-26.512
			c-4.619,0.238-9.237,0.414-13.856,0.601l-1.284-20.392v20.443c-0.891,0.036-1.771,0.067-2.651,0.113
			c-0.891,0.031-1.771,0.094-2.651,0.141v-58.326c0.88-0.042,1.761-0.099,2.651-0.141c0.088-0.01,0.176-0.01,0.264-0.01
			c0.793-0.042,1.59-0.067,2.388-0.099c5.043-0.212,10.097-0.394,15.141-0.652c17.01-0.881,17.099-27.393,0-26.512
			c-5.044,0.259-10.098,0.44-15.141,0.652c-0.891,0.037-1.771,0.07-2.651,0.111c-0.466,0.021-0.932,0.054-1.403,0.075
			c-0.419,0.021-0.834,0.046-1.248,0.067v-19.915V77.248c0-5.787-3.92-10.605-9.228-12.091l0.031-0.006c0,0-0.052-0.005-0.072-0.005
			c-0.518-0.143-1.036-0.249-1.574-0.329c-4.122-1.188-14.675-6.703-15.949-32.179V14.975C210.583,6.703,203.878,0,195.608,0
			h-15.503v27.325c0,17.406-14.116,31.522-31.522,31.522h-15.762c-17.409,0-31.524-14.116-31.524-31.522V0H85.799
			c-8.272,0-14.976,6.703-14.976,14.975v17.598C69.558,58.093,58.989,63.613,54.87,64.802c-0.536,0.075-1.056,0.186-1.569,0.324
			c-0.026,0-0.081,0.005-0.081,0.005l0.031,0.005c-5.308,1.486-9.225,6.31-9.225,12.091v25.217v19.819
			c-0.414-0.021-0.833-0.041-1.245-0.057c-0.469-0.023-0.94-0.039-1.406-0.06c-0.885-0.036-1.766-0.073-2.651-0.111
			c-4.448-0.179-8.904-0.35-13.352-0.578c-17.096-0.88-17.01,25.632,0,26.512c4.448,0.228,8.904,0.398,13.352,0.58
			c0.795,0.03,1.59,0.062,2.385,0.093c0.085,0.006,0.176,0.006,0.261,0.011c0.886,0.036,1.766,0.083,2.651,0.114v58.326v26.512
			v11.744c0,6.959,5.646,12.608,12.608,12.608h168.131c6.96,0,12.604-5.649,12.604-12.608v-11.631
			c0.891-0.041,1.771-0.104,2.651-0.145c0.891-0.036,1.771-0.072,2.651-0.108v11.894c0,9.88-8.031,17.911-17.906,17.911H56.635
			c-9.877,0-17.911-8.031-17.911-17.911v-11.961V206.887z"/>
	</g>
</g>
<g>
</g>
<g>
</g>
<g>
</g>
<g>
</g>
<g>
</g>
<g>
</g>
<g>
</g>
<g>
</g>
<g>
</g>
<g>
</g>
<g>
</g>
<g>
</g>
<g>
</g>
<g>
</g>
<g>
</g>
</svg>
