<?xml version="1.0" encoding="iso-8859-1"?>
<!-- Generator: Adobe Illustrator 16.0.0, SVG Export Plug-In . SVG Version: 6.00 Build 0)  -->
<!DOCTYPE svg PUBLIC "-//W3C//DTD SVG 1.1//EN" "http://www.w3.org/Graphics/SVG/1.1/DTD/svg11.dtd">
<svg version="1.1" id="Capa_1" xmlns="http://www.w3.org/2000/svg" xmlns:xlink="http://www.w3.org/1999/xlink" x="0px" y="0px"
	 width="272.068px" height="272.068px" viewBox="0 0 272.068 272.068" style="enable-background:new 0 0 272.068 272.068;"
	 xml:space="preserve">
<g>
	<g>
		<path d="M136.039,0C61.031,0,0.007,61.026,0.007,136.034c0,75.005,61.024,136.034,136.032,136.034s136.021-61.029,136.021-136.034
			C272.061,61.026,211.042,0,136.039,0z M218.581,172.322c-12.95-6.363-29.008-4.308-39.789,6.468
			c-10.775,10.781-12.831,26.833-6.462,39.789c-11.117,4.898-23.374,7.653-36.296,7.653c-12.922,0-25.182-2.761-36.296-7.653
			c6.375-12.956,4.316-29.008-6.462-39.789c-10.781-10.775-26.83-12.831-39.789-6.468c-4.896-11.112-7.658-23.368-7.658-36.293
			c0-12.922,2.762-25.182,7.658-36.296c12.958,6.374,29.008,4.315,39.789-6.463c10.778-10.78,12.832-26.83,6.462-39.788
			c11.115-4.896,23.374-7.659,36.296-7.659c12.922,0,25.179,2.762,36.296,7.659c-6.369,12.958-4.313,29.008,6.462,39.788
			c10.781,10.778,26.839,12.837,39.789,6.463c4.903,11.114,7.663,23.374,7.663,36.296
			C226.25,148.954,223.484,161.21,218.581,172.322z"/>
		<path d="M136.039,101.341c19.162,0,34.691,15.532,34.691,34.693c0,19.164-15.529,34.693-34.691,34.693
			c-19.162,0-34.693-15.529-34.693-34.693C101.346,116.873,116.877,101.341,136.039,101.341z"/>
	</g>
</g>
<g>
</g>
<g>
</g>
<g>
</g>
<g>
</g>
<g>
</g>
<g>
</g>
<g>
</g>
<g>
</g>
<g>
</g>
<g>
</g>
<g>
</g>
<g>
</g>
<g>
</g>
<g>
</g>
<g>
</g>
</svg>
