<?xml version="1.0" encoding="iso-8859-1"?>
<!-- Generator: Adobe Illustrator 16.0.0, SVG Export Plug-In . SVG Version: 6.00 Build 0)  -->
<!DOCTYPE svg PUBLIC "-//W3C//DTD SVG 1.1//EN" "http://www.w3.org/Graphics/SVG/1.1/DTD/svg11.dtd">
<svg version="1.1" id="Capa_1" xmlns="http://www.w3.org/2000/svg" xmlns:xlink="http://www.w3.org/1999/xlink" x="0px" y="0px"
	 width="480.797px" height="480.797px" viewBox="0 0 480.797 480.797" style="enable-background:new 0 0 480.797 480.797;"
	 xml:space="preserve">
<g>
	<g>
		<path d="M317.436,0c20.27,0,36.708,16.432,36.708,36.71c0,20.27-16.438,36.706-36.708,36.706
			c-20.278,0-36.713-16.437-36.713-36.706C280.723,16.432,297.157,0,317.436,0z"/>
		<path d="M91.949,236.538c20.273,0,36.706,16.437,36.706,36.706c0,20.277-16.433,36.708-36.706,36.708
			s-36.712-16.431-36.712-36.708C55.237,252.975,71.676,236.538,91.949,236.538z"/>
		<path d="M379.318,461.393c1.923,11.361,11.777,19.404,22.922,19.404c1.291,0,2.601-0.116,3.911-0.329
			c12.68-2.147,21.22-14.153,19.079-26.833l-21.495-127.148c-1.026-6.095-4.444-11.537-9.489-15.115l-76.635-54.289
			c2.217-6.685,8.404-25.914,14.431-49.465l29.423,28.162c3.987,3.823,9.121,5.714,14.234,5.714c5.422,0,10.832-2.126,14.884-6.35
			c7.862-8.223,7.574-21.251-0.646-29.118l-28.781-27.557l-15.886-71.711c-0.168-0.731-0.356-1.437-0.597-2.128
			c-2.16-13.934-7.635-23.812-18.062-26.323c-5.366-1.286-10.872-0.021-16.435,3.229c-0.141,0.062-0.276,0.108-0.417,0.172
			l-69.817,34.312c-3.182,1.563-5.903,3.917-7.906,6.847l-59.577,86.967c-6.428,9.379-4.036,22.201,5.356,28.629
			c3.557,2.442,7.604,3.604,11.618,3.604c6.562,0,13.018-3.132,17.011-8.958l50.566-73.801
			c-12.804,27.821-23.645,56.923-30.649,76.997c-0.479,0.966-0.912,1.956-1.256,3.006l-30.466,92.415L74.527,363.893
			c-12.421,3.326-19.791,16.081-16.461,28.504c2.787,10.412,12.191,17.265,22.474,17.265c1.994,0,4.021-0.261,6.037-0.798
			l132.25-35.418c7.582-2.023,13.627-7.746,16.083-15.195l27.443-83.259l97.088,68.784L379.318,461.393z"/>
	</g>
</g>
<g>
</g>
<g>
</g>
<g>
</g>
<g>
</g>
<g>
</g>
<g>
</g>
<g>
</g>
<g>
</g>
<g>
</g>
<g>
</g>
<g>
</g>
<g>
</g>
<g>
</g>
<g>
</g>
<g>
</g>
</svg>
