<?xml version="1.0" encoding="iso-8859-1"?>
<!-- Generator: Adobe Illustrator 16.0.0, SVG Export Plug-In . SVG Version: 6.00 Build 0)  -->
<!DOCTYPE svg PUBLIC "-//W3C//DTD SVG 1.1//EN" "http://www.w3.org/Graphics/SVG/1.1/DTD/svg11.dtd">
<svg version="1.1" id="Capa_1" xmlns="http://www.w3.org/2000/svg" xmlns:xlink="http://www.w3.org/1999/xlink" x="0px" y="0px"
	 width="309.305px" height="309.305px" viewBox="0 0 309.305 309.305" style="enable-background:new 0 0 309.305 309.305;"
	 xml:space="preserve">
<g>
	<g>
		<path d="M86.169,116.992v2.788c11.379,6.483,19.804,20.982,19.804,34.629c0,13.877-8.267,28.091-19.804,34.631v3.278
			c0,10.231-8.324,18.559-18.559,18.559H40.674c0.956,4.08,4.604,7.135,8.971,7.135h99.702v-22.639
			c-19.307-2.796-34.196-19.407-34.196-39.478c0-20.071,14.89-36.677,34.196-39.483V91.295H49.645c-4.368,0-8.016,3.055-8.971,7.138
			H67.61C77.845,98.434,86.169,106.757,86.169,116.992z"/>
		<path d="M80.867,192.318v-75.326c0-7.309-5.95-13.256-13.256-13.256H40.415v101.838H67.61
			C74.917,205.574,80.867,199.624,80.867,192.318z"/>
		<path d="M19.889,177.188h9.921V132.12h-9.921c-1.463,0-2.651,1.186-2.651,2.651v39.765
			C17.238,176.002,18.426,177.188,19.889,177.188z"/>
		<path d="M227.931,116.992v75.326c0,7.306,5.944,13.256,13.256,13.256h27.703V103.736h-27.703
			C233.875,103.736,227.931,109.678,227.931,116.992z"/>
		<path d="M125.761,155.896c0,14.208,10.16,26.082,23.592,28.765v-57.532C135.915,129.808,125.761,141.684,125.761,155.896z"/>
		<path d="M184.439,155.896c0-14.52-10.62-26.582-24.487-28.904v57.808C173.819,182.469,184.439,170.414,184.439,155.896z"/>
		<path d="M26.512,256.827h256.281c14.648,0,26.512-11.874,26.512-26.512V78.99c0-14.641-11.863-26.512-26.512-26.512H26.512
			C11.865,52.478,0,64.349,0,78.99v151.326C0,244.953,11.865,256.827,26.512,256.827z M11.936,134.771
			c0-4.386,3.567-7.954,7.954-7.954h9.921v-26.279c0-10.943,8.901-19.842,19.84-19.842h210.012c10.941,0,19.843,8.904,19.843,19.842
			v26.279h9.413c4.381,0,7.954,3.567,7.954,7.954v39.765c0,4.386-3.573,7.954-7.954,7.954h-9.424v26.284
			c0,10.936-8.906,19.843-19.843,19.843H49.645c-10.939,0-19.84-8.907-19.84-19.843V182.49h-9.916c-4.386,0-7.954-3.568-7.954-7.954
			V134.771z"/>
		<path d="M291.56,174.536v-39.765c0-1.465-1.191-2.651-2.651-2.651h-9.414v45.067h9.414
			C290.368,177.188,291.56,176.002,291.56,174.536z"/>
		<path d="M268.631,210.877h-27.444c-10.232,0-18.559-8.327-18.559-18.559v-3.278c-11.537-6.54-19.807-20.759-19.807-34.636
			c0-13.647,8.431-28.146,19.807-34.628v-2.791c0-10.232,8.326-18.559,18.559-18.559h27.438c-0.958-4.08-4.604-7.136-8.974-7.136
			h-99.694v24.979c19.744,2.408,35.093,19.237,35.093,39.62c0,20.376-15.349,37.216-35.093,39.618v22.499h99.705
			C264.021,218.007,267.667,214.951,268.631,210.877z"/>
		<path d="M86.169,125.974v56.868c8.489-6.178,14.501-17.631,14.501-28.433C100.67,143.605,94.658,132.151,86.169,125.974z"/>
		<path d="M222.628,182.842v-56.868c-8.492,6.177-14.504,17.631-14.504,28.43C208.124,165.205,214.142,176.664,222.628,182.842z"/>
	</g>
</g>
<g>
</g>
<g>
</g>
<g>
</g>
<g>
</g>
<g>
</g>
<g>
</g>
<g>
</g>
<g>
</g>
<g>
</g>
<g>
</g>
<g>
</g>
<g>
</g>
<g>
</g>
<g>
</g>
<g>
</g>
</svg>
