<?xml version="1.0" encoding="iso-8859-1"?>
<!-- Generator: Adobe Illustrator 16.0.0, SVG Export Plug-In . SVG Version: 6.00 Build 0)  -->
<!DOCTYPE svg PUBLIC "-//W3C//DTD SVG 1.1//EN" "http://www.w3.org/Graphics/SVG/1.1/DTD/svg11.dtd">
<svg version="1.1" id="Capa_1" xmlns="http://www.w3.org/2000/svg" xmlns:xlink="http://www.w3.org/1999/xlink" x="0px" y="0px"
	 width="457.406px" height="457.406px" viewBox="0 0 457.406 457.406" style="enable-background:new 0 0 457.406 457.406;"
	 xml:space="preserve">
<g>
	<g>
		<path d="M329.477,379.976h59.134v-57.943c-12.691-1.423-22.618-12.095-22.618-25.159V164.931c0-13.064,9.927-23.724,22.618-25.155
			V77.431h-59.134v123.215c2.493,8.938,3.896,18.33,3.896,28.058c0,9.738-1.402,19.128-3.896,28.076V379.976z"/>
		<path d="M419.552,367.328c5.342-15.894,20.193-27.447,37.854-27.447v-17.564h-37.854V367.328z"/>
		<path d="M419.552,90.088v49.401h37.854v-21.96C439.745,117.529,424.886,105.976,419.552,90.088z"/>
		<path d="M213.498,141.139c-41.822,7.243-73.755,43.701-73.755,87.564c0,43.854,31.933,80.312,73.755,87.566V141.139z"/>
		<path d="M457.406,379.976v-24.394c-13.453,0-24.394,10.94-24.394,24.394H457.406z"/>
		<path d="M0,355.582v24.394h24.397C24.405,366.522,13.455,355.582,0,355.582z"/>
		<path d="M0,77.431v24.397c13.455,0,24.397-10.94,24.397-24.397H0z"/>
		<path d="M457.406,77.431h-24.394c0,13.457,10.94,24.397,24.394,24.397V77.431z"/>
		<rect y="155.191" width="36.76" height="151.424"/>
		<path d="M73.517,164.931c0-3.963-2.402-7.364-5.815-8.878V305.75c3.413-1.519,5.815-4.905,5.815-8.877V164.931z"/>
		<path d="M213.498,77.431H157.43v74.877c15.198-14.152,34.574-23.842,56.068-26.996V77.431z"/>
		<path d="M157.43,379.976h56.068v-47.885c-21.494-3.149-40.87-12.832-56.068-26.99V379.976z"/>
		<path d="M0,139.49h36.76V93.368C30.585,107.571,16.445,117.529,0,117.529V139.49z"/>
		<path d="M0,339.881c16.445,0,30.585,9.959,36.76,24.165v-41.729H0V339.881z"/>
		<path d="M67.702,379.976h58.783v-129.1c-1.557-7.161-2.45-14.559-2.45-22.173c0-7.616,0.894-15.014,2.45-22.171V77.431H67.702
			v62.458c12.159,1.91,21.516,12.359,21.516,25.042v131.942c0,12.688-9.357,23.136-21.516,25.039V379.976z"/>
		<path d="M244.436,379.976h54.092v-73.46c-14.831,13.305-33.494,22.409-54.092,25.531V379.976z"/>
		<path d="M244.436,125.358c20.598,3.127,39.261,12.23,54.092,25.527V77.431h-54.092V125.358z"/>
		<path d="M381.693,296.873c0,4.369,2.945,7.943,6.917,9.17V155.762c-3.972,1.234-6.917,4.799-6.917,9.169V296.873z"/>
		<rect x="419.552" y="155.191" width="37.854" height="151.424"/>
		<path d="M244.436,316.121c41.557-7.466,73.235-43.741,73.235-87.418c0-43.667-31.679-79.952-73.235-87.408V316.121z"/>
	</g>
</g>
<g>
</g>
<g>
</g>
<g>
</g>
<g>
</g>
<g>
</g>
<g>
</g>
<g>
</g>
<g>
</g>
<g>
</g>
<g>
</g>
<g>
</g>
<g>
</g>
<g>
</g>
<g>
</g>
<g>
</g>
</svg>
