<?xml version="1.0" encoding="iso-8859-1"?>
<!-- Generator: Adobe Illustrator 16.0.0, SVG Export Plug-In . SVG Version: 6.00 Build 0)  -->
<!DOCTYPE svg PUBLIC "-//W3C//DTD SVG 1.1//EN" "http://www.w3.org/Graphics/SVG/1.1/DTD/svg11.dtd">
<svg version="1.1" id="Capa_1" xmlns="http://www.w3.org/2000/svg" xmlns:xlink="http://www.w3.org/1999/xlink" x="0px" y="0px"
	 width="482.797px" height="482.797px" viewBox="0 0 482.797 482.797" style="enable-background:new 0 0 482.797 482.797;"
	 xml:space="preserve">
<g>
	<g>
		<path d="M241.397,482.797c59.478,0,107.691-48.222,107.691-107.688c0-53.796-39.481-98.246-91.009-106.273v-3.963v-3.972v-3.395
			c6.516-5.029,10.796-12.827,10.796-21.674c0-7.552-3.078-14.405-8.027-19.374l51.203-20.845V0h-25.515v3.925v3.926v165.839
			h-15.701V7.851V3.925h-58.877v3.926v165.839h-15.701V7.851V3.925V0h-25.513v195.614l51.201,20.839
			c-4.953,4.967-8.023,11.82-8.023,19.372c0,8.846,4.278,16.653,10.794,21.674v3.402v3.963v3.956
			c-51.538,8.043-91.009,52.493-91.009,106.272C133.708,434.575,181.923,482.797,241.397,482.797z M221.772,235.833
			c0-6.635,3.326-12.481,8.376-16.038l11.249,4.577l11.248-4.577c5.058,3.557,8.38,9.403,8.38,16.038
			c0,5.348-2.156,10.188-5.65,13.739h-27.956C223.931,246.021,221.772,241.181,221.772,235.833z"/>
	</g>
</g>
<g>
</g>
<g>
</g>
<g>
</g>
<g>
</g>
<g>
</g>
<g>
</g>
<g>
</g>
<g>
</g>
<g>
</g>
<g>
</g>
<g>
</g>
<g>
</g>
<g>
</g>
<g>
</g>
<g>
</g>
</svg>
