<?xml version="1.0" encoding="iso-8859-1"?>
<!-- Generator: Adobe Illustrator 16.0.0, SVG Export Plug-In . SVG Version: 6.00 Build 0)  -->
<!DOCTYPE svg PUBLIC "-//W3C//DTD SVG 1.1//EN" "http://www.w3.org/Graphics/SVG/1.1/DTD/svg11.dtd">
<svg version="1.1" id="Capa_1" xmlns="http://www.w3.org/2000/svg" xmlns:xlink="http://www.w3.org/1999/xlink" x="0px" y="0px"
	 width="403.533px" height="403.533px" viewBox="0 0 403.533 403.533" style="enable-background:new 0 0 403.533 403.533;"
	 xml:space="preserve">
<g>
	<g>
		<circle cx="51.029" cy="114.949" r="9.162"/>
		<circle cx="9.163" cy="186.584" r="9.161"/>
		<circle cx="36.638" cy="299.434" r="9.161"/>
		<circle cx="303.551" cy="146.343" r="9.162"/>
		<path d="M389.866,121.42c5.062,0,9.161,4.102,9.161,9.161c0,5.06-4.1,9.161-9.161,9.161c-5.057,0-9.16-4.102-9.16-9.161
			C380.706,125.521,384.81,121.42,389.866,121.42z"/>
		<circle cx="203.459" cy="44.617" r="9.161"/>
		<path d="M294.39,239.242c5.062,0,9.161,4.104,9.161,9.165c0,5.058-4.1,9.161-9.161,9.161c-5.058,0-9.161-4.104-9.161-9.161
			C285.229,243.346,289.332,239.242,294.39,239.242z"/>
		<path d="M264.574,181.677c-1.078,5.626,14.183,3.056,15.148-1.978c1.679-8.786,10.207-19.374,6.877-28.511
			c-1.339-3.701-8.079-5.214-11.27-6.218c-4.536-1.447-9.421-2.262-13.798-4.18c-3.298-1.445-7.79-0.283-10.731,1.469
			c-1.928,1.154-4.709,4.27-1.383,5.723c5.972,2.615,13.449,3.102,19.336,6.141c-71.428,26.159-159.349,26.649-234.085,27.097
			c-5.769,0.032-16.11,8.832-5.857,8.77c78.937-0.463,167.637-1.467,243.064-28.411
			C270.333,168.449,265.151,178.658,264.574,181.677z"/>
		<path d="M235.545,365.58c53.362-53.936,113.386-115.205,147.577-184.31c1.799,4.302,3.342,8.812,5.803,12.459
			c2.766,4.082,17.488-0.881,14.106-5.873c-4.793-7.057-6.909-23.476-16.952-25.373c-11.229-2.126-20.914,7.662-30.536,11.447
			c-1.724,0.681-6.484,3.499-4.084,5.917c2.377,2.413,7.358,1.102,10.003,0.054c3.105-1.223,6.02-2.968,8.933-4.615
			c0.577-0.331,1.166-0.637,1.747-0.958c-32.412,70.731-94.956,134.197-148.796,188.618
			C217.038,369.311,231.938,369.219,235.545,365.58z"/>
	</g>
</g>
<g>
</g>
<g>
</g>
<g>
</g>
<g>
</g>
<g>
</g>
<g>
</g>
<g>
</g>
<g>
</g>
<g>
</g>
<g>
</g>
<g>
</g>
<g>
</g>
<g>
</g>
<g>
</g>
<g>
</g>
</svg>
