<?xml version="1.0" encoding="iso-8859-1"?>
<!-- Generator: Adobe Illustrator 16.0.0, SVG Export Plug-In . SVG Version: 6.00 Build 0)  -->
<!DOCTYPE svg PUBLIC "-//W3C//DTD SVG 1.1//EN" "http://www.w3.org/Graphics/SVG/1.1/DTD/svg11.dtd">
<svg version="1.1" id="Capa_1" xmlns="http://www.w3.org/2000/svg" xmlns:xlink="http://www.w3.org/1999/xlink" x="0px" y="0px"
	 width="308.958px" height="308.958px" viewBox="0 0 308.958 308.958" style="enable-background:new 0 0 308.958 308.958;"
	 xml:space="preserve">
<g>
	<g>
		<path d="M271.256,52.307H170.381c-5.852,0-10.604,4.751-10.604,10.605v10.542c0,5.854,4.769,10.874,10.48,12.184
			c31.405,7.18,54.908,35.292,54.908,68.843c0,33.555-23.509,61.661-54.908,68.849c-5.707,1.31-10.48,6.327-10.48,12.189v10.537
			c0,5.856,4.753,10.604,10.604,10.604h100.875c5.856,0,10.413-4.919,12.66-10.33c2.745-6.639,8.062-11.951,14.701-14.706
			c5.411-2.247,10.33-4.701,10.33-7.974c0-3.278-4.748-5.935-10.604-5.935h-33.958c-9.477,0-17.182-7.71-17.182-17.187v-89.123
			c0-9.476,7.705-17.184,17.182-17.184h33.958c5.856,0,10.604-3.319,10.604-7.417c0-4.102-4.919-7.224-10.33-9.466
			c-6.644-2.747-11.956-8.065-14.711-14.703C281.669,57.229,277.112,52.307,271.256,52.307z"/>
		<path d="M170.205,212.445c25.522-6.928,44.355-30.271,44.355-57.964c0-27.689-18.833-51.038-44.355-57.966
			c-5.649-1.533-10.429,2.889-10.429,8.748v98.431C159.776,209.557,164.55,213.979,170.205,212.445z"/>
		<path d="M138.742,96.521c-25.525,6.928-44.353,30.276-44.353,57.961c0,27.693,18.833,51.036,44.353,57.97
			c5.655,1.532,10.432-2.89,10.432-8.746v-98.437C149.174,99.41,144.402,94.988,138.742,96.521z"/>
		<path d="M299.067,243.483c-1.248,0.932-2.361,2.04-3.299,3.293c-3.516,4.682,0.389,9.88,4.945,9.88
			c4.547,0,8.244-3.687,8.244-8.238C308.947,243.866,303.743,239.952,299.067,243.483z"/>
		<path d="M10.33,231.615c6.639,2.755,11.957,8.077,14.703,14.706c2.237,5.416,6.792,10.33,12.653,10.33h100.877
			c5.854,0,10.604-4.748,10.604-10.604v-10.538c0-5.856-4.766-10.879-10.478-12.189c-31.405-7.177-54.911-35.294-54.911-68.848
			c0-33.552,23.511-61.659,54.911-68.844c5.707-1.31,10.478-6.325,10.478-12.184V62.901c0-5.854-4.75-10.604-10.604-10.604H37.691
			c-5.859,0-10.416,4.922-12.653,10.335c-2.752,6.633-8.065,11.951-14.698,14.698C4.932,79.572,0.005,82.7,0.005,86.796
			c0,4.099,4.751,7.418,10.605,7.418h32.467c9.476,0,17.186,7.707,17.186,17.184v89.118c0,9.476-7.71,17.181-17.186,17.181H10.604
			C4.751,217.696,0,220.348,0,223.63C0,226.913,4.922,229.378,10.33,231.615z"/>
		<path d="M8.241,256.656c4.549,0,8.458-5.198,4.943-9.88c-0.94-1.253-2.053-2.361-3.299-3.304c-4.684-3.521-9.88,0.389-9.88,4.94
			C0,252.97,3.692,256.656,8.241,256.656z"/>
		<path d="M9.885,65.485c1.246-0.939,2.354-2.048,3.293-3.293c3.521-4.684-0.383-9.885-4.938-9.885S0,55.999,0,60.548
			S5.201,69.004,9.885,65.485z"/>
		<path d="M299.062,65.485c4.681,3.519,9.885-0.389,9.885-4.938s-3.687-8.241-8.243-8.241c-4.547,0-8.456,5.202-4.94,9.885
			C296.701,63.438,297.814,64.546,299.062,65.485z"/>
		<path d="M14.222,189.144h-3.617C4.751,189.144,0,193.162,0,198.123s4.751,8.984,10.604,8.984h32.467
			c3.633,0,6.582-2.957,6.582-6.582v-89.118c0-3.624-2.954-6.578-6.582-6.578H10.604C4.751,104.829,0,108.27,0,112.521
			c0,4.249,4.751,7.69,10.604,7.69h3.617c5.854,0,10.604,4.75,10.604,10.605v47.724C24.826,184.391,20.075,189.144,14.222,189.144z"
			/>
		<path d="M295.226,120.014h3.117c5.861,0,10.604-3.397,10.604-7.591c0-4.194-4.743-7.593-10.604-7.593H264.39
			c-3.63,0-6.576,2.954-6.576,6.578v89.118c0,3.636,2.957,6.582,6.576,6.582h33.953c5.861,0,10.604-4.065,10.604-9.077
			c0-5.013-4.743-9.083-10.604-9.083h-3.117c-5.862,0-10.605-4.748-10.605-10.604v-47.719
			C284.62,124.765,289.369,120.014,295.226,120.014z"/>
	</g>
</g>
<g>
</g>
<g>
</g>
<g>
</g>
<g>
</g>
<g>
</g>
<g>
</g>
<g>
</g>
<g>
</g>
<g>
</g>
<g>
</g>
<g>
</g>
<g>
</g>
<g>
</g>
<g>
</g>
<g>
</g>
</svg>
