<?xml version="1.0" encoding="iso-8859-1"?>
<!-- Generator: Adobe Illustrator 16.0.0, SVG Export Plug-In . SVG Version: 6.00 Build 0)  -->
<!DOCTYPE svg PUBLIC "-//W3C//DTD SVG 1.1//EN" "http://www.w3.org/Graphics/SVG/1.1/DTD/svg11.dtd">
<svg version="1.1" id="Capa_1" xmlns="http://www.w3.org/2000/svg" xmlns:xlink="http://www.w3.org/1999/xlink" x="0px" y="0px"
	 width="325.642px" height="325.642px" viewBox="0 0 325.642 325.642" style="enable-background:new 0 0 325.642 325.642;"
	 xml:space="preserve">
<g>
	<g>
		<path d="M158.909,0c40.125,0,72.659,32.531,72.659,72.659s-32.534,72.66-72.659,72.66c-40.128,0-72.659-32.532-72.659-72.66
			S118.781,0,158.909,0z"/>
		<path d="M320.109,173.612v-4.06v-4.055l-10.745-2.667v0.005l-24.964-6.204v0.005l-23.26-5.774
			c-4.66-1.188-9.615-1.856-14.861-2.242v-0.16l-5.022-0.243c-0.771-0.062-1.543-0.122-2.537-0.138l-17.409-0.028v-0.01h-7.871
			h-1.895l-0.72,3.014c-4.696,19.521-20.475,34.658-40.198,38.556c-8.336,1.642-14.519,1.466-23.198-0.839
			c-18.447-4.878-32.643-19.33-37.06-37.717l-0.72-3.014h-5.276H96.5H84.064l-1.31,0.065c-1.08,0-2.183,0.049-3.35,0.121v-0.031
			l-4.27,0.36l-3.604,0.308v0.052c-4.002,0.461-7.539,1.087-10.897,1.947l-27.222,6.76v-0.005l-24.964,6.204v-0.005l-7.871,1.944
			v0.011v4.055v4.055v81.907v4.008v3.387v0.538c1-0.052,1.978,0,2.923,0.259l0.021,0.005c3.521,0.969,5.616,4.034,5.616,8.229
			v48.073h3.94h3.933v-48.073c0-6.607-3.275-12.106-8.557-14.737v-85.553l17.083-4.241v152.604h3.94h3.936h38.119h3.938h3.94
			v-164.19c1.158-0.072,2.328-0.132,3.547-0.132c0.005,0,0.005,0,0.015,0l13.533-0.062v164.375h3.933h3.941h38.113h3.941h3.933
			V197.509c6.061,1.165,11.257,1.32,17.096,0.586v122.188h3.933h3.94h38.116h3.936h0.56c8.808,3.412,18.341,5.359,28.345,5.359
			c43.434,0,78.774-35.341,78.774-78.78c0-9.584-1.807-18.734-4.955-27.247V173.612z M221.321,155.908l16.818,0.016l0.27,0.016
			v12.546c-5.919,0.591-11.625,1.885-17.088,3.719V155.908z M306.49,264.934c-0.279,0.911-0.605,1.802-0.921,2.692
			c-2.714,7.757-6.897,14.81-12.231,20.848c-8.378,9.455-19.531,16.357-32.218,19.433c-4.764,1.155-9.714,1.833-14.83,1.833
			c-1.336,0-2.631-0.119-3.936-0.196c-1.325-0.083-2.641-0.182-3.945-0.347c-5.997-0.751-11.744-2.314-17.088-4.63
			c-1.347-0.579-2.651-1.227-3.936-1.895c-1.347-0.699-2.651-1.471-3.946-2.258c-17.988-11.061-30.022-30.872-30.022-53.542
			c0-22.665,12.034-42.471,30.022-53.537c1.295-0.792,2.6-1.559,3.946-2.257c1.284-0.668,2.589-1.315,3.936-1.891
			c5.344-2.319,11.091-3.884,17.088-4.64c1.305-0.16,2.62-0.264,3.945-0.342c1.305-0.082,2.61-0.196,3.936-0.196
			c14.354,0,27.532,4.862,38.116,12.956c1.356,1.035,2.666,2.133,3.93,3.272c1.373,1.237,2.688,2.526,3.946,3.878
			c10.438,11.227,16.875,26.228,16.875,42.767C309.157,253.147,308.21,259.206,306.49,264.934z M309.364,199.876
			c-4.815-6.442-10.568-12.123-17.082-16.84v-16.332l17.082,4.241V199.876z"/>
		<path d="M278.229,214.923c-3.873-3.873-10.149-3.873-14.022,0l-17.916,17.916l-3.936-3.935l-3.945-3.936l-10.035-10.046
			c-1.947-1.947-4.505-2.91-7.053-2.899c-1.347,0.005-2.683,0.3-3.936,0.849c-1.108,0.482-2.144,1.15-3.04,2.051
			c-0.347,0.342-0.621,0.726-0.906,1.104c-2.619,3.505-2.619,8.311,0,11.821c0.285,0.373,0.56,0.756,0.906,1.098l3.04,3.04
			l3.936,3.936l10.941,10.94l-10.941,10.947l-3.936,3.935l-3.04,3.035c-0.347,0.347-0.621,0.729-0.906,1.107
			c-2.619,3.501-2.619,8.312,0,11.816c0.285,0.379,0.56,0.757,0.906,1.104c0.901,0.9,1.942,1.568,3.04,2.056
			c1.248,0.544,2.589,0.839,3.936,0.844c2.548,0.011,5.105-0.952,7.053-2.899l10.035-10.041l3.945-3.94l3.936-3.935l17.916,17.916
			c3.868,3.868,10.149,3.868,14.022,0s3.873-10.149,0-14.027l-17.916-17.917l17.916-17.916
			C282.102,225.072,282.102,218.796,278.229,214.923z"/>
	</g>
</g>
<g>
</g>
<g>
</g>
<g>
</g>
<g>
</g>
<g>
</g>
<g>
</g>
<g>
</g>
<g>
</g>
<g>
</g>
<g>
</g>
<g>
</g>
<g>
</g>
<g>
</g>
<g>
</g>
<g>
</g>
</svg>
