<?xml version="1.0" encoding="iso-8859-1"?>
<!-- Generator: Adobe Illustrator 16.0.0, SVG Export Plug-In . SVG Version: 6.00 Build 0)  -->
<!DOCTYPE svg PUBLIC "-//W3C//DTD SVG 1.1//EN" "http://www.w3.org/Graphics/SVG/1.1/DTD/svg11.dtd">
<svg version="1.1" id="Capa_1" xmlns="http://www.w3.org/2000/svg" xmlns:xlink="http://www.w3.org/1999/xlink" x="0px" y="0px"
	 width="279.262px" height="279.261px" viewBox="0 0 279.262 279.261" style="enable-background:new 0 0 279.262 279.261;"
	 xml:space="preserve">
<g>
	<g>
		<path d="M162.699,20.956c-1.652,0-2.33,1.533-2.434,2.566h4.67C164.936,22.561,164.521,20.956,162.699,20.956z"/>
		<path d="M53.907,279.261h171.448V0H53.907V279.261z M87.375,266.217H77.1V238.38h10.276V266.217z M93.675,266.217h-2.323V238.38
			h2.323V266.217z M102.625,266.217h-5.303V238.38h5.303V266.217z M108.256,266.217h-2.322V238.38h2.322V266.217z M206.236,90.576
			c0,10.615-8.605,19.221-19.221,19.221s-19.222-8.606-19.222-19.221s8.606-19.221,19.222-19.221S206.236,79.96,206.236,90.576z
			 M169.813,18.624h1.688v-2.367l3.868-1.064v3.431h2.821v2.904h-2.821v4.591c0,1.533,0.388,2.234,1.553,2.234
			c0.555,0,0.803-0.023,1.171-0.106l0.025,2.98c-0.492,0.179-1.449,0.344-2.547,0.344c-1.27,0-2.331-0.445-2.978-1.092
			c-0.73-0.753-1.093-1.968-1.093-3.759v-5.196h-1.688V18.624z M162.938,18.336c4.096,0,5.648,3.192,5.648,6.33
			c0,0.676-0.077,1.274-0.118,1.553h-8.182c0.108,1.639,1.739,2.413,3.583,2.413c1.352,0,2.439-0.179,3.5-0.546l0.523,2.677
			c-1.3,0.544-2.879,0.803-4.593,0.803c-4.309,0-6.773-2.499-6.773-6.465C156.526,21.888,158.525,18.336,162.938,18.336z
			 M143.537,12.886h3.948v11.082h0.052c0.285-0.547,0.601-1.062,0.912-1.528l2.568-3.816h4.748l-4.541,5.137l5.188,7.552h-4.857
			l-3.086-5.214l-0.994,1.248v3.966h-3.943V12.886H143.537z M149.075,79.531c-3.174-1.056-4.381-2.763-4.345-4.564
			c0-2.853,2.419-4.994,6.178-4.994c1.766,0,3.319,0.432,4.251,0.901l-0.808,3.259c-0.684-0.37-2.02-0.87-3.288-0.87
			c-1.154,0-1.797,0.469-1.797,1.214c0,0.743,0.591,1.113,2.444,1.766c2.895,0.997,4.075,2.488,4.102,4.689
			c0,2.856-2.206,4.94-6.546,4.94c-1.988,0-3.759-0.466-4.908-1.085l0.833-3.353c0.87,0.53,2.678,1.113,4.075,1.113
			c1.425,0,2.01-0.466,2.01-1.235C151.276,80.492,150.81,80.119,149.075,79.531z M132.764,70.342l2.05,7.047
			c0.373,1.302,0.622,2.486,0.87,3.695h0.091c0.249-1.24,0.5-2.393,0.839-3.695l1.954-7.047h4.969l-5.646,15.18h-4.717l-5.533-15.18
			H132.764z M124.715,31.307V18.624h3.946v12.688h-3.946V31.307z M138.375,18.336c1.038,0,2.177,0.176,3.006,0.492l-0.621,2.928
			c-0.467-0.207-1.171-0.386-2.207-0.386c-2.079,0-3.425,1.473-3.405,3.557c0,2.312,1.562,3.553,3.48,3.553
			c0.932,0,1.659-0.15,2.257-0.415l0.469,2.905c-0.701,0.337-2.027,0.601-3.531,0.601c-4.093,0-6.724-2.519-6.724-6.49
			C131.104,21.37,133.649,18.336,138.375,18.336z M126.714,13.119c1.273,0,2.053,0.86,2.079,1.973c0,1.09-0.8,1.97-2.125,1.97
			c-1.248,0-2.053-0.88-2.053-1.97C124.614,13.979,125.442,13.119,126.714,13.119z M109.895,13.818h13.442v3.319h-4.774v14.17
			h-3.943v-14.17h-4.725V13.818z M99.528,42.191c10.615,0,19.221,8.606,19.221,19.221s-8.606,19.221-19.221,19.221
			s-19.221-8.606-19.221-19.221S88.913,42.191,99.528,42.191z M67.825,135.646H215.63v12.593H67.825V135.646z M67.825,162.821
			H215.63v12.594H67.825V162.821z M67.825,188.67H215.63v12.593H67.825V188.67z M67.825,215.845H215.63v12.593H67.825V215.845z
			 M67.825,238.38h5.303v27.837h-5.303V238.38z"/>
	</g>
</g>
<g>
</g>
<g>
</g>
<g>
</g>
<g>
</g>
<g>
</g>
<g>
</g>
<g>
</g>
<g>
</g>
<g>
</g>
<g>
</g>
<g>
</g>
<g>
</g>
<g>
</g>
<g>
</g>
<g>
</g>
</svg>
