<?xml version="1.0" encoding="iso-8859-1"?>
<!-- Generator: Adobe Illustrator 16.0.0, SVG Export Plug-In . SVG Version: 6.00 Build 0)  -->
<!DOCTYPE svg PUBLIC "-//W3C//DTD SVG 1.1//EN" "http://www.w3.org/Graphics/SVG/1.1/DTD/svg11.dtd">
<svg version="1.1" id="Capa_1" xmlns="http://www.w3.org/2000/svg" xmlns:xlink="http://www.w3.org/1999/xlink" x="0px" y="0px"
	 width="442.157px" height="442.157px" viewBox="0 0 442.157 442.157" style="enable-background:new 0 0 442.157 442.157;"
	 xml:space="preserve">
<g>
	<g>
		<path d="M408.295,347.242c0.2-77.287-67.021-242.175-85.37-285.739c-2.609,0.306-5.214,0.583-7.839,0.855
			c17.81,40.493,79.824,188.445,82.261,288.939C401.198,349.915,404.86,348.561,408.295,347.242z"/>
		<path d="M102.909,61.396c-6.374-0.637-9.955-1.07-9.955-1.07C16.761,246.235,0,342.525,0,342.525
			c3.296,0,9.866,1.242,18.418,3.222C19.047,266.981,82.421,110.073,102.909,61.396z"/>
		<path d="M39.057,350.881c2.591-99.921,63.792-246.48,81.95-287.871c-2.811-0.219-5.448-0.453-7.889-0.667
			c-18.891,44.899-85.719,209.292-85.013,285.75C31.581,348.966,35.199,349.879,39.057,350.881z"/>
		<path d="M195.12,377.47c0-11.132,12.562-54.2,12.562-54.2c13.401,40.194,30.154,53.596,30.154,53.596
			c56.897,3.578,111.398-9.378,149.785-22.205c-1.174-100.062-67.305-256.147-82.765-291.294
			c-66.776,6.091-133.285,3.342-173.512,0.437c-15.755,35.879-80.88,189.994-82.555,289.647c30.118,8.026,67.176,18.47,92.728,24.02
			C186.752,387.28,195.12,377.47,195.12,377.47z M348.376,318.621l16.743,15.08l-38.516,15.072L348.376,318.621z M308.294,81.868
			l-11.727,21.202l-4.264-2.36l11.73-21.206L308.294,81.868z M297.931,81.868l-11.722,21.202l-4.272-2.36l11.722-21.206
			L297.931,81.868z M287.56,81.868l-11.723,21.202l-4.264-2.36l11.714-21.206L287.56,81.868z M277.184,81.868L265.47,103.07
			l-4.26-2.36l11.714-21.206L277.184,81.868z M266.829,81.868l-11.73,21.202l-4.264-2.36l11.722-21.206L266.829,81.868z
			 M256.462,81.868l-11.723,21.202l-4.268-2.36l11.722-21.206L256.462,81.868z M246.09,81.868l-11.713,21.202l-4.28-2.36
			l11.729-21.206L246.09,81.868z M235.728,81.868l-11.725,21.202l-4.262-2.36l11.722-21.206L235.728,81.868z M221.09,79.504
			l4.271,2.364l-11.722,21.202l-4.27-2.36L221.09,79.504z M214.999,81.868l-11.722,21.202l-4.27-2.36l11.73-21.206L214.999,81.868z
			 M204.619,81.868l-11.717,21.202l-4.264-2.36l11.72-21.206L204.619,81.868z M194.266,81.868l-11.722,21.202l-4.272-2.36
			l11.724-21.206L194.266,81.868z M183.897,81.868l-11.722,21.202l-4.27-2.36l11.726-21.206L183.897,81.868z M173.524,81.868
			l-11.722,21.202l-4.262-2.36l11.722-21.206L173.524,81.868z M161.802,81.868l-11.718,21.202l-4.262-2.36l11.718-21.206
			L161.802,81.868z M122.371,100.717l11.722-21.205l4.27,2.364l-11.722,21.206L122.371,100.717z M134.093,100.717l11.729-21.205
			l4.262,2.364l-11.722,21.206L134.093,100.717z"/>
		<path d="M442.157,332.483c-11.722-16.752-41.035-137.343-51.078-163.301c-8.816-22.754-47.212-89.253-56.549-105.313
			c21.312,50.862,81.6,201.365,83.395,279.53C433.241,337.119,442.157,332.483,442.157,332.483z"/>
	</g>
</g>
<g>
</g>
<g>
</g>
<g>
</g>
<g>
</g>
<g>
</g>
<g>
</g>
<g>
</g>
<g>
</g>
<g>
</g>
<g>
</g>
<g>
</g>
<g>
</g>
<g>
</g>
<g>
</g>
<g>
</g>
</svg>
