<?xml version="1.0" encoding="iso-8859-1"?>
<!-- Generator: Adobe Illustrator 16.0.0, SVG Export Plug-In . SVG Version: 6.00 Build 0)  -->
<!DOCTYPE svg PUBLIC "-//W3C//DTD SVG 1.1//EN" "http://www.w3.org/Graphics/SVG/1.1/DTD/svg11.dtd">
<svg version="1.1" id="Capa_1" xmlns="http://www.w3.org/2000/svg" xmlns:xlink="http://www.w3.org/1999/xlink" x="0px" y="0px"
	 width="463.693px" height="463.693px" viewBox="0 0 463.693 463.693" style="enable-background:new 0 0 463.693 463.693;"
	 xml:space="preserve">
<g>
	<g>
		<path d="M292.852,205.651c2.232-3.244,4.4-6.494,6.576-9.65c0.693-1.004,4.761-1.459,3.76-0.014
			c-3.066,4.434-6.136,9.027-9.354,13.527c4.016,11.822,13.26,20.395,24.285,21.641v-40.86c-1.371,0.942-3.174,1.46-4.637,1.775
			c-2.83,0.609-0.942-1.319,0.713-1.683c4.115-0.894,0.293-6.027-1.387-7.292c-0.989-0.747-2.553-1.931-3.871-1.781
			c1.059-0.12-0.016,0.95-0.14,1.617c-0.229,1.208-0.185,2.368-0.076,3.589c0.1,1.214-4.004,1.992-4.08,1.098
			c-0.288-3.376,0.185-6.304,3.61-7.608c2.501-0.95,5.314-0.455,7.498,1.028c0.762,0.525,1.611,1.265,2.369,2.088v-21.416
			c-14.779,1.663-26.417,16.51-26.417,34.732C291.702,199.644,292.179,202.697,292.852,205.651z"/>
		<path d="M307.402,141.506c3.25-3.819,0.405-7.392-3.694-8.576c-0.16-0.046-0.229-0.11-0.337-0.165
			C303.399,135.617,303.977,145.516,307.402,141.506z"/>
		<path d="M236.267,273.276c0.129-0.798,0.068-1.627-0.236-2.377c-0.581-1.351-1.427-2.039-2.362-2.4l-0.008,4.637
			c0.042,0.017,0.103,0.008,0.143,0.032C235.201,273.813,236.03,274.687,236.267,273.276z"/>
		<path d="M233.959,110.965c4.544,1.561,6.315,6.696,5.626,11.531c-0.244,1.744-4.392,2.342-4.111,0.357
			c0.349-2.442,0.124-5.639-1.522-7.648l-0.076,42.092c20.554,1.288,36.944,18.253,36.944,39.126
			c0,20.929-16.467,37.937-37.087,39.146l-0.057,30.437c2.996-0.276,5.725,0.673,6.57,4.248c1.042,4.508-2.929,5.902-6.586,5.534
			l-0.054,29.226h136.629V87.84H233.999L233.959,110.965z M261.602,247.292c-1.683-1.463-3.354-2.949-5.033-4.416
			c-0.316,0.77-0.593,1.559-0.913,2.332c-0.529,1.278-4.569,1.755-4.056,0.545c0.729-1.739,1.362-3.502,2.063-5.262
			c-1.679-1.362-3.346-2.741-5.169-3.923c-1.992-1.303,1.494-3.511,3.113-2.453c1.242,0.813,2.336,1.779,3.494,2.669
			c0.613-1.587,1.274-3.161,1.872-4.757c0.484-1.286,4.54-1.799,4.056-0.532c-0.942,2.528-1.972,5.029-2.954,7.542
			c2.24,1.899,4.433,3.871,6.648,5.803C266.555,246.427,263.085,248.574,261.602,247.292z M318.119,129.546h51.939v4.32h-47.616
			v125.128h47.616v4.315h-51.939v-27.831c-12.019-1.162-22.153-9.812-27.23-21.933c-6.793,9.005-14.495,17.228-24.702,22.301
			c-1.227,0.613-4.921,0.192-2.473-1.025c10.893-5.431,18.819-14.698,25.88-24.548c-1.395-4.31-2.2-8.958-2.2-13.85
			c0-20.622,13.577-37.405,30.741-39.053v-27.825H318.119z M359.543,157.171c0.497,0.207,1.034,0.373,1.563,0.511
			c-0.2-1.23-1.387-2.46-2.08-3.274c-0.833-0.961,3.021-2.384,3.804-1.48c1.61,1.859,3.818,4.466,0.981,6.175
			c-2.06,1.242-5.046,0.882-7.153,0c-1.463-0.609-4.568-2.038-4.115-4.111c0.612-2.817,5.281-3.573,7.529-4.026
			c2.821-0.575,1.078,1.499-0.661,1.852C355.456,153.618,356.514,155.911,359.543,157.171z M303.079,131.507
			c0.577-0.773,2.04-1.479,3.005-1.206c3.219,0.928,6.709,2.889,6.869,6.65c0.108,2.615-1.334,5.312-3.479,6.814
			c-2.208,1.531-5.201,2.236-7.506,0.519c-3.342-2.473-2.922-8.332-2.709-11.902C299.344,130.868,302.365,130.301,303.079,131.507z
			 M255.539,116.459c15.48-0.289,30.228,3.586,44.121,10.283c0.489,0.238-2.745,1.925-3.835,1.4
			c-13.545-6.532-27.804-10.277-42.915-9.995C250.918,118.188,254.689,116.485,255.539,116.459z M245.536,110.204
			c0.421,1.114,1.058,2.027,1.64,2.981c1.21-1.208,5.153-0.697,3.374,1.084c-0.493,0.495-0.942,1.012-1.411,1.515
			c0.857,0.912,1.703,1.839,2.821,2.577c0.813,0.533-2.761,2.164-3.803,1.475c-0.513-0.329-0.821-0.802-1.274-1.168
			c-0.289,0.405-0.613,0.778-0.857,1.227c-0.826,1.471-4.953,1.553-3.863-0.387c0.645-1.146,1.379-2.182,2.176-3.17
			c-1.194-1.477-2.16-3.132-2.873-5.034C241.072,110.276,245.083,109.026,245.536,110.204z"/>
		<path d="M266.495,196.424c0-18.504-14.442-33.544-32.629-34.816l-0.126,69.639C251.984,230.052,266.495,214.976,266.495,196.424z"
			/>
		<path d="M196.385,196.424c0,18.645,14.667,33.788,33.035,34.854l0.126-69.725C211.112,162.565,196.385,177.741,196.385,196.424z"
			/>
		<path d="M142.99,161.701v69.461c14.779-1.671,26.433-16.509,26.433-34.729C169.423,178.212,157.77,163.366,142.99,161.701z"/>
		<path d="M229.635,116.428l0.008-2.691C229.134,114.27,229.256,115.355,229.635,116.428z"/>
		<path d="M92.645,129.546h50.345v11.872c1.066-0.699,4.959-0.722,3.17,0.619c-1.356,1.02-2.354,2.262-3.17,3.619v3.635
			c1.437,1.21,2.809,2.515,4.001,4.067c1.31,1.701-2.541,3.334-3.719,1.813c-0.088-0.121-0.198-0.205-0.29-0.315v2.521
			c17.162,1.649,30.741,18.43,30.741,39.056c0,20.616-13.579,37.397-30.741,39.053v21.183c9.333,2.501,17.955,6.901,27.311,9.27
			c15.851,4.023,32.069,5.679,48.383,4.745c2.713-0.16-0.331,1.987-1.649,2.056c-13.12,0.766-26.23-0.024-39.145-2.545
			c-12.09-2.364-23.155-7.546-34.9-10.84v3.963H92.637v41.697h136.646l0.062-35.649c-0.118,0.076-0.234,0.1-0.353,0.184
			c-0.906,0.674-4.996,0.866-3.212-0.461c0.934-0.688,2.192-1.395,3.565-1.955l0.054-31.53c-9.396-0.489-17.837-4.376-24.369-10.303
			c1.078,1.874,1.657,4.08-0.383,5.542c-2.347,1.687-5.604,2.124-8.418,1.555c-2.204-0.445-5.814-1.515-6.372-4.132
			c-0.708-3.296,2.946-5.61,5.306-7.071c1.138-0.709,4.772-0.533,2.442,0.9c-4.083,2.531-5.184,6.564,0.194,8.095
			c5.079,1.458,4.639-2.116,2.052-5.414c-0.621-0.793,1.302-1.729,2.675-1.799c-6.47-6.979-10.471-16.266-10.471-26.533
			c0-21.063,16.673-38.179,37.483-39.183l0.074-37.101c-0.99,0.547-2.405,0.659-2.906-0.172c-2.426-4.01-1.564-8.586,2.92-9.366
			l0.04-22.764H92.645V129.546z M196.662,169.506c-2.825,0.565-1.084-1.505,0.659-1.852c5.504-1.1-1.311-5.937-3.392-6.895
			c-0.982-0.445-2-0.87-3.052-1.124c-0.214-0.046-0.433-0.068-0.651-0.106c-0.353,2.016,1.679,4.51,2.715,5.911
			c0.794,1.072-3.124,2.402-3.807,1.475c-1.507-2.044-5.147-6.667-1.515-8.54c2.913-1.499,6.293-0.905,9.163,0.413
			c2.196,0.998,6.538,3.085,6.756,5.955C203.799,168.045,199.05,169.027,196.662,169.506z M218.652,115.809
			c2.543-0.573,3.374,2.424,0.81,2.999c-24.816,5.537-49.266,15.004-69.972,29.928c-1.727,1.236-4.987-0.435-2.747-2.052
			C168.024,131.347,193.139,121.499,218.652,115.809z"/>
		<path d="M138.674,258.172c-0.465-0.116-0.906-0.276-1.376-0.368c-1.671-0.361-0.024-1.447,1.376-1.872v-97.623
			c-0.688,1.204-4.32,1.691-3.919,0.403c0.926-2.959,1.577-6.075,2.597-8.989c-1.623-1.138-3.336-2.184-5.104-3.196
			c-2.016-1.154,1.519-3.32,3.118-2.4c1.13,0.643,2.238,1.304,3.308,1.985v-12.247H92.645v125.128h46.029V258.172z M105.543,194.157
			c-0.156-0.958,3.941-1.855,4.075-1.092c0.697,4.254,4.105,6.328,6.667,1.932c2.18-3.753-0.709-5.521-3.911-6.202
			c-0.134,0.287-0.291,0.571-0.409,0.87c-0.415,1.004-4.256,1.351-4.003,0.739c0.872-2.112,1.583-3.292,4.083-3.532
			c2.096-0.205,4.929,0.194,6.78,1.256c2.897,1.663,2.779,4.466,0.882,6.931C115.976,199.888,106.801,201.777,105.543,194.157z
			 M132.487,245.316c-1.311,1.522-2.687,2.974-4.03,4.46c1.493,1.034,2.787,2.316,3.807,4.104c0.599,1.026-3.304,2.413-4.063,1.086
			c-0.551-0.957-1.218-1.715-1.932-2.444c-0.847,1.05-1.751,2.048-2.464,3.206c-0.786,1.286-4.907,1.522-3.825-0.225
			c1.054-1.715,2.334-3.233,3.627-4.736c-0.415-0.192-0.706-0.489-1.178-0.638c-2.269-0.648,1.272-2.504,2.506-2.14
			c0.281,0.08,0.445,0.269,0.713,0.368c1.184-1.302,2.376-2.576,3.522-3.906C130.179,243.269,134.112,243.437,132.487,245.316z"/>
		<path d="M220.189,415.287c-19.43,2.413-59.835,9.995-88.496,32.905l10.78,13.493c24.195-19.352,59.41-26.438,77.716-28.934v30.941
			h23.339v-32.092c9.75,0.781,57.45,5.711,87.915,30.084l10.78-13.493c-35.979-28.766-90.416-33.366-98.695-33.903v-59.614h180.795
			v-16.406h-21.72V42.651h21.72V26.244H243.528V0h-23.339v26.244H39.37v16.407h18.043v295.618H39.37v16.406h180.819V415.287z
			 M88.337,309.331V83.521h286.206v225.811H88.337z"/>
	</g>
</g>
<g>
</g>
<g>
</g>
<g>
</g>
<g>
</g>
<g>
</g>
<g>
</g>
<g>
</g>
<g>
</g>
<g>
</g>
<g>
</g>
<g>
</g>
<g>
</g>
<g>
</g>
<g>
</g>
<g>
</g>
</svg>
