<?xml version="1.0" encoding="iso-8859-1"?>
<!-- Generator: Adobe Illustrator 16.0.0, SVG Export Plug-In . SVG Version: 6.00 Build 0)  -->
<!DOCTYPE svg PUBLIC "-//W3C//DTD SVG 1.1//EN" "http://www.w3.org/Graphics/SVG/1.1/DTD/svg11.dtd">
<svg version="1.1" id="Capa_1" xmlns="http://www.w3.org/2000/svg" xmlns:xlink="http://www.w3.org/1999/xlink" x="0px" y="0px"
	 width="395.384px" height="395.384px" viewBox="0 0 395.384 395.384" style="enable-background:new 0 0 395.384 395.384;"
	 xml:space="preserve">
<g>
	<g>
		<path d="M152.344,257.199c-3.33-3.49-5.362-7.37-5.362-11.521c0-0.617,0.269-1.183,0.345-1.779
			c-66.655,21.648-88.243,87.654-88.243,151.485h16.789C77.287,364.851,87.053,275.554,152.344,257.199z"/>
		<path d="M318.772,395.384h17.528c0-62.709-26.497-127.521-88.043-150.327c0.008,0.204,0.124,0.405,0.124,0.605
			c0,4.231-2.092,8.155-5.522,11.682C307.655,276.05,317.361,364.935,318.772,395.384z"/>
		<path d="M85.412,395.384h223.827c-1.398-30.221-11.281-118.896-77.155-130.526c-9.057,4.34-21.091,7.062-34.403,7.062
			c-13.401,0-25.507-2.754-34.572-7.146C96.747,276.034,86.808,365.095,85.412,395.384z M147.214,304.446
			c8.388,0,15.185,6.793,15.185,15.188c0,8.392-6.789,15.185-15.185,15.185c-8.381,0-15.178-6.793-15.178-15.185
			C132.044,311.239,138.833,304.446,147.214,304.446z"/>
		<path d="M190.324,96.431c4.33-0.167,11.365-0.172,15.699,0c17.793,0.713,60.436,6.907,71.268,49.079
			c13.79,53.677,37.289-4.905,27.475-40.233c-8.547-30.749-16.734-57.033-15.953-75.62c0.185-4.336-2.484-7.207-6.761-6.486
			l-31.157,5.244c-4.276,0.72-10.607-0.721-14.158-3.22L203.621,1.858c-3.539-2.499-9.269-2.477-12.788,0.062l-32.248,23.213
			c-3.521,2.527-9.836,4.002-14.114,3.282l-31.152-5.244c-4.28-0.721-6.955,2.15-6.767,6.486
			c0.786,18.587-7.414,44.877-15.954,75.62c-9.812,35.328,13.684,93.91,27.477,40.233
			C128.934,103.254,172.345,97.121,190.324,96.431z"/>
		<path d="M186.705,226.711c-10.952-2.164-18.945-9.51-18.945-14.72c0-5.818,6.375-6.9,15.012-4.616
			c1.214,0.32,2.615,0.513,3.933,0.773V105.496c-11.729,0.897-30.038,4.282-43.947,15.857V234.79h-0.024
			c12.818,8.647,27.805,14.274,43.971,16.037V226.711z M158.688,160.798c0-4.202,3.396-7.602,7.598-7.602
			c4.202,0,7.598,3.408,7.598,7.602c0,4.196-3.396,7.596-7.598,7.596C162.083,168.395,158.688,164.994,158.688,160.798z"/>
		<path d="M104.815,176.027L104.815,176.027c-0.839,0-1.781-0.088-2.793-0.307c3.43,14.781,10.261,28.22,19.514,39.597v-53.972
			C118.278,168.717,113.069,176.015,104.815,176.027z"/>
		<path d="M207.927,227.075v23.752c12.511-1.351,24.293-5.062,34.933-10.672V114.501c-12.447-6.601-26.072-8.602-34.933-9.139
			v103.071c2.107-0.312,4.115-0.673,5.847-1.105c8.143-1.96,13.846-0.674,13.846,5.758
			C227.611,218.912,219.127,225.484,207.927,227.075z M224.185,168.395c-4.199,0-7.606-3.406-7.606-7.596
			c0-4.202,3.407-7.602,7.606-7.602c4.204,0,7.59,3.408,7.59,7.602C231.774,164.994,228.389,168.395,224.185,168.395z"/>
		<path d="M290.8,176.027c-13.901,0-19.235-20.756-20.99-27.579c-1.367-5.306-3.343-9.924-5.743-14.014v90.658
			c13.906-13.017,24.041-30.021,28.533-49.215C291.971,175.963,291.357,176.027,290.8,176.027z"/>
	</g>
</g>
<g>
</g>
<g>
</g>
<g>
</g>
<g>
</g>
<g>
</g>
<g>
</g>
<g>
</g>
<g>
</g>
<g>
</g>
<g>
</g>
<g>
</g>
<g>
</g>
<g>
</g>
<g>
</g>
<g>
</g>
</svg>
