<?xml version="1.0" encoding="iso-8859-1"?>
<!-- Generator: Adobe Illustrator 16.0.0, SVG Export Plug-In . SVG Version: 6.00 Build 0)  -->
<!DOCTYPE svg PUBLIC "-//W3C//DTD SVG 1.1//EN" "http://www.w3.org/Graphics/SVG/1.1/DTD/svg11.dtd">
<svg version="1.1" id="Capa_1" xmlns="http://www.w3.org/2000/svg" xmlns:xlink="http://www.w3.org/1999/xlink" x="0px" y="0px"
	 width="304.769px" height="304.769px" viewBox="0 0 304.769 304.769" style="enable-background:new 0 0 304.769 304.769;"
	 xml:space="preserve">
<g>
	<g>
		<path d="M234.859,134.858c-16.398,0-31.463,5.719-43.385,15.21c-0.032-2.216-0.657-4.455-1.976-6.432l-25.567-38.233
			l-15.238,22.792l-6.632,9.921l-18.598-27.806L87.814,56.998l-12.72,19.017l-3.027,4.535l-8.502-12.708L47.101,43.206V30.098
			H23.552v31.4H0V85.05h23.552v23.552H0v23.549h23.552v23.552H0v23.551h23.552v23.552H0v23.552h23.552v31.398h23.549V85.575
			l24.966,37.339l15.747-23.552l54.247,81.118l21.871-32.713l5.987,8.949c2.268,3.402,6.007,5.217,9.81,5.217
			c-9.229,11.847-14.779,26.689-14.779,42.828c0,38.543,31.362,69.909,69.91,69.909c38.547,0,69.909-31.366,69.909-69.909
			C304.769,166.214,273.406,134.858,234.859,134.858z M277.277,223.412c-2.376-1.166-5.013-1.892-7.851-1.892
			c-9.842,0-17.833,7.979-17.833,17.829c0,2.829,0.722,5.466,1.896,7.843c-5.71,2.517-11.998,3.935-18.638,3.935
			c-6.641,0-12.925-1.418-18.643-3.935c1.162-2.377,1.891-5.014,1.891-7.843c0-9.851-7.994-17.829-17.824-17.829
			c-2.838,0-5.475,0.726-7.851,1.892c-2.513-5.719-3.924-12.006-3.924-18.643c0-6.641,1.411-12.928,3.924-18.646
			c2.376,1.166,5.013,1.896,7.851,1.896c9.846,0,17.824-7.983,17.824-17.833c0-2.829-0.729-5.467-1.891-7.843
			c5.718-2.517,12.002-3.936,18.643-3.936c6.64,0,12.928,1.419,18.638,3.936c-1.174,2.376-1.896,5.014-1.896,7.843
			c0,9.85,7.991,17.833,17.833,17.833c2.838,0,5.475-0.729,7.851-1.896c2.513,5.702,3.939,12.006,3.939,18.646
			C281.217,211.406,279.807,217.709,277.277,223.412z"/>
		<path d="M234.859,186.937c9.85,0,17.824,7.986,17.824,17.833c0,9.842-7.975,17.829-17.824,17.829
			c-9.851,0-17.825-7.987-17.825-17.829C217.034,194.923,225.009,186.937,234.859,186.937z"/>
	</g>
</g>
<g>
</g>
<g>
</g>
<g>
</g>
<g>
</g>
<g>
</g>
<g>
</g>
<g>
</g>
<g>
</g>
<g>
</g>
<g>
</g>
<g>
</g>
<g>
</g>
<g>
</g>
<g>
</g>
<g>
</g>
</svg>
