<?xml version="1.0" encoding="iso-8859-1"?>
<!-- Generator: Adobe Illustrator 16.0.0, SVG Export Plug-In . SVG Version: 6.00 Build 0)  -->
<!DOCTYPE svg PUBLIC "-//W3C//DTD SVG 1.1//EN" "http://www.w3.org/Graphics/SVG/1.1/DTD/svg11.dtd">
<svg version="1.1" id="Capa_1" xmlns="http://www.w3.org/2000/svg" xmlns:xlink="http://www.w3.org/1999/xlink" x="0px" y="0px"
	 width="377.472px" height="377.471px" viewBox="0 0 377.472 377.471" style="enable-background:new 0 0 377.472 377.471;"
	 xml:space="preserve">
<g>
	<g>
		<path d="M0,262.006h57.566V115.465H0V262.006z M8.181,158.808h41.214v7.851H8.181V158.808z M8.181,172.545h41.214v15.214H8.181
			V172.545z M8.181,193.648h41.214v3.435H8.181V193.648z M8.181,202.481h41.214v7.846H8.181V202.481z M8.181,215.236h41.214v3.435
			H8.181V215.236z"/>
		<path d="M287.497,155.944c-4.521,0-6.356,4.166-6.645,6.991h12.724C293.576,160.322,292.45,155.944,287.497,155.944z"/>
		<path d="M103.352,262.006h274.12V115.465h-274.12V262.006z M246.032,237.513c-2.301,0-4.356-0.537-5.69-1.258l0.966-3.88
			c1.021,0.609,3.105,1.291,4.725,1.291c1.654,0,2.344-0.537,2.344-1.443c0-0.934-0.537-1.37-2.561-2.056
			c-3.663-1.218-5.069-3.202-5.037-5.29c0-3.31,2.797-5.794,7.161-5.794c2.063,0,3.855,0.505,4.929,1.042l-0.934,3.787
			c-0.789-0.438-2.34-1.01-3.803-1.01c-1.334,0-2.1,0.536-2.1,1.41c0,0.873,0.681,1.294,2.841,2.056
			c3.351,1.15,4.717,2.873,4.745,5.426C253.634,235.101,251.073,237.513,246.032,237.513z M280.853,219.72
			c0-1.755,1.431-3.189,3.186-3.189c1.771,0,3.19,1.435,3.19,3.189c0,1.764-1.427,3.198-3.19,3.198
			C282.283,222.918,280.853,221.484,280.853,219.72z M297.167,248.738c-14.367,0-11.822-22.217-11.822-22.217l11.822-14.183
			l11.941,14.123C309.108,226.461,311.87,248.738,297.167,248.738z M287.236,211.216c0-1.763,1.435-3.193,3.19-3.193
			c1.771,0,3.182,1.431,3.182,3.193c0,1.756-1.427,3.19-3.182,3.19C288.671,214.407,287.236,212.972,287.236,211.216z
			 M310.98,222.734c-1.764,0-3.182-1.427-3.182-3.189c0-1.764,1.435-3.19,3.182-3.19c1.763,0,3.189,1.435,3.189,3.19
			C314.187,221.307,312.752,222.734,310.98,222.734z M306.9,149.584h4.601v-6.432l10.532-2.893v9.333h7.689v7.919h-7.689v12.509
			c0,4.166,1.058,6.076,4.231,6.076c1.482,0,2.188-0.074,3.182-0.285l0.072,8.127c-1.334,0.493-3.959,0.916-6.933,0.916
			c-3.45,0-6.355-1.2-8.127-2.968c-1.976-2.046-2.958-5.378-2.958-10.249v-14.134H306.9V149.584z M307.799,211.033
			c0,1.763-1.435,3.197-3.19,3.197c-1.755,0-3.182-1.435-3.182-3.197c0-1.756,1.427-3.187,3.182-3.187
			C306.364,207.846,307.799,209.277,307.799,211.033z M288.134,148.807c11.169,0,15.408,8.69,15.408,17.238
			c0,1.835-0.212,3.46-0.352,4.24h-22.262c0.276,4.448,4.736,6.568,9.75,6.568c3.671,0,6.648-0.485,9.546-1.483l1.41,7.28
			c-3.534,1.482-7.843,2.188-12.511,2.188c-11.73,0-18.454-6.781-18.454-17.591C270.67,158.485,276.12,148.807,288.134,148.807z
			 M235.312,133.961h10.747v30.178h0.141c0.781-1.486,1.623-2.897,2.477-4.169l6.997-10.385h12.932l-12.362,13.988l14.134,20.568
			h-13.225l-8.407-14.208l-2.686,3.398v10.81h-10.747V133.961z M230.407,231.971c0.288-1.442,0.564-2.77,0.966-4.284l2.268-8.175
			h5.759l-6.556,17.604h-5.466l-6.4-17.604h5.931l2.385,8.175c0.437,1.503,0.713,2.882,1.006,4.284H230.407z M221.222,148.807
			c2.83,0,5.947,0.487,8.203,1.34l-1.694,7.993c-1.267-0.563-3.183-1.07-6.012-1.07c-5.662,0-9.329,4.038-9.269,9.684
			c0,6.293,4.247,9.678,9.477,9.678c2.545,0,4.525-0.425,6.148-1.13l1.273,7.911c-1.903,0.919-5.506,1.625-9.613,1.625
			c-11.177,0-18.311-6.853-18.311-17.663C201.434,157.07,208.366,148.807,221.222,148.807z M189.479,134.604
			c3.462,0,5.583,2.331,5.659,5.37c0,2.967-2.19,5.378-5.793,5.378c-3.4,0-5.588-2.411-5.588-5.378
			C183.745,136.927,186.007,134.604,189.479,134.604z M194.777,149.584v34.556h-10.748v-34.556H194.777z M198.881,228.312
			c0,9.755-7.911,17.665-17.663,17.665c-9.75,0-17.663-7.91-17.663-17.665c0-9.75,7.913-17.66,17.663-17.66
			C190.97,210.652,198.881,218.562,198.881,228.312z M143.646,136.514h36.613v9.041h-13.006v38.585h-10.74v-38.585h-12.868V136.514z
			"/>
	</g>
</g>
<g>
</g>
<g>
</g>
<g>
</g>
<g>
</g>
<g>
</g>
<g>
</g>
<g>
</g>
<g>
</g>
<g>
</g>
<g>
</g>
<g>
</g>
<g>
</g>
<g>
</g>
<g>
</g>
<g>
</g>
</svg>
