<?xml version="1.0" encoding="iso-8859-1"?>
<!-- Generator: Adobe Illustrator 16.0.0, SVG Export Plug-In . SVG Version: 6.00 Build 0)  -->
<!DOCTYPE svg PUBLIC "-//W3C//DTD SVG 1.1//EN" "http://www.w3.org/Graphics/SVG/1.1/DTD/svg11.dtd">
<svg version="1.1" id="Capa_1" xmlns="http://www.w3.org/2000/svg" xmlns:xlink="http://www.w3.org/1999/xlink" x="0px" y="0px"
	 width="374.823px" height="374.823px" viewBox="0 0 374.823 374.823" style="enable-background:new 0 0 374.823 374.823;"
	 xml:space="preserve">
<g>
	<g>
		<path d="M51.845,352.61c4.294,35.417,45.083,20.926,50.445,8.047c5.37-12.893,24.157-52.069,43.477-66.015
			c19.32-13.954,10.736-30.052,10.736-30.052v-68.899c-34.699-32.513-28.355-118.153-28.054-121.937l7.827,0.629
			c-0.064,0.839-5.646,75.889,20.228,109.677V48.846h-1.95V0.008h-54.302v48.838h-2.779c0,0,5.368,163.688,1.066,210.386
			C94.246,305.918,47.549,317.18,51.845,352.61z"/>
		<path d="M218.316,264.59c0,0-8.576,16.098,10.743,30.052c19.32,13.945,38.095,53.134,43.477,66.015
			c5.358,12.879,46.15,27.354,50.442-8.047c4.288-35.43-42.403-46.691-46.695-93.394c-4.292-46.69,1.066-210.378,1.066-210.378
			h-2.777V0h-54.301v48.838h-1.955v135.215c25.868-33.789,20.293-108.838,20.233-109.678l7.826-0.629
			c0.309,3.791,6.641,89.432-28.06,121.932V264.59z"/>
	</g>
</g>
<g>
</g>
<g>
</g>
<g>
</g>
<g>
</g>
<g>
</g>
<g>
</g>
<g>
</g>
<g>
</g>
<g>
</g>
<g>
</g>
<g>
</g>
<g>
</g>
<g>
</g>
<g>
</g>
<g>
</g>
</svg>
