<?xml version="1.0" encoding="iso-8859-1"?>
<!-- Generator: Adobe Illustrator 16.0.0, SVG Export Plug-In . SVG Version: 6.00 Build 0)  -->
<!DOCTYPE svg PUBLIC "-//W3C//DTD SVG 1.1//EN" "http://www.w3.org/Graphics/SVG/1.1/DTD/svg11.dtd">
<svg version="1.1" id="Capa_1" xmlns="http://www.w3.org/2000/svg" xmlns:xlink="http://www.w3.org/1999/xlink" x="0px" y="0px"
	 width="422.435px" height="422.435px" viewBox="0 0 422.435 422.435" style="enable-background:new 0 0 422.435 422.435;"
	 xml:space="preserve">
<g>
	<g>
		<path d="M51.293,383.919l51.828-147.165c-2.943,1.655-5.691,3.663-8.045,6.3h-0.395c-0.797,0.946-1.457,1.996-2.188,2.99
			c-0.048,0.08-0.092,0.156-0.128,0.224c-1.852,2.613-3.537,5.435-4.661,8.592L33.388,403.2
			C38.647,403.175,47.414,394.928,51.293,383.919z"/>
		<path d="M303.252,95.904C301.545,76.231,289.246,0,200.654,0C110.979,0,99.472,78.137,98.003,96.647
			c13.77-6.67,48.766-20.652,100.887-20.652C253.139,75.995,288.312,88.969,303.252,95.904z"/>
		<path d="M137.617,133.583c12.113-14.351,34.526-32.053,64.183-32.995c30.349-0.966,51.352,20.131,63.602,33.452
			c6.428,6.987,14.567,6.772,19.368-1.423l16.803-28.757c-12.964-6.194-47.997-20.009-102.682-20.009
			c-51.798,0-86.685,14.601-98.713,20.524l18.127,28.579C123.384,140.956,131.496,140.829,137.617,133.583z"/>
		<path d="M316.568,293.332l9.109,0.95l-14.443-39.434c-1.105-3.174-2.793-5.959-4.677-8.588c-0.031-0.068-0.092-0.136-0.156-0.216
			c-0.705-0.994-1.378-2.068-2.2-2.99h-0.372c-2.096-2.36-4.473-4.308-7.033-5.87L316.568,293.332z"/>
		<path d="M117.572,233.128L63.015,388.043c-2.008,5.694-4.979,10.855-8.479,15.156h138.146V241.368H205.1V403.2h30.827
			c0,0,23.215-39.851,27.038-47.961c2.806-5.943,5.719-8.512,7.65-10.203c1.487-1.311,3.33-2.922,6.877-15.433
			c5.622-19.805,17.841-29.495,26.95-33.31l-22.25-63.165h-1.395h-16.515c1.022-2.017,1.647-4.265,1.647-6.692
			c0-7.498-5.542-13.646-12.739-14.708c23.628-17.404,38.976-45.36,38.976-76.96c0-0.345-0.048-0.682-0.048-1.034l-1.783,3.054
			c-3.835,6.556-9.814,10.309-16.415,10.309c-5.542,0-11.048-2.681-15.517-7.536c-14.062-15.302-31.694-30.949-55.811-30.949
			l-1.755,0.026c-30.541,0.974-51.039,21.448-58.434,30.206c-4.458,5.286-10.105,8.188-15.874,8.188h-0.006
			c-6.398,0-12.099-3.438-16.062-9.678l-4.608-7.275c-0.08,1.559-0.229,3.094-0.229,4.668c0,31.983,15.707,60.276,39.834,77.628
			c-5.849,2.023-10.075,7.514-10.075,14.062c0,2.412,0.629,4.66,1.649,6.684h-18.871h-0.591V233.128z"/>
		<path d="M310.474,302.188c-0.773,0.145-19.096,3.899-26.365,29.539c-4.184,14.731-6.761,16.987-9.245,19.171
			c-1.695,1.495-3.627,3.183-5.734,7.675c-3.956,8.379-16.274,29.983-21.388,38.884c-1.014,1.747-1.198,3.743-0.493,5.466
			c0.697,1.724,2.208,3.03,4.155,3.579l24.401,6.977l7.294,7.094c1.227,1.202,2.757,1.863,4.324,1.863
			c2.159,0,4.123-1.251,5.241-3.343l18.386-34.199l28.938,6.492c3.866,1.655,8.015,2.605,12.339,2.605
			c20.253,0,36.72-19.701,36.72-43.914c0-24.225-16.475-43.926-36.72-43.926c-0.613,0-1.215,0.076-1.828,0.104l-39.689-4.132
			L310.474,302.188z M328.987,383.956l-15.553-3.486l5.963-11.101C321.722,375.011,324.988,380,328.987,383.956z M316.801,333.542
			c-2.978,10.511-6.271,16.599-8.628,19.933c-1.547,2.184-5.326,3.226-7.963,2.745l-11.441-2.092
			c-2.637-0.477-3.218-2.408-1.671-4.581c4.733-6.644,6.681-14.555,7.47-19.508c0.429-2.637,2.665-4.464,5.307-4.047l13.385,2.115
			C315.896,328.521,317.534,330.965,316.801,333.542z"/>
		<polygon points="275.384,414.813 249.58,407.155 256.229,414.156 281.872,421.485 		"/>
	</g>
</g>
<g>
</g>
<g>
</g>
<g>
</g>
<g>
</g>
<g>
</g>
<g>
</g>
<g>
</g>
<g>
</g>
<g>
</g>
<g>
</g>
<g>
</g>
<g>
</g>
<g>
</g>
<g>
</g>
<g>
</g>
</svg>
