<?xml version="1.0" encoding="iso-8859-1"?>
<!-- Generator: Adobe Illustrator 16.0.0, SVG Export Plug-In . SVG Version: 6.00 Build 0)  -->
<!DOCTYPE svg PUBLIC "-//W3C//DTD SVG 1.1//EN" "http://www.w3.org/Graphics/SVG/1.1/DTD/svg11.dtd">
<svg version="1.1" id="Capa_1" xmlns="http://www.w3.org/2000/svg" xmlns:xlink="http://www.w3.org/1999/xlink" x="0px" y="0px"
	 width="461.217px" height="461.217px" viewBox="0 0 461.217 461.217" style="enable-background:new 0 0 461.217 461.217;"
	 xml:space="preserve">
<g>
	<g>
		<path d="M258.71,86.032c-9.053,1.162-17.581,1.956-27.243,2.128l-0.479,0.832c-0.038,0.223-3.454,20.434,7.051,28.427
			c4.188-6.785,8.127-12.351,10.957-15.475C255.849,94.378,258.71,86.032,258.71,86.032z"/>
		<path d="M225.392,173.406c6.672-0.862,14.502-12.906,16.727-26.108c0.966-5.685,0.913-12.125-1.351-16.172
			C231.077,148.896,222.979,169.292,225.392,173.406z"/>
		<path d="M351.213,78.286l-2.829-18.35c0,0-36.969,18.568-85.871,25.593c0.918,0.88,1.724,2.036,2.16,3.524
			c1.442,4.917-1.339,11.009-8.74,19.18c-3.134,3.462-6.645,8.458-10.135,14.176c5.458,5.354,7.53,14.784,5.55,26.449
			c-2.62,15.504-12.354,32.524-25.216,33.544c-0.331,0.034-0.643,0.05-0.958,0.05c-3.693,0-6.645-1.768-8.204-4.929
			c-4.539-9.257,5.573-33.043,16.272-51.986c-14.907-10.151-12.246-33.1-11.581-37.474c-60.077-1.583-111.645-28.116-111.645-28.116
			l-5.646,21.147c0,0-43.717,77.576-64.876,131.171C18.346,265.869,0,340.632,0,340.632s74.751,57.812,214.386,60.648l15.528-87.466
			l28.207,87.458c0,0,126.938-21.135,203.096-64.888c0,0-36.66-108.582-46.542-139.623
			C404.801,165.72,370.954,98.039,351.213,78.286z M86.637,351.978l-11.99-3.286l11.55-42.006l-0.157-0.045l-11.445,2.049
			l0.509-9.854l15.896-2.665l10.193,2.805L86.637,351.978z M150.994,329.5c-2.473,8.964-10.78,14.314-20.406,19.031l-6.009,2.74
			l-0.05,0.141l20.059,5.526l-2.803,10.203l-37.588-10.331l2.058-7.498l8.438-4.256c14.525-7.238,21.784-11.646,23.582-17.842
			c1.196-4.308-0.407-8.415-6.512-10.118c-4.562-1.242-9.197-0.061-12.531,1.21l-1.084-9.75c4.74-1.947,11.689-2.677,18.785-0.729
			C149.015,311.161,153.607,319.941,150.994,329.5z"/>
	</g>
</g>
<g>
</g>
<g>
</g>
<g>
</g>
<g>
</g>
<g>
</g>
<g>
</g>
<g>
</g>
<g>
</g>
<g>
</g>
<g>
</g>
<g>
</g>
<g>
</g>
<g>
</g>
<g>
</g>
<g>
</g>
</svg>
