<?xml version="1.0" encoding="iso-8859-1"?>
<!-- Generator: Adobe Illustrator 16.0.0, SVG Export Plug-In . SVG Version: 6.00 Build 0)  -->
<!DOCTYPE svg PUBLIC "-//W3C//DTD SVG 1.1//EN" "http://www.w3.org/Graphics/SVG/1.1/DTD/svg11.dtd">
<svg version="1.1" id="Capa_1" xmlns="http://www.w3.org/2000/svg" xmlns:xlink="http://www.w3.org/1999/xlink" x="0px" y="0px"
	 width="478.875px" height="478.875px" viewBox="0 0 478.875 478.875" style="enable-background:new 0 0 478.875 478.875;"
	 xml:space="preserve">
<g>
	<g>
		<path d="M336.892,235.711c16.278,0,29.463-13.187,29.463-29.459c0-8.704-3.848-16.446-9.851-21.84l-41.89,40.924
			C320.021,231.639,327.939,235.711,336.892,235.711z"/>
		<path d="M449.412,145.39c16.274,0,29.463,13.19,29.463,29.462s-13.188,29.46-29.463,29.46c-16.267,0-29.463-13.188-29.463-29.46
			S433.146,145.39,449.412,145.39z"/>
		<path d="M461.471,273.208L312.482,238.18l-7.774-3.154l-3.963-1.611l-3.964-1.609l13.469-13.156l39.63-38.712l49.684-48.54
			c0.966-0.942,1.796-1.97,2.484-3.05c4.148-6.524,3.435-15.28-2.199-21.049c-3.343-3.422-7.767-5.136-12.195-5.136
			c-4.296,0-8.596,1.617-11.905,4.853L262.077,218.028c-0.821,0.613-4.901,3.627-10.824,7.663c-1.555,1.058-3.218,2.174-4.985,3.336
			c-15.278,10.043-37.353,22.874-47.362,20.514c-0.078-0.016-0.134,0-0.204-0.016L24.07,170.68
			c-8.586-3.867-18.674-0.054-22.554,8.526c-3.877,8.582-0.062,18.679,8.524,22.554l196.811,88.873
			c0.28,0.661,0.565,1.318,0.848,1.979l-75.969,49.139l-47.951-7.91c-9.287-1.547-18.062,4.745-19.602,14.046
			c-1.529,9.281,4.749,18.062,14.038,19.592l54.457,9.001c0.928,0.156,1.855,0.232,2.779,0.232c3.266,0,6.486-0.954,9.265-2.745
			l77.562-50.185c0.172,0.353,0.298,0.581,0.298,0.581l79.191-53.68l151.901,35.71c1.311,0.309,2.621,0.461,3.915,0.461
			c7.738,0,14.735-5.306,16.583-13.156C476.322,284.529,470.64,275.36,461.471,273.208z"/>
	</g>
</g>
<g>
</g>
<g>
</g>
<g>
</g>
<g>
</g>
<g>
</g>
<g>
</g>
<g>
</g>
<g>
</g>
<g>
</g>
<g>
</g>
<g>
</g>
<g>
</g>
<g>
</g>
<g>
</g>
<g>
</g>
</svg>
