<?xml version="1.0" encoding="iso-8859-1"?>
<!-- Generator: Adobe Illustrator 16.0.0, SVG Export Plug-In . SVG Version: 6.00 Build 0)  -->
<!DOCTYPE svg PUBLIC "-//W3C//DTD SVG 1.1//EN" "http://www.w3.org/Graphics/SVG/1.1/DTD/svg11.dtd">
<svg version="1.1" id="Capa_1" xmlns="http://www.w3.org/2000/svg" xmlns:xlink="http://www.w3.org/1999/xlink" x="0px" y="0px"
	 width="478.289px" height="478.289px" viewBox="0 0 478.289 478.289" style="enable-background:new 0 0 478.289 478.289;"
	 xml:space="preserve">
<g>
	<g>
		<path d="M425.683,215.019h-19.717c-4.34,0-7.851,3.507-7.851,7.851v52.085c0,4.332,3.511,7.851,7.851,7.851h19.717
			c4.34,0,7.85-3.519,7.85-7.851V222.87C433.533,218.526,430.023,215.019,425.683,215.019z"/>
		<path d="M441.284,140.329v242.914c0,4.341-3.511,7.851-7.851,7.851H23.551c-4.344,0-7.851-3.51-7.851-7.851V114.559
			c0-4.336,3.507-7.851,7.851-7.851h244.203c2.079-3.025,4.464-5.843,6.688-7.64c4.937-4.005,15.24-4.601,20.942-4.601
			c2.192,0,4.433,0.086,6.668,0.272c2.124,0.181,4.541,0.315,7.102,0.411l2.016-4.144H7.851C3.506,91.007,0,94.522,0,98.858V398.96
			c0,4.319,3.506,7.847,7.851,7.847h441.284c4.332,0,7.851-3.527,7.851-7.847V134.396c-1.267,0.353-2.444,0.705-3.458,1.026
			C451.451,136.089,446.866,137.93,441.284,140.329z"/>
		<path d="M239.543,125.706v14.145c1.557-1.688,3.116-3.312,4.569-4.661l13.507-12.64c1.166-1.106,2.593-2.867,3.879-4.695h-14.097
			C243.054,117.855,239.543,121.37,239.543,125.706z"/>
		<path d="M240.441,190.203c-0.3-0.306-0.599-0.747-0.898-1.086v21.251c0,4.344,3.473,8.652,7.288,10.71
			c0.345,0.188,0.659,0.431,1.004,0.629l2.073-4.254l-0.36-0.503c-2.641-3.69-3.032-11.07-3.032-15.138v-3.384
			C245.888,197.056,243.738,193.672,240.441,190.203z"/>
		<path d="M448.184,71.481c-16.635,0-32.957,2.112-36.455,4.727c-3.511,2.599-6.356,4.719-6.356,4.719l-17.308,11.542l-6.925,4.324
			c-3.815,2.394-11.573,4.324-17.316,4.324c-5.727,0-10.387,0-10.387,0l-15.565,1.42l4.601-8.195c0,0-4.616-13.708-17.757-6.492
			l-7.426,15.278c-4.564-0.072-8.992-0.26-12.611-0.567c-9.417-0.793-19.26,0.371-22.005,2.599
			c-2.757,2.23-6.363,7.137-8.078,10.966c-1.712,3.825-5.551,9.249-8.58,12.113c-3.025,2.875-5.482,5.197-5.482,5.197l-8.079,7.506
			c-4.454,4.144-9.367,10.024-10.954,13.125c-1.591,3.11-2.371,9.311-1.733,13.85c0.635,4.546,4.833,12.106,9.38,16.879
			c4.55,4.779,8.213,10.525,8.213,12.832c0,2.312,0,4.186,0,4.186c0,4.623,0.713,9.365,1.595,10.6
			c0.293,0.407,0.562,0.793,0.79,1.124c0.437,0.619,2.961,1.294,3.635,0.336l-7.896,16.21l-2.885,13.276l10.392-7.508l10.531-18.759
			c1.134,1.034,4.355,1.583,7.281,1.23c2.993-0.36,6.472-0.36,7.79,0c1.319,0.361,4.225,1.423,6.488,2.38
			c2.276,0.958,4.107,1.733,4.107,1.733l4.108,1.303c2.271,0.713,6.243-0.257,8.872-2.166c2.629-1.91,7.506-7.033,10.892-11.445
			c3.391-4.404,8.588-9.027,11.605-10.307c3.03-1.289,5.475-2.331,5.475-2.331l9.157-4.428c5.049-2.442,12.924-7.225,17.601-10.68
			c4.668-3.446,10.52-8.57,13.064-11.445c2.561-2.871,9.918-9.067,16.45-13.846c6.532-4.785,20.346-12.657,30.865-17.603
			c10.52-4.937,22.662-10.111,27.122-11.542c4.465-1.433,11.626-3.24,15.985-4.033c4.364-0.8,7.903-12.86,7.903-26.942
			C478.304,82.896,464.828,71.481,448.184,71.481z M272.27,195.611c0.329-1.701,0.421-3.372,0.169-4.623
			c-0.521-2.561-0.942-4.623-0.942-4.623l-2.168-8.065l-0.653-3.462c-0.36-1.912,1.52-5.304,4.188-7.574
			c2.665-2.268,6.636-4.891,8.868-5.849c2.232-0.952,4.039-1.729,4.039-1.729l4.541-1.733c0.092-0.03,0.221-0.046,0.305-0.08
			L272.27,195.611z M311.96,181.896c-0.354,2.464-2.285,6.344-4.324,8.66c-2.032,2.306-5.703,5.45-8.22,7.003
			c-2.513,1.557-6.376,3.296-8.656,3.895c-2.26,0.597-6.106,2.142-8.575,3.46c-0.882,0.471-1.88,1.168-2.886,1.924l25.583-45.549
			c1.251,1.289,2.325,2.779,2.982,4.238c1.426,3.228,2.593,5.843,2.593,5.843l1.09,3.027
			C312.128,176.081,312.329,179.431,311.96,181.896z"/>
		<path d="M41.521,244.65c-0.199,0-0.387,0.017-0.575,0.028c-1.437,0.124-2.733,0.602-3.963,1.45
			c-0.832,0.582-1.813,1.788-1.783,3.219c-0.014,1.418,0.894,2.652,1.799,3.266c1.192,0.79,2.395,1.19,3.557,1.19
			c1.433-0.017,2.615-0.469,3.477-1.259c0.667-0.629,1.537-1.747,1.751-3.386c0.158-1.274-0.329-2.625-1.227-3.427
			C43.537,244.794,42.218,244.65,41.521,244.65z"/>
		<path d="M53.775,215.019H34.053c-4.342,0-7.851,3.507-7.851,7.851v52.085c0,4.332,3.508,7.851,7.851,7.851h19.722
			c4.34,0,7.851-3.519,7.851-7.851V222.87C61.626,218.526,58.107,215.019,53.775,215.019z M48.594,256.625
			c-1.986,2.292-4.765,3.603-7.618,3.603h-0.299c-2.99-0.036-5.869-1.486-7.478-3.771c-1.407-1.872-2.158-4.341-2.17-7.062
			c0.042-2.829,0.793-5.222,2.23-7.105c1.549-2.124,4.24-3.482,7.011-3.482l0.621,0.032c2.573,0.185,5.057,1.455,6.969,3.57
			c1.792,1.964,2.868,4.309,3.116,6.793C51.341,251.704,50.475,254.449,48.594,256.625z"/>
		<path d="M60.189,279.346c-1.439,1.888-2.194,4.265-2.24,7.102c0.008,2.729,0.763,5.189,2.166,7.069
			c1.617,2.284,4.5,3.738,7.484,3.771h0.299c2.855,0,5.626-1.318,7.612-3.618c1.885-2.181,2.749-4.922,2.38-7.406
			c-0.234-2.484-1.311-4.837-3.11-6.809c-1.916-2.1-4.388-3.374-6.987-3.578l-0.571-0.024
			C64.435,275.86,61.726,277.203,60.189,279.346z M63.898,283.198c1.221-0.846,2.507-1.318,3.968-1.451
			c0.188-0.023,0.385-0.032,0.571-0.032c0.7,0,2.022,0.133,3.034,1.051c0.9,0.813,1.379,2.164,1.222,3.434
			c-0.164,1.307-0.793,2.518-1.741,3.406c-0.874,0.798-2.058,1.227-3.495,1.259c-1.162,0-2.362-0.417-3.559-1.198
			c-0.899-0.613-1.813-1.84-1.797-3.258C62.079,284.981,63.059,283.771,63.898,283.198z"/>
		<path d="M165.487,338.348c-0.15,0-0.307,0.008-0.465,0.032c-1.533,0.196-2.559,1.27-3.158,2.144
			c-0.797,1.142-1.284,2.477-1.411,3.896c-0.096,1.025,0.196,2.561,1.304,3.458c0.966,0.834,2.425,1.082,3.649,0.729
			c1.429-0.429,2.553-1.122,3.296-2.056c0.815-1.006,1.242-2.192,1.196-3.374c-0.066-1.318-0.591-2.577-1.477-3.527
			C167.683,338.853,166.552,338.348,165.487,338.348z"/>
		<path d="M200.349,262.134c0.689,0.485,1.364,0.99,2.016,1.527c1.116,0.981,2.465,2.268,3.665,3.787
			c-1.679-2.293-3.044-4.813-4.056-7.514c-0.463,0.492-0.882,1.073-1.302,1.687C200.56,261.798,200.449,261.958,200.349,262.134z"/>
		<path d="M169.404,241.336c-0.15,0-0.307,0.016-0.465,0.032c-1.631,0.22-2.685,1.442-3.166,2.14
			c-0.801,1.142-1.286,2.488-1.411,3.899c-0.096,1.029,0.188,2.561,1.305,3.45c0.946,0.821,2.422,1.082,3.648,0.722
			c1.423-0.413,2.545-1.103,3.296-2.057c0.817-0.993,1.242-2.191,1.192-3.354c-0.061-1.314-0.585-2.577-1.475-3.527
			C171.592,241.845,170.47,241.336,169.404,241.336z"/>
		<path d="M166.977,188.6c1.419-0.415,2.535-1.108,3.296-2.054c0.817-1.006,1.238-2.2,1.2-3.37
			c-0.068-1.311-0.595-2.575-1.477-3.522c-0.743-0.802-1.873-1.303-2.943-1.303c-0.148,0-0.307,0.008-0.463,0.03
			c-1.619,0.219-2.669,1.437-3.156,2.134c-0.799,1.146-1.286,2.489-1.413,3.903c-0.092,1.028,0.198,2.557,1.303,3.455
			C164.266,188.697,165.735,188.939,166.977,188.6z"/>
		<path d="M216.551,221.079c3.815-2.066,7.292-6.374,7.292-10.71v-84.663c0-4.336-3.506-7.851-7.851-7.851H67.709
			c-4.342,0-7.759,3.573-8.754,7.785c-2.921,12.343-12.631,22.061-24.97,24.982c-4.216,1.004-7.782,4.418-7.782,8.754v26.751
			c0,4.344,3.508,7.85,7.851,7.85h40.97c4.342,0,7.851,3.519,7.851,7.851v7.452c0,0.99,0.034,1.916,0.088,2.787
			c-0.276-2.418-1.311-4.703-3.056-6.604c-1.932-2.116-4.412-3.388-6.969-3.581l-0.621-0.024c-2.763,0-5.454,1.354-7.003,3.48
			c-1.445,1.89-2.188,4.27-2.238,7.111c0,2.733,0.764,5.189,2.17,7.073c1.617,2.284,4.497,3.729,7.478,3.767h0.298
			c2.861,0,5.633-1.318,7.618-3.619c1.709-1.978,2.525-4.42,2.391-6.718c0.208,2.448,0.583,4.178,1.032,4.178h1.184
			c16.423,1.475,29.4,15.042,29.4,31.767c0,14.026-9.115,25.82-21.722,30.004c-4.122,1.366-7.931,1.619-8.275,1.643
			c-0.315,0.013-0.629,0.013-0.629,0.013c-0.188,0-0.383,0.031-0.563,0.063c-0.314,0.044-0.583,3.571-0.583,7.895
			c0,2.417,0,5.054,0,7.438c0,4.34-3.509,7.866-7.851,7.866h-40.97c-4.342,0-7.851,3.511-7.851,7.851v26.754
			c0,4.34,3.559,7.758,7.77,8.756c12.343,2.922,22.061,12.636,24.982,24.979c0.996,4.216,4.412,7.786,8.754,7.786h148.283
			c4.344,0,7.851-3.511,7.851-7.851v-84.665c0-4.34-3.468-8.647-7.292-10.703c-3.633-1.98-6.831-4.633-9.43-7.791
			c0.872,1.375,1.729,3.146,1.679,5.153l-0.156,6.97l-3.508-6.02c-0.651-1.143-1.617-2.023-2.621-2.957l-0.398-0.369
			c-1.205-1.058-2.461-2.148-3.761-3.222l-0.942-0.806c-0.204,0.417-0.402,0.821-0.599,1.234c-0.974,2.02-1.961,4.071-3.14,6.104
			l-3.557,6.155l-0.108-7.105c-0.034-1.796,0.22-3.635,0.767-5.778c0.411-1.636,0.996-3.254,1.783-4.926
			c-0.691-0.673-1.38-1.362-2.04-2.1l-4.875-5.398l6.929,2.209c0.855,0.276,1.721,0.629,2.631,1.045
			c0.337-0.416,0.689-0.812,1.062-1.174c1.026-1.025,2.549-2.184,4.38-2.669c-0.425-2.06-0.724-4.176-0.724-6.372
			C199.917,236.843,206.651,226.442,216.551,221.079z M76.077,215.604c-0.861,0.793-2.05,1.234-3.468,1.266
			c-1.17,0-2.38-0.407-3.573-1.192c-1.108-0.755-1.813-2.009-1.805-3.266c-0.032-1.431,0.958-2.629,1.79-3.22
			c1.23-0.847,2.51-1.318,3.963-1.445c0.188-0.016,0.385-0.03,0.583-0.03c0.697,0,2.016,0.14,3.028,1.06
			c0.906,0.817,1.38,2.158,1.228,3.432C77.664,213.497,77.035,214.705,76.077,215.604z M193.989,316.667c0.008,0,0.016,0,0.032,0
			c1.984,0,3.775,0.261,5.761,0.773c1.601,0.409,3.22,0.99,4.913,1.787c0.667-0.705,1.36-1.378,2.098-2.039l5.474-4.93l-2.292,7.001
			c-0.285,0.842-0.629,1.716-1.04,2.605c0.433,0.353,0.823,0.705,1.196,1.09c1.985,1.947,3.014,4.231,2.871,6.376l-0.457,6.868
			l-3.242-6.063c-0.633-1.193-1.671-1.972-2.872-2.781c-0.172-0.115-0.336-0.232-0.517-0.336c-0.487,0.689-0.998,1.362-1.535,2.023
			c-1.05,1.202-2.44,2.729-4.204,4.023c-1.376,1.026-3.519,2.408-6.037,2.408l-7.137-0.176l6.029-3.49
			c1.116-0.646,2.001-1.596,2.936-2.605l0.376-0.408c1.062-1.194,2.142-2.469,3.212-3.755l0.817-0.966
			c-0.449-0.217-0.881-0.429-1.32-0.63c-1.992-0.966-4.013-1.931-6.021-3.098l-6.164-3.542L193.989,316.667z M158.984,176.69
			c1.759-1.786,4.458-2.901,7.215-2.982l0.517-0.008c2.449,0,4.757,0.697,6.674,2.028c2.196,1.365,3.745,3.853,4.15,6.781
			c0.435,3.056-0.429,6.045-2.369,8.189c-1.781,2.066-4.412,3.31-7.027,3.31c-0.229,0-0.455-0.014-0.681-0.03
			c-2.343-0.142-4.711-1.146-6.801-2.905c-2.142-1.867-3.477-3.979-3.985-6.293C156.003,181.954,156.889,178.844,158.984,176.69z
			 M125.691,210.561c0.501-0.667,1.242-1.1,2.074-1.218c0.148-0.024,17.646-2.466,31.979-2.998l-2.751-7.971l5.635,5.063
			c1.617,1.455,4.508,3.109,7.363,4.218l4.938,1.909l-4.991,1.77c-2.884,1.02-5.819,2.593-7.482,4l-5.793,4.905l2.879-7.6
			c-13.212,0.521-29.006,2.661-30.885,2.921c-2.016,0.094-3.358-1.132-3.569-2.669C124.969,212.06,125.18,211.228,125.691,210.561z
			 M128.5,322.186c-2.144-0.093-3.493-1.539-3.438-3.25c0.05-1.655,1.423-2.989,3.116-3.034l0.495,0.013
			c2.537,0.08,16.839,0.444,28.657,0.292l-2.986-7.95l5.773,4.909c1.671,1.431,4.599,2.997,7.462,4.023l4.987,1.763l-4.938,1.916
			c-2.859,1.105-5.745,2.753-7.37,4.204l-5.632,5.013l2.637-7.606C145.465,322.611,131.044,322.25,128.5,322.186z M173.602,350.707
			c-1.783,2.061-4.412,3.311-7.011,3.311c-0.234,0-0.473-0.008-0.697-0.028c-2.338-0.141-4.712-1.15-6.8-2.905
			c-2.144-1.871-3.477-3.979-3.988-6.296c-0.665-2.829,0.213-5.935,2.309-8.079c1.775-1.811,4.477-2.921,7.229-2.985l0.521-0.004
			c2.451,0,4.743,0.689,6.646,2.008c2.208,1.37,3.745,3.863,4.164,6.792C176.411,345.561,175.541,348.55,173.602,350.707z
			 M177.519,253.695c-1.792,2.072-4.429,3.314-7.02,3.314c-0.226,0-0.455-0.017-0.681-0.032c-2.347-0.152-4.719-1.15-6.809-2.913
			c-2.142-1.872-3.468-3.972-3.985-6.288c-0.675-2.821,0.203-5.938,2.306-8.095c1.775-1.796,4.467-2.914,7.222-2.981l0.529-0.009
			c2.451,0,4.751,0.706,6.654,2.024c2.194,1.366,3.745,3.847,4.156,6.769C180.32,248.557,179.458,251.551,177.519,253.695z"/>
		<path d="M263.333,250.814c-0.677,11.225-7.137,20.842-16.502,25.912c-3.808,2.067-7.288,6.371-7.288,10.703v84.665
			c0,4.34,3.511,7.851,7.851,7.851h143.561c4.34,0,7.758-3.555,8.756-7.786c2.922-12.343,12.632-22.057,24.982-24.979
			c4.224-0.998,7.782-4.416,7.782-8.756V311.67c0-4.34-3.511-7.851-7.851-7.851h-39.926c-4.34,0-7.851-3.515-7.851-7.851v-7.498
			c0-4.34-0.124-7.822-0.269-7.834c-0.084,0-0.176-0.017-0.269-0.017h-0.396c-17.104-0.545-30.837-14.49-30.837-31.723
			c0-17.212,13.733-31.174,30.837-31.675c0.185-0.016,0.337-0.032,0.457-0.046c0.261-0.03,0.477-3.573,0.477-7.913
			c0-2.395,0-5.033,0-7.428c0-4.332,3.511-7.859,7.851-7.859h39.926c4.34,0,7.851-3.506,7.851-7.85v-26.751
			c0-4.336-3.562-7.75-7.782-8.754c-1.086-0.258-2.124-0.629-3.166-0.99c-8.816,4.53-18.566,10.223-23.467,13.799
			c-6.568,4.807-13.293,10.56-15.217,12.726c-2.897,3.26-9.169,8.77-14.274,12.547c-5.081,3.753-13.356,8.778-18.843,11.431
			l-14.968,6.915c-1.303,0.575-5.486,3.985-8.464,7.873c-3.311,4.3-8.816,10.331-12.503,13.018
			c-3.318,2.406-7.811,3.901-11.75,3.901c-1.459,0-2.837-0.198-4.088-0.597l-4.123-1.305l-4.793-1.978
			c-1.932-0.815-4.4-1.743-5.519-2.046c-0.064,0.006-0.593,0.006-1.189,0.006c-1.11,0-2.401,0.07-3.579,0.212
			c-1.383,0.165-2.617,0.218-4.34,0.11l-8.412,14.978l-3.033,2.268c0.06,0.345,0.044,0.714,0.1,1.066l33.471-0.798l-3.014-7.728
			l5.818,4.839c1.68,1.402,4.625,2.933,7.515,3.923l5.029,1.719l-4.938,1.96c-2.838,1.13-5.703,2.802-7.313,4.288l-5.591,5.121
			l2.625-7.866L263.333,250.814z"/>
	</g>
</g>
<g>
</g>
<g>
</g>
<g>
</g>
<g>
</g>
<g>
</g>
<g>
</g>
<g>
</g>
<g>
</g>
<g>
</g>
<g>
</g>
<g>
</g>
<g>
</g>
<g>
</g>
<g>
</g>
<g>
</g>
</svg>
