<?xml version="1.0" encoding="iso-8859-1"?>
<!-- Generator: Adobe Illustrator 16.0.0, SVG Export Plug-In . SVG Version: 6.00 Build 0)  -->
<!DOCTYPE svg PUBLIC "-//W3C//DTD SVG 1.1//EN" "http://www.w3.org/Graphics/SVG/1.1/DTD/svg11.dtd">
<svg version="1.1" id="Capa_1" xmlns="http://www.w3.org/2000/svg" xmlns:xlink="http://www.w3.org/1999/xlink" x="0px" y="0px"
	 width="304.002px" height="304.002px" viewBox="0 0 304.002 304.002" style="enable-background:new 0 0 304.002 304.002;"
	 xml:space="preserve">
<g>
	<g>
		<path d="M89.437,181.878c1.973,25.161,23.472,39.038,48.39,39.043c35.139,0.011,51.196-42.305,81.405-54.069
			c18.237-0.554,34.041-0.544,45.666-0.373c8.378,6.7,22.752,11.133,39.104,11.133v-49.451c-14.835,0-28.034,3.648-36.614,9.333
			C208.538,138.486,24.448,135.936,0,66.282V237.72C9.906,209.493,46.046,192.297,89.437,181.878z M195.888,167.846
			c-6.555,4.961-12.53,10.802-18.589,17.191c-7.736,8.15-15.312,15.747-25.163,21.396c-21.924,12.583-50.924-2.423-52.159-26.926
			C131.319,172.91,165.498,169.508,195.888,167.846z"/>
	</g>
</g>
<g>
</g>
<g>
</g>
<g>
</g>
<g>
</g>
<g>
</g>
<g>
</g>
<g>
</g>
<g>
</g>
<g>
</g>
<g>
</g>
<g>
</g>
<g>
</g>
<g>
</g>
<g>
</g>
<g>
</g>
</svg>
