<?xml version="1.0" encoding="iso-8859-1"?>
<!-- Generator: Adobe Illustrator 16.0.0, SVG Export Plug-In . SVG Version: 6.00 Build 0)  -->
<!DOCTYPE svg PUBLIC "-//W3C//DTD SVG 1.1//EN" "http://www.w3.org/Graphics/SVG/1.1/DTD/svg11.dtd">
<svg version="1.1" id="Capa_1" xmlns="http://www.w3.org/2000/svg" xmlns:xlink="http://www.w3.org/1999/xlink" x="0px" y="0px"
	 width="449.92px" height="449.92px" viewBox="0 0 449.92 449.92" style="enable-background:new 0 0 449.92 449.92;"
	 xml:space="preserve">
<g>
	<g>
		<path d="M264.346,36.343C263.701,28.884,259.048,0,225.468,0c-33.985,0-38.347,29.617-38.898,36.632
			c5.211-2.535,18.478-7.836,38.23-7.836C245.355,28.795,258.679,33.71,264.346,36.343z"/>
		<path d="M187.385,39.551l6.869,10.826c1.926,3.04,5.003,2.994,7.318,0.245c4.592-5.438,13.086-12.143,24.329-12.503
			c11.495-0.365,19.462,7.628,24.091,12.676c2.432,2.645,5.521,2.568,7.337-0.533l6.38-10.904
			c-4.913-2.346-18.201-7.582-38.916-7.582C205.16,31.783,191.94,37.305,187.385,39.551z"/>
		<path d="M155.608,173.151c5.354-12.04,22.321-61.784,28.002-78.558c-0.622,0.487-1.262,0.938-1.806,1.553h-0.166
			c-0.329,0.387-0.601,0.824-0.9,1.234c-0.016,0.03-0.042,0.061-0.058,0.09c-0.767,1.086-1.469,2.246-1.927,3.551l-28.162,76.924
			c0.056,0,0.11,0.016,0.164,0.008C152.657,177.719,154.29,176.11,155.608,173.151z"/>
		<path d="M298.529,176.573c0.101,0.008,0.201-0.022,0.297-0.022l-27.651-75.53c-0.461-1.311-1.158-2.465-1.932-3.551
			c-0.016-0.03-0.04-0.052-0.067-0.09c-0.285-0.418-0.569-0.848-0.906-1.234h-0.16c-0.613-0.691-1.318-1.216-2.032-1.749
			c6.079,17.913,22.386,65.636,27.607,77.381C294.987,174.738,296.622,176.347,298.529,176.573z"/>
		<path d="M136.665,261.148c8.037,2.882,16.896-1.271,19.791-9.305l32.282-83.104l-5.887,89.628l-29.354,169.282
			c-2.316,10.396-0.134,20.222,13.4,21.992c13.535,1.779,26.383-5.205,28.684-15.585l29.37-146.779l29.345,146.779
			c2.312,10.38,15.156,17.373,28.685,15.585c13.541-1.771,15.726-11.597,13.417-21.992l-29.33-169.306l-5.887-89.621l32.268,83.104
			c2.909,8.035,11.75,12.203,19.801,9.306c8.019-2.914,12.198-11.742,9.306-19.777l-22.338-60.991
			c-0.385,0.05-0.77,0.165-1.158,0.165c-0.328,0-0.661-0.022-0.998-0.054c-3.386-0.401-6.062-2.785-7.986-7.105
			c-5.751-12.946-24.057-66.836-28.882-81.11l-1.724-0.227h-0.897h-6.876c0.429-0.84,0.729-1.759,0.729-2.763
			c0-3.125-2.36-5.604-5.373-6.011c9.826-7.191,16.222-18.779,16.222-31.893c0-1.284-0.24-2.502-0.369-3.757l-2.696,4.625
			c-1.636,2.779-4.204,4.368-7.041,4.368c-2.369,0-4.705-1.118-6.585-3.162c-5.182-5.65-11.669-11.423-20.438-11.423
			c-11.83,0.364-19.366,7.9-22.091,11.125c-1.868,2.224-4.262,3.438-6.734,3.438c-2.726,0-5.238-1.499-6.893-4.114l-3.783-5.971
			c-0.197,1.605-0.471,3.2-0.471,4.865c0,13.243,6.516,24.956,16.517,32.125c-2.435,0.823-4.216,3.062-4.216,5.776
			c0,1.004,0.298,1.924,0.731,2.764h-7.851h-0.897l-1.916,0.252c-3.934,11.642-23.368,69.036-29.336,82.461
			c-1.916,4.308-4.599,6.705-7.983,7.104c-0.331,0.038-0.661,0.056-0.998,0.056c-0.345,0-0.689-0.102-1.034-0.14l-21.82,59.59
			C124.475,249.39,128.642,258.25,136.665,261.148z M191.689,248.424l-4.821,0.013l0.801-15.309h4.02V248.424z M204.118,248.392
			l-8.512,0.032v-15.28h8.512V248.392z M216.551,248.361l-8.502,0.031v-15.248l8.502,0.008V248.361z M228.98,248.333l-8.504,0.028
			v-15.209l8.504,0.008V248.333z M241.416,248.3l-8.504,0.032V233.16h8.504V248.3z M253.842,248.268l-8.504,0.017V233.16h8.504
			V248.268z M262.575,233.168l0.773,15.071l-5.583,0.013v-15.084H262.575z M260.359,217.473l-2.232,3.228l-26.988-18.644l2.23-3.228
			L260.359,217.473z M204.643,95.447h0.219c4.292,12.451,11.609,33.246,17.901,49.081V95.447h3.925v58.595
			c2,4.617,3.767,8.283,5.063,10.201c0.271,0.398,0.533,0.587,0.585,0.533c3.873-0.944,10.181-34.261,14.79-69.509
			c0.741-0.11,1.434-0.312,2.063-0.665c-2.77,21.408-8.588,61.312-14.459,70.212c2.12,0.156,3.715,2.481,3.715,6.029
			c0,4.202-0.657,7.88-1.479,8.219c-0.813,0.336-3.006-2.354-4.901-6.015c-1.28-2.453-1.312-4.857-0.427-6.474
			c-0.495-0.164-1.012-0.471-1.521-1.234c-0.952-1.402-2.128-3.643-3.438-6.474v74.287h-3.925v-83.358
			c-6.869-16.711-15.483-41.252-20.129-54.751C203.267,95.267,203.93,95.447,204.643,95.447z M200.882,124.234
			c3.971,0,7.199,3.22,7.199,7.199c0,3.971-3.22,7.2-7.199,7.2s-7.191-3.22-7.191-7.2
			C193.683,127.455,196.903,124.234,200.882,124.234z M215.886,198.829l2.226,3.228l-26.99,18.644l-2.226-3.228L215.886,198.829z"/>
	</g>
</g>
<g>
</g>
<g>
</g>
<g>
</g>
<g>
</g>
<g>
</g>
<g>
</g>
<g>
</g>
<g>
</g>
<g>
</g>
<g>
</g>
<g>
</g>
<g>
</g>
<g>
</g>
<g>
</g>
<g>
</g>
</svg>
