<?xml version="1.0" encoding="iso-8859-1"?>
<!-- Generator: Adobe Illustrator 16.0.0, SVG Export Plug-In . SVG Version: 6.00 Build 0)  -->
<!DOCTYPE svg PUBLIC "-//W3C//DTD SVG 1.1//EN" "http://www.w3.org/Graphics/SVG/1.1/DTD/svg11.dtd">
<svg version="1.1" id="Capa_1" xmlns="http://www.w3.org/2000/svg" xmlns:xlink="http://www.w3.org/1999/xlink" x="0px" y="0px"
	 width="297.551px" height="297.551px" viewBox="0 0 297.551 297.551" style="enable-background:new 0 0 297.551 297.551;"
	 xml:space="preserve">
<g>
	<g>
		<path d="M89.867,171.598c5.359,1.932,11.268-0.85,13.197-6.209l21.539-55.449l-3.933,59.799L101.09,282.694
			c-1.548,6.923-0.088,13.483,8.945,14.67c9.031,1.186,17.605-3.475,19.139-10.397l19.591-97.935l19.579,97.935
			c1.548,6.923,10.118,11.594,19.144,10.397c9.035-1.187,10.49-7.741,8.952-14.67l-19.573-112.966l-3.93-59.794l21.536,55.445
			c1.937,5.364,7.839,8.15,13.209,6.214c5.354-1.942,8.14-7.84,6.214-13.199l-34.284-93.641c-0.306-0.873-0.771-1.644-1.29-2.364
			c-0.015-0.021-0.03-0.036-0.041-0.057c-0.196-0.277-0.715-0.829-0.715-0.829c-1.093-1.235-2.444-2.115-3.981-2.509l-2.372-0.233
			h-2.361c-0.025,0.171-0.046,0.344-0.14,0.5l-8.394,13.256c-0.243,0.381-0.668,0.614-1.118,0.614c-0.451,0-0.875-0.233-1.119-0.614
			l-3.953-6.242l0.953,4.119l-4.974,8.454l0.779,4.164l-5.17,5.105l1.74-9.269l-4.974-8.454l1.018-4.525l-4.21,6.648
			c-0.243,0.381-0.668,0.614-1.124,0.614c-0.451,0-0.875-0.233-1.119-0.614l-8.394-13.256c-0.096-0.155-0.111-0.329-0.138-0.5
			h-2.175l-2.382,0.233c-1.538,0.394-2.884,1.274-3.987,2.509c0,0-0.507,0.552-0.709,0.829c-0.016,0.021-0.026,0.037-0.036,0.057
			c-0.516,0.72-0.977,1.496-1.29,2.364l-34.279,93.641C81.727,163.753,84.505,169.661,89.867,171.598z M155.07,105.359l-6.299,7.296
			l-2.752-3.182l8.283-8.187L155.07,105.359z M143.994,97.269l8.065-7.969l1.063,5.693l-10.571,10.452l-0.075-0.085L143.994,97.269z
			"/>
		<path d="M147.927,52.739v0.067c0.233,0,0.456-0.031,0.686-0.031c0.233,0.005,0.456,0.031,0.694,0.031v-0.067
			c13.947-0.723,25.029-12.229,25.029-26.339c0-14.121-11.082-25.611-25.029-26.325V0c-0.238,0-0.456,0.034-0.694,0.034
			c-0.23,0-0.453-0.034-0.686-0.034v0.07c-13.96,0.714-25.042,12.2-25.042,26.326C122.885,40.511,133.972,52.017,147.927,52.739z"/>
		<polygon points="138.044,71.313 146.438,58.057 133.627,52.314 129.65,58.057 		"/>
		<polygon points="150.785,58.057 159.184,71.313 167.578,58.057 163.601,52.314 		"/>
	</g>
</g>
<g>
</g>
<g>
</g>
<g>
</g>
<g>
</g>
<g>
</g>
<g>
</g>
<g>
</g>
<g>
</g>
<g>
</g>
<g>
</g>
<g>
</g>
<g>
</g>
<g>
</g>
<g>
</g>
<g>
</g>
</svg>
