<?xml version="1.0" encoding="iso-8859-1"?>
<!-- Generator: Adobe Illustrator 16.0.0, SVG Export Plug-In . SVG Version: 6.00 Build 0)  -->
<!DOCTYPE svg PUBLIC "-//W3C//DTD SVG 1.1//EN" "http://www.w3.org/Graphics/SVG/1.1/DTD/svg11.dtd">
<svg version="1.1" id="Capa_1" xmlns="http://www.w3.org/2000/svg" xmlns:xlink="http://www.w3.org/1999/xlink" x="0px" y="0px"
	 width="456.165px" height="456.165px" viewBox="0 0 456.165 456.165" style="enable-background:new 0 0 456.165 456.165;"
	 xml:space="preserve">
<g>
	<g>
		<path d="M429.748,353.445l-7.162,10.908L233.98,240.548l11.245-17.118l-100.031-66.046c-6.091,6.293-14.861,9.86-24.786,9.86
			c-5.258,0-10.594-1.124-15.739-3.038c-3.893-1.453-7.684-3.322-11.177-5.772c-3.304-2.307-6.075-5.005-8.605-7.851
			c-10.269-11.56-13.964-26.647-9.095-39.021l-15.797-10.427l-44.025,27.746l59.162,39.061L1.542,298.651
			c-2.779,4.929-1.699,10.812,2.415,13.124l5.961,3.351c4.112,2.316,9.694,0.192,12.473-4.737L95.14,181.153l335.618,221.615
			L429.748,353.445z"/>
		<polygon points="244.849,238.296 420.334,353.473 426.958,343.402 251.773,227.744 		"/>
		<path d="M146.018,73.346l-5.955-3.35c-2.477-1.401-5.436-1.024-8.051,0.443l17.789,11.896
			C150.342,78.611,149.007,75.031,146.018,73.346z"/>
		<path d="M98.438,126.522L82.61,116.073c-2.683,8.628-0.256,18.816,6.344,27.304c2.473,3.174,5.454,6.133,9.035,8.636
			c3.308,2.308,6.877,4.082,10.552,5.34c3.911,1.326,7.935,2.054,11.876,2.054c7.161,0,13.451-2.36,18.019-6.474l-19.981-13.19
			L98.438,126.522z"/>
		<polygon points="92.406,53.397 41.342,79.421 67.28,96.543 79.635,104.7 82.973,106.904 86.271,109.082 102.301,119.662 
			122.31,132.874 143.187,146.652 146.451,148.813 149.725,150.972 249.525,216.86 252.8,219.026 256.082,221.184 429.379,335.596 
			431.25,336.838 434.532,338.994 437.811,341.162 456.165,353.276 448.086,291.178 146.639,89.658 126.7,76.319 		"/>
	</g>
</g>
<g>
</g>
<g>
</g>
<g>
</g>
<g>
</g>
<g>
</g>
<g>
</g>
<g>
</g>
<g>
</g>
<g>
</g>
<g>
</g>
<g>
</g>
<g>
</g>
<g>
</g>
<g>
</g>
<g>
</g>
</svg>
