<?xml version="1.0" encoding="iso-8859-1"?>
<!-- Generator: Adobe Illustrator 16.0.0, SVG Export Plug-In . SVG Version: 6.00 Build 0)  -->
<!DOCTYPE svg PUBLIC "-//W3C//DTD SVG 1.1//EN" "http://www.w3.org/Graphics/SVG/1.1/DTD/svg11.dtd">
<svg version="1.1" id="Capa_1" xmlns="http://www.w3.org/2000/svg" xmlns:xlink="http://www.w3.org/1999/xlink" x="0px" y="0px"
	 width="269.2px" height="269.2px" viewBox="0 0 269.2 269.2" style="enable-background:new 0 0 269.2 269.2;" xml:space="preserve"
	>
<g>
	<g>
		<polygon points="243.651,132.133 269.2,123.358 269.2,90.625 243.651,85.833 		"/>
		<path d="M76.814,81.242c-7.523,0-14.188-1.872-18.796-4.77c-20.573,8.586-35.397,27.949-37.79,51
			c-4.189,0.334-11.135,1.538-15.757,6.017C1.548,136.322,0,140.062,0,144.299c0,4.152,1.574,7.663,4.549,10.186
			c4.137,3.475,10.24,4.277,14.954,4.277c2.183,0,3.998-0.172,5.259-0.327c9.512,22.194,31.561,37.759,57.239,37.759
			c31.843,0,58.046-23.912,61.77-54.742l95.495-7.521V83.642L99.691,73.006C95.751,77.853,87.013,81.242,76.814,81.242z
			 M10.721,147.157c-0.567-0.487-1.145-1.202-1.145-2.858c0-1.646,0.492-2.89,1.543-3.915c2.084-2.029,5.82-2.879,8.779-3.231
			c0.212,4.101,0.813,8.099,1.771,11.951C17.996,149.311,12.971,149.042,10.721,147.157z M112.66,139.027
			c0,16.596-13.453,30.043-30.049,30.043c-16.596,0-30.048-13.447-30.048-30.043c0-16.599,13.453-30.043,30.048-30.043
			C99.208,108.984,112.66,122.429,112.66,139.027z"/>
	</g>
</g>
<g>
</g>
<g>
</g>
<g>
</g>
<g>
</g>
<g>
</g>
<g>
</g>
<g>
</g>
<g>
</g>
<g>
</g>
<g>
</g>
<g>
</g>
<g>
</g>
<g>
</g>
<g>
</g>
<g>
</g>
</svg>
