<?xml version="1.0" encoding="iso-8859-1"?>
<!-- Generator: Adobe Illustrator 16.0.0, SVG Export Plug-In . SVG Version: 6.00 Build 0)  -->
<!DOCTYPE svg PUBLIC "-//W3C//DTD SVG 1.1//EN" "http://www.w3.org/Graphics/SVG/1.1/DTD/svg11.dtd">
<svg version="1.1" id="Capa_1" xmlns="http://www.w3.org/2000/svg" xmlns:xlink="http://www.w3.org/1999/xlink" x="0px" y="0px"
	 width="480.108px" height="480.107px" viewBox="0 0 480.108 480.107" style="enable-background:new 0 0 480.108 480.107;"
	 xml:space="preserve">
<g>
	<g>
		<path d="M437.588,297.537c-0.404,0.597-0.821,1.21-1.25,1.775c0.781-0.581,1.267-0.934,1.267-0.934L437.588,297.537z"/>
		<path d="M240.057,0.004C107.693,0.004,0,107.689,0,240.055s107.693,240.049,240.057,240.049
			c132.359,0,240.051-107.684,240.051-240.049S372.416,0.004,240.057,0.004z M41.458,314.04c-13.196,0-23.898-32.457-23.898-72.499
			s10.702-72.494,23.898-72.494c13.194,0,26.52,32.46,26.52,72.494C67.97,281.583,54.653,314.04,41.458,314.04z M253.604,171.536
			c-0.032,0.03-0.052,0.064-0.076,0.094c-0.598,0.879-1.21,1.749-1.855,2.606c-36.933,52.323-1.747,139.795-1.747,139.795l0,0
			c9.979,12.527,16.314,27.615,16.314,43.861c0,43.393-5.859,78.574-45.395,78.574c-39.531,0-97.765-35.182-97.765-78.574
			c0-17.155,2.973-33.021,9.004-45.937h-0.008c0.148-0.309,0.278-0.621,0.429-0.926c0.022-0.057,0.05-0.108,0.08-0.173
			c24.429-50.169,8.009-108.715-0.274-131.772c-1.507-3.17-2.825-6.532-3.957-10.039l-0.008-0.024l0,0
			c-3.519-10.875-5.258-23.235-5.258-36.366c0-43.386,58.234-78.563,97.765-78.563c39.535,0,45.395,35.177,45.395,78.563
			C266.248,146.822,261.422,160.074,253.604,171.536L253.604,171.536z M416.469,314.08c0.529-0.394,1.303-0.966,2.421-1.804
			C417.865,313.038,417.035,313.651,416.469,314.08z M435.702,180.005L435.702,180.005l0.016,0.016
			c0.89,1.116,1.711,2.284,2.493,3.508c5.35,7.398,17.94,23.872,23.828,24.057c0,0,0.016,0.008,0.027,0.008
			c0,0,3.391,18.038,2.048,43.99c0,0.016,0,0.028,0,0.044c-0.353,6.784-1.034,14.09-2.192,21.788
			c-0.084,0.577-0.176,1.15-0.268,1.72c-0.453,2.873-0.966,5.795-1.563,8.76c-0.124,0.638-0.225,1.259-0.353,1.896
			c-0.048,0.185-0.061,0.361-0.108,0.554l-0.023,0.012c-0.129,0.072-11.843,6.504-24.814,14.903
			c-3.735,4.34-8.447,7.683-14.339,9.874c-5.073,1.896-11.024,2.93-18.013,2.93c-40.019,0-72.463-33.125-72.463-73.989
			c0-40.859,32.437-73.987,72.463-73.987C418.217,166.065,428.741,171.235,435.702,180.005z"/>
	</g>
</g>
<g>
</g>
<g>
</g>
<g>
</g>
<g>
</g>
<g>
</g>
<g>
</g>
<g>
</g>
<g>
</g>
<g>
</g>
<g>
</g>
<g>
</g>
<g>
</g>
<g>
</g>
<g>
</g>
<g>
</g>
</svg>
