<?xml version="1.0" encoding="iso-8859-1"?>
<!-- Generator: Adobe Illustrator 16.0.0, SVG Export Plug-In . SVG Version: 6.00 Build 0)  -->
<!DOCTYPE svg PUBLIC "-//W3C//DTD SVG 1.1//EN" "http://www.w3.org/Graphics/SVG/1.1/DTD/svg11.dtd">
<svg version="1.1" id="Capa_1" xmlns="http://www.w3.org/2000/svg" xmlns:xlink="http://www.w3.org/1999/xlink" x="0px" y="0px"
	 width="356.056px" height="356.056px" viewBox="0 0 356.056 356.056" style="enable-background:new 0 0 356.056 356.056;"
	 xml:space="preserve">
<g>
	<path d="M82.727,95.112H70.591V21.147c5.007-2.433,9.11-7.259,12.136-11.978V95.112z M22.035,95.112h6.204V0.345
		C17.362,5.29,0.963,17.701,0.627,47.8h21.408V95.112z M55.845,20.135c-5.209-3.25-9.688-8.973-12.866-13.888v88.865h12.866V20.135z
		 M104.391,47.8h21.41C125.462,17.036,108.316,4.719,97.477,0v95.112h6.915V47.8z M300.222,282.079v73.978h12.127V270.1
		C309.323,274.817,305.228,279.654,300.222,282.079z M230.257,308.74h21.415v47.316h6.191v-94.772
		C246.979,266.221,230.597,278.644,230.257,308.74z M272.599,267.175v88.881h12.864v-74.983
		C280.257,277.831,275.772,272.081,272.599,267.175z M327.1,260.931v95.125h6.917V308.74h21.412
		C355.076,277.967,337.932,265.648,327.1,260.931z M211.646,146.057l-20.554-23.74l-5.935,5.133l20.546,23.738L211.646,146.057z
		 M252.742,193.563l-20.55-23.736l-5.943,5.131l20.562,23.738L252.742,193.563z M170.556,98.571l-20.552-23.742l-5.935,5.144
		l20.55,23.738L170.556,98.571z M255.948,227.033l29.587,10.271l-5.907-30.757L255.948,227.033z M32.814,222.632l10.958-3.09
		l-22.412-21.84l-7.729,30.336l11.496-3.238c15.544,33.058,53.044,52.285,108.932,55.611c6.091,0.36,12.113,0.517,17.967,0.517
		c35.506,0,64.668-5.742,65.005-5.818l-1.547-7.69C213.998,267.712,68.869,295.749,32.814,222.632z M333.616,221.129l7.69,1.547
		c0.075-0.396,7.866-39.878,5.289-82.979c-3.313-55.872-22.537-93.373-55.595-108.924l3.186-11.319l-30.34,7.716l21.849,22.419
		l3.126-11.13C361.961,74.514,333.925,219.643,333.616,221.129z"/>
</g>
<g>
</g>
<g>
</g>
<g>
</g>
<g>
</g>
<g>
</g>
<g>
</g>
<g>
</g>
<g>
</g>
<g>
</g>
<g>
</g>
<g>
</g>
<g>
</g>
<g>
</g>
<g>
</g>
<g>
</g>
</svg>
