<?xml version="1.0" encoding="iso-8859-1"?>
<!-- Generator: Adobe Illustrator 16.0.0, SVG Export Plug-In . SVG Version: 6.00 Build 0)  -->
<!DOCTYPE svg PUBLIC "-//W3C//DTD SVG 1.1//EN" "http://www.w3.org/Graphics/SVG/1.1/DTD/svg11.dtd">
<svg version="1.1" id="Capa_1" xmlns="http://www.w3.org/2000/svg" xmlns:xlink="http://www.w3.org/1999/xlink" x="0px" y="0px"
	 width="275.725px" height="275.725px" viewBox="0 0 275.725 275.725" style="enable-background:new 0 0 275.725 275.725;"
	 xml:space="preserve">
<g>
	<g>
		<path d="M259.817,63.629H15.907H0v15.907v116.652v15.907h15.907h243.91h15.908v-15.907V79.536V63.629H259.817z M15.907,79.536
			h111.35v116.652H15.907V79.536z M259.817,196.188H143.165V79.536h116.652V196.188z"/>
		<polygon points="163.805,140.063 198.84,182.099 233.875,140.063 221.655,129.883 206.793,147.712 206.793,106.048 
			190.886,106.048 190.886,147.712 176.025,129.883 		"/>
		<polygon points="36.55,140.964 48.765,151.145 63.629,133.319 63.629,174.979 79.536,174.979 79.536,133.319 94.4,151.145 
			106.615,140.964 71.583,98.928 		"/>
	</g>
</g>
<g>
</g>
<g>
</g>
<g>
</g>
<g>
</g>
<g>
</g>
<g>
</g>
<g>
</g>
<g>
</g>
<g>
</g>
<g>
</g>
<g>
</g>
<g>
</g>
<g>
</g>
<g>
</g>
<g>
</g>
</svg>
