<?xml version="1.0" encoding="iso-8859-1"?>
<!-- Generator: Adobe Illustrator 16.0.0, SVG Export Plug-In . SVG Version: 6.00 Build 0)  -->
<!DOCTYPE svg PUBLIC "-//W3C//DTD SVG 1.1//EN" "http://www.w3.org/Graphics/SVG/1.1/DTD/svg11.dtd">
<svg version="1.1" id="Capa_1" xmlns="http://www.w3.org/2000/svg" xmlns:xlink="http://www.w3.org/1999/xlink" x="0px" y="0px"
	 width="310.032px" height="310.032px" viewBox="0 0 310.032 310.032" style="enable-background:new 0 0 310.032 310.032;"
	 xml:space="preserve">
<g>
	<g>
		<path d="M6.598,35.377h82.327c-2.112,5.771-3.319,11.975-3.319,18.468c0,29.743,24.109,53.848,53.842,53.848
			c26.269,0,48.115-18.817,52.863-43.703c32.353,10.568,56.928,28.611,37.241,64.659c-15.778,28.886-42.554,52.1-64.971,75.728
			c-14.198,14.975-36.065,35.076-38.292,57.047c-2.175,21.438,14.437,44.967,35.817,48.146
			c25.005,3.723,49.617-15.783,67.439-30.634c26.067-21.732,49.229-49.917,65.41-79.754
			c39.198-72.289-24.616-158.336-102.164-153.368c-0.057,0.005-0.104,0.021-0.16,0.026c-3.719-24.863-24.39-44.144-49.902-45.687V0
			h-3.283h-0.005h-0.005h-16.58v2.636v3.441h-8.197H97.67V0H24.68c-2.926,0-6.385,2.115-7.715,4.72L3.708,30.652
			C2.372,33.262,3.667,35.377,6.598,35.377z M289.975,147.419c3.33,34.437-16.456,61.28-37.246,86.425
			c-18.962,22.939-42.507,46.583-70.536,57.892c-29.65,11.962-49.404-19.159-34.367-43.843
			c26.212-43.015,72.344-70.635,96.811-115.428c16.56-30.318,5.457-52.351-15.768-67.271
			C263.251,76.37,286.107,107.428,289.975,147.419z M105.898,35.377c6.535-11.819,19.118-19.845,33.549-19.845
			c1.108,0,2.2,0.072,3.288,0.163c19.594,1.675,35.029,18.134,35.029,38.149c0,21.127-17.191,38.315-38.323,38.315
			c-21.127,0-38.313-17.188-38.313-38.315C101.134,47.155,102.875,40.861,105.898,35.377z"/>
		<path d="M139.448,81.556c15.286,0,27.718-12.428,27.718-27.711c0-14.151-10.708-25.725-24.425-27.374
			c-1.093-0.135-2.165-0.334-3.288-0.334c-8.161,0-15.426,3.609-20.5,9.24c-4.428,4.917-7.208,11.348-7.208,18.468
			C111.739,69.128,124.167,81.556,139.448,81.556z"/>
	</g>
</g>
<g>
</g>
<g>
</g>
<g>
</g>
<g>
</g>
<g>
</g>
<g>
</g>
<g>
</g>
<g>
</g>
<g>
</g>
<g>
</g>
<g>
</g>
<g>
</g>
<g>
</g>
<g>
</g>
<g>
</g>
</svg>
