<?xml version="1.0" encoding="utf-8"?><!DOCTYPE svg PUBLIC "-//W3C//DTD SVG 1.1//EN" "http://www.w3.org/Graphics/SVG/1.1/DTD/svg11.dtd"><svg version="1.1" xmlns="http://www.w3.org/2000/svg" xmlns:xlink="http://www.w3.org/1999/xlink" width="32" height="32" viewBox="0 0 32 32" data-tags="soccer-court"><g fill="#444" transform="scale(0.03125 0.03125)"><path d="M64 672v96.082c0 35.301 28.791 63.918 63.785 63.918h384.215v-160.879c-71.999-7.959-128-69-128-143.121s56.001-135.162 128-143.121v-160.879h-384.215c-35.228 0-63.785 28.51-63.785 63.918v96.082h160v288h-160zM992 672v96.082c0 35.408-28.558 63.918-63.785 63.918h-384.215v-160.879c71.999-7.959 128-69 128-143.121s-56.001-135.162-128-143.121v-160.879h384.215c34.994 0 63.785 28.617 63.785 63.918v96.082h-160v288h160zM544 638.866c54.277-7.764 96-54.442 96-110.866s-41.723-103.102-96-110.866v221.732zM512 417.134c-54.277 7.764-96 54.442-96 110.866s41.723 103.102 96 110.866v-221.732zM864 416v224h128v-224h-128zM64 416v224h128v-224h-128z" /></g></svg>