<?xml version="1.0" encoding="iso-8859-1"?>
<!-- Generator: Adobe Illustrator 19.0.0, SVG Export Plug-In . SVG Version: 6.00 Build 0)  -->
<svg version="1.1" id="Capa_1" xmlns="http://www.w3.org/2000/svg" xmlns:xlink="http://www.w3.org/1999/xlink" x="0px" y="0px"
	 viewBox="0 0 60 60" style="enable-background:new 0 0 60 60;" xml:space="preserve">
<g>
	<g>
		<g>
			<path d="M31.5,22h-3c-1.93,0-3.5,1.57-3.5,3.5s1.57,3.5,3.5,3.5h3c1.93,0,3.5-1.57,3.5-3.5S33.43,22,31.5,22z"/>
			<path d="M25,34.5c0,1.93,1.57,3.5,3.5,3.5h3c1.93,0,3.5-1.57,3.5-3.5S33.43,31,31.5,31h-3C26.57,31,25,32.57,25,34.5z"/>
			<g>
				<rect x="14" y="49" width="32" height="2"/>
				<path d="M59.848,23.47l-10-16c-0.104-0.166-0.255-0.299-0.434-0.38l-11-5c-0.28-0.126-0.602-0.119-0.874,0.022
					c-0.272,0.142-0.466,0.4-0.522,0.701c-1.432,7.554-7.27,7.773-7.477,7.779c-0.208-0.006-5.131-0.244-6.559-7.779
					c-0.057-0.301-0.25-0.56-0.522-0.701c-0.271-0.142-0.594-0.148-0.874-0.022l-11,5c-0.179,0.081-0.33,0.214-0.434,0.38l-10,16
					c-0.275,0.44-0.168,1.019,0.248,1.33l8,6c0.421,0.317,1.018,0.251,1.358-0.149L14,25.703V47h32V26.12l3.187,4.461
					c0.313,0.438,0.92,0.55,1.368,0.251l9-6C60.005,24.532,60.135,23.928,59.848,23.47z M17.637,5.528L21,4
					c1.611,8.503,7.519,8.593,7.519,8.593s0.186-0.006,0.481-0.044V13H15L17.637,5.528z M37,34.5c0,3.032-2.468,5.5-5.5,5.5h-3
					c-3.032,0-5.5-2.468-5.5-5.5c0-1.86,0.931-3.504,2.348-4.5C23.93,29.004,23,27.359,23,25.5c0-3.032,2.468-5.5,5.5-5.5h3
					c3.032,0,5.5,2.468,5.5,5.5c0,1.86-0.931,3.504-2.348,4.5C36.069,30.996,37,32.64,37,34.5z M31,13v-0.451
					c0.295,0.037,0.481,0.044,0.481,0.044S37.389,12.503,39,4l3.363,1.529L45,13H31z"/>
				<path d="M14,53v4c0,0.553,0.447,1,1,1h30c0.553,0,1-0.447,1-1v-4H14z"/>
			</g>
		</g>
	</g>
</g>
<g>
</g>
<g>
</g>
<g>
</g>
<g>
</g>
<g>
</g>
<g>
</g>
<g>
</g>
<g>
</g>
<g>
</g>
<g>
</g>
<g>
</g>
<g>
</g>
<g>
</g>
<g>
</g>
<g>
</g>
</svg>
