<?xml version="1.0" encoding="UTF-8" standalone="no"?>
<svg
   xmlns:dc="http://purl.org/dc/elements/1.1/"
   xmlns:cc="http://creativecommons.org/ns#"
   xmlns:rdf="http://www.w3.org/1999/02/22-rdf-syntax-ns#"
   xmlns:svg="http://www.w3.org/2000/svg"
   xmlns="http://www.w3.org/2000/svg"
   xmlns:sodipodi="http://sodipodi.sourceforge.net/DTD/sodipodi-0.dtd"
   xmlns:inkscape="http://www.inkscape.org/namespaces/inkscape"
   version="1.0"
   width="225px"
   height="225px"
   viewBox="0 0 2250 2250"
   preserveAspectRatio="xMidYMid meet"
   id="svg2"
   inkscape:version="0.91 r13725"
   sodipodi:docname="descarga.svg">
  <metadata
     id="metadata52">
    <rdf:RDF>
      <cc:Work
         rdf:about="">
        <dc:format>image/svg+xml</dc:format>
        <dc:type
           rdf:resource="http://purl.org/dc/dcmitype/StillImage" />
      </cc:Work>
    </rdf:RDF>
  </metadata>
  <defs
     id="defs50" />
  <sodipodi:namedview
     pagecolor="#ffffff"
     bordercolor="#666666"
     borderopacity="1"
     objecttolerance="10"
     gridtolerance="10"
     guidetolerance="10"
     inkscape:pageopacity="0"
     inkscape:pageshadow="2"
     inkscape:window-width="1920"
     inkscape:window-height="1017"
     id="namedview48"
     showgrid="false"
     inkscape:zoom="2.9667058"
     inkscape:cx="152.54586"
     inkscape:cy="97.788245"
     inkscape:window-x="-8"
     inkscape:window-y="-8"
     inkscape:window-maximized="1"
     inkscape:current-layer="layer2" />
  <g
     id="layer1"
     stroke="none"
     fill="#070707">
    <path
       d="M1083 2164 c-43 -51 -119 -112 -178 -141 -22 -11 -92 -35 -155 -53 -211 -59 -346 -125 -452 -220 -154 -137 -234 -363 -198 -556 7 -38 26 -107 42 -154 78 -231 91 -362 48 -475 -23 -61 -66 -131 -94 -154 -14 -12 -4 -27 87 -123 56 -61 129 -140 163 -177 49 -53 64 -64 75 -54 28 23 143 53 202 53 34 0 133 -14 221 -32 216 -43 346 -44 531 -4 72 15 168 30 215 33 75 5 94 2 160 -21 41 -15 80 -28 87 -29 10 -2 323 325 323 338 0 4 -18 27 -39 53 -113 133 -118 280 -20 576 56 173 67 260 45 372 -39 200 -149 348 -341 456 -82 46 -169 80 -305 118 -152 43 -219 79 -307 167 l-73 72 -37 -45z m218 -152 c30 -17 104 -44 164 -62 259 -74 391 -143 505 -267 99 -106 145 -212 155 -352 7 -86 -10 -173 -69 -357 -66 -209 -68 -351 -7 -472 17 -33 35 -63 41 -67 5 -3 15 -15 20 -26 10 -17 0 -31 -72 -107 -46 -48 -109 -116 -142 -150 -32 -35 -60 -62 -61 -60 -2 2 -99 149 -217 328 -118 179 -353 534 -523 790 -169 256 -341 516 -383 578 -41 62 -72 115 -70 118 3 2 61 20 129 40 146 42 209 76 293 154 l61 58 61 -58 c34 -31 86 -71 115 -88z m-713 -794 c15 -15 16 -142 2 -169 -9 -16 -22 -19 -80 -19 l-70 0 0 -52 0 -53 80 3 80 4 0 -31 0 -31 -105 0 -105 0 0 105 0 105 80 0 80 0 0 50 0 50 -50 0 c-39 0 -52 -4 -60 -20 -6 -11 -20 -20 -30 -20 -16 0 -20 7 -20 33 0 49 14 57 105 57 50 0 86 -5 93 -12z m250 0 c16 -16 16 -140 0 -156 -9 -9 -9 -15 0 -24 14 -14 16 -126 2 -148 -11 -18 -133 -26 -172 -11 -27 10 -28 13 -28 84 0 40 5 78 11 84 8 8 8 13 0 17 -15 10 -14 139 1 154 7 7 43 12 93 12 50 0 86 -5 93 -12z m-488 -282 c0 -49 -12 -77 -26 -63 -3 3 -8 30 -11 61 -5 52 -4 56 16 56 19 0 21 -5 21 -54z m238 -218 c15 -15 17 -305 2 -328 -7 -12 -30 -15 -102 -15 l-93 0 -3 178 -2 177 93 0 c59 0 97 -4 105 -12z m252 -13 c0 -25 -1 -25 -80 -25 l-80 0 0 -49 0 -50 38 -3 c29 -2 37 -7 37 -23 0 -16 -8 -21 -37 -23 l-38 -3 0 -52 0 -52 80 3 80 4 0 -32 0 -31 -102 3 -103 3 -3 178 -2 177 105 0 105 0 0 -25z m150 23 c0 -2 15 -79 34 -173 19 -93 32 -173 30 -177 -3 -5 -14 -8 -24 -8 -14 0 -21 12 -29 53 -39 187 -49 230 -54 217 -3 -8 -15 -64 -27 -125 -28 -145 -28 -145 -51 -145 -25 0 -25 10 12 200 l31 160 39 0 c22 0 39 -1 39 -2z m298 -10 c15 -15 17 -305 2 -328 -12 -19 -158 -27 -189 -11 -20 11 -21 19 -21 169 0 110 4 162 12 170 7 7 44 12 98 12 54 0 91 -5 98 -12z"
       id="path5" />
    <path
       d="M1433 1726 c-89 -29 -160 -92 -204 -181 -33 -69 -35 -216 -2 -287 30 -66 92 -129 160 -164 52 -26 68 -29 153 -29 84 0 102 3 151 28 66 32 132 99 162 165 18 38 22 66 22 142 0 84 -3 102 -28 151 -32 67 -100 132 -165 162 -59 26 -188 33 -249 13z m194 -48 c41 -44 59 -82 72 -153 18 -98 15 -151 -11 -169 -62 -44 -145 9 -113 71 8 15 15 38 15 51 0 31 -26 79 -50 92 -19 10 -19 13 -5 33 17 25 19 60 5 88 -10 17 -7 19 23 19 24 0 41 -8 64 -32z m-121 -3 c15 -23 15 -27 1 -49 -9 -13 -49 -42 -89 -64 -42 -23 -95 -63 -126 -96 -29 -31 -55 -56 -58 -56 -10 0 -2 43 17 96 26 68 86 137 149 169 59 31 86 31 106 0z m240 -47 c71 -66 98 -126 98 -224 1 -89 -10 -114 -50 -114 -38 0 -51 35 -57 150 -5 92 -16 151 -42 213 -11 27 2 21 51 -25z m-224 -95 c45 -43 37 -113 -14 -113 -59 0 -103 -40 -110 -100 -2 -18 -8 -24 -22 -22 -28 5 -75 -18 -81 -39 -9 -26 -20 -24 -33 6 -35 78 10 161 132 242 44 29 84 53 90 53 5 0 23 -12 38 -27z m23 -176 c30 -47 69 -63 120 -49 33 9 42 9 50 -4 26 -41 34 -47 63 -48 39 -1 40 -7 3 -48 -28 -32 -32 -33 -103 -33 -64 1 -81 5 -143 38 -38 20 -78 43 -87 50 -44 35 0 125 62 126 8 0 24 -14 35 -32z m-99 -132 c67 -45 136 -74 191 -82 24 -3 43 -9 43 -13 0 -18 -71 -35 -145 -35 -87 1 -142 21 -197 73 -32 30 -34 39 -12 70 22 32 58 28 120 -13z"
       id="path7" />
    <path
       d="M690 1130 l0 -50 55 0 55 0 0 50 0 50 -55 0 -55 0 0 -50z"
       id="path9" />
    <path
       d="M697 1024 c-4 -4 -7 -27 -7 -51 l0 -43 56 0 55 0 -3 48 -3 47 -45 3 c-25 2 -49 0 -53 -4z"
       id="path11" />
    <path
       d="M440 556 l0 -126 55 0 56 0 -3 123 -3 122 -52 3 -53 3 0 -125z"
       id="path13" />
    <path
       d="M1126 665 c-3 -9 -6 -61 -6 -115 0 -113 9 -130 68 -130 62 0 63 4 60 136 l-3 119 -56 3 c-45 2 -58 0 -63 -13z"
       id="path15" />
  </g>
  <g
     id="layer2"
     style="fill:#ffffff"
     stroke="none"
     fill="#9a9a9a">
    <path
       d="M0 1125 l0 -1125 1125 0 1125 0 0 1125 0 1125 -1125 0 -1125 0 0 -1125z m1325 909 c33 -18 112 -46 175 -64 136 -38 223 -72 305 -118 192 -108 302 -256 341 -456 22 -112 11 -199 -45 -372 -98 -296 -93 -443 20 -576 21 -26 39 -49 39 -53 0 -13 -313 -340 -323 -338 -7 1 -46 14 -87 29 -66 23 -85 26 -160 21 -47 -3 -143 -18 -215 -33 -185 -40 -315 -39 -531 4 -88 18 -187 32 -221 32 -59 0 -174 -30 -202 -53 -11 -10 -26 1 -75 54 -34 37 -107 116 -163 177 -91 96 -101 111 -87 123 28 23 71 93 94 154 43 113 30 244 -48 475 -16 47 -35 116 -42 154 -36 193 44 419 198 556 106 95 241 161 452 220 63 18 133 42 155 53 59 29 135 90 178 141 l37 45 73 -72 c41 -41 98 -86 132 -103z"
       id="path18"
       style="fill:none" />
    <g
       id="g3367"
       style="fill:#ffffff">
      <path
         style="fill:#ffffff"
         id="path20"
         d="M1064 2100 c-84 -78 -147 -112 -293 -154 -68 -20 -126 -38 -129 -40 -2 -3 29 -56 70 -118 42 -62 214 -322 383 -578 170 -256 405 -611 523 -790 118 -179 215 -326 217 -328 1 -2 29 25 61 60 33 34 96 102 142 150 72 76 82 90 72 107 -5 11 -15 23 -20 26 -6 4 -24 34 -41 67 -61 121 -59 263 7 472 59 184 76 271 69 357 -10 140 -56 246 -155 352 -114 124 -246 193 -505 267 -131 38 -196 73 -279 150 l-61 58 -61 -58z m618 -387 c65 -30 133 -95 165 -162 25 -49 28 -67 28 -151 0 -76 -4 -104 -22 -142 -30 -66 -96 -133 -162 -165 -49 -25 -67 -28 -151 -28 -85 0 -101 3 -153 29 -68 35 -130 98 -160 164 -33 71 -31 218 2 287 44 89 115 152 204 181 61 20 190 13 249 -13z" />
      <g
         id="g3359"
         style="fill:#ffffff">
        <path
           d="M1540 1691 c14 -28 12 -63 -5 -88 -14 -20 -14 -23 5 -33 24 -13 50 -61 50 -92 0 -13 -7 -36 -15 -51 -32 -62 51 -115 113 -71 26 18 29 71 11 169 -20 108 -77 185 -136 185 -30 0 -33 -2 -23 -19z"
           id="path22"
           style="fill:#ffffff" />
        <path
           d="M1400 1675 c-63 -32 -123 -101 -149 -169 -19 -53 -27 -96 -17 -96 3 0 29 25 58 56 31 33 84 73 126 96 40 22 80 51 89 64 14 22 14 26 -1 49 -20 31 -47 31 -106 0z"
           id="path24"
           style="fill:#ffffff" />
        <path
           d="M1695 1653 c26 -62 37 -121 42 -213 6 -115 19 -150 57 -150 40 0 51 25 50 114 0 98 -27 158 -98 224 -49 46 -62 52 -51 25z"
           id="path26"
           style="fill:#ffffff" />
        <path
           d="M1394 1507 c-122 -81 -167 -164 -132 -242 13 -30 24 -32 33 -6 6 21 53 44 81 39 14 -2 20 4 22 22 7 60 51 100 110 100 32 0 42 14 42 59 0 27 -44 81 -66 81 -6 0 -46 -24 -90 -53z"
           id="path28"
           style="fill:#ffffff" />
        <path
           d="M1474 1378 c-24 -11 -44 -48 -44 -80 0 -26 16 -38 105 -85 62 -33 79 -37 143 -38 71 0 75 1 103 33 37 41 36 47 -3 48 -29 1 -37 7 -63 48 -8 13 -17 13 -50 4 -51 -14 -90 2 -120 49 -21 34 -36 38 -71 21z"
           id="path30"
           style="fill:#ffffff" />
        <path
           d="M1326 1238 c-22 -31 -20 -40 12 -70 55 -52 110 -72 197 -73 74 0 145 17 145 35 0 4 -19 10 -43 13 -55 8 -124 37 -191 82 -62 41 -98 45 -120 13z"
           id="path32"
           style="fill:#ffffff" />
      </g>
    </g>
    <path
       d="M402 1218 c-7 -7 -12 -27 -12 -45 0 -26 4 -33 20 -33 10 0 24 9 30 20 8 16 21 20 60 20 l50 0 0 -50 0 -50 -80 0 -80 0 0 -105 0 -105 105 0 105 0 0 31 0 31 -80 -4 -80 -3 0 53 0 52 70 0 c58 0 71 3 80 19 14 27 13 154 -2 169 -7 7 -43 12 -93 12 -50 0 -86 -5 -93 -12z"
       id="path34"
       style="fill:#ffffff" />
    <path
       d="M652 1218 c-15 -15 -16 -144 -1 -154 8 -4 8 -9 0 -17 -6 -6 -11 -44 -11 -84 0 -71 1 -74 28 -84 39 -15 161 -7 172 11 14 22 12 134 -2 148 -9 9 -9 15 0 24 16 16 16 140 0 156 -7 7 -43 12 -93 12 -50 0 -86 -5 -93 -12z m148 -88 l0 -50 -55 0 -55 0 0 50 0 50 55 0 55 0 0 -50z m-2 -152 l3 -48 -55 0 -56 0 0 43 c0 24 3 47 7 51 4 4 28 6 53 4 l45 -3 3 -47z"
       id="path36"
       style="fill:#ffffff" />
    <path
       d="M313 934 c3 -31 8 -58 11 -61 14 -14 26 14 26 63 0 49 -2 54 -21 54 -20 0 -21 -4 -16 -56z"
       id="path38"
       style="fill:#ffffff" />
    <path
       d="M392 553 l3 -178 93 0 c72 0 95 3 102 15 15 23 13 313 -2 328 -8 8 -46 12 -105 12 l-93 0 2 -177z m156 0 l3 -123 -56 0 -55 0 0 126 0 125 53 -3 52 -3 3 -122z"
       id="path40"
       style="fill:#ffffff" />
    <path
       d="M632 553 l3 -178 103 -3 102 -3 0 31 0 32 -80 -4 -80 -3 0 52 0 52 38 3 c29 2 37 7 37 23 0 16 -8 21 -37 23 l-38 3 0 50 0 49 80 0 c79 0 80 0 80 25 l0 25 -105 0 -105 0 2 -177z"
       id="path42"
       style="fill:#ffffff" />
    <path
       d="M881 570 c-37 -190 -37 -200 -12 -200 23 0 23 0 51 145 12 61 24 117 27 125 5 13 15 -30 54 -217 8 -41 15 -53 29 -53 10 0 21 3 24 8 2 4 -11 84 -30 177 -19 94 -34 171 -34 173 0 1 -17 2 -39 2 l-39 0 -31 -160z"
       id="path44"
       style="fill:#ffffff" />
    <path
       d="M1092 718 c-8 -8 -12 -60 -12 -170 0 -150 1 -158 21 -169 31 -16 177 -8 189 11 15 23 13 313 -2 328 -7 7 -44 12 -98 12 -54 0 -91 -5 -98 -12z m156 -162 c3 -132 2 -136 -60 -136 -59 0 -68 17 -68 130 0 132 0 132 69 128 l56 -3 3 -119z"
       id="path46"
       style="fill:#ffffff" />
  </g>
</svg>
